<?xml version="1.0" encoding="utf-8"?>
<!-- Generator: Adobe Illustrator 25.2.1, SVG Export Plug-In . SVG Version: 6.00 Build 0)  -->
<svg version="1.1" id="Capa_1" xmlns="http://www.w3.org/2000/svg" xmlns:xlink="http://www.w3.org/1999/xlink" x="0px" y="0px"
	 viewBox="0 0 575 347" style="enable-background:new 0 0 575 347;" xml:space="preserve">
<style type="text/css">
	.st0{fill:#F2F2F2;}
	.st1{fill:#FFFFFF;}
	.st2{fill:#E90600;}
	.st3{fill:#FF9600;}
	.st4{fill:#1ABF00;}
	.st5{fill:#666666;}
	.st6{fill:#FF2A30;}
	.st7{fill:#CCCCCC;}
	.st8{fill:#E6E6E6;stroke:#E6E6E6;stroke-width:0.75;stroke-miterlimit:10;}
	.st9{fill:#94ACFF;}
	.st10{fill:#E8AAFF;}
	.st11{fill:#6EFF6A;}
	.st12{fill:#22B573;}
	.st13{fill:#00BF15;}
	.st14{fill:none;}
	.st15{fill:#ED1C24;}
	.st16{fill:#F7931E;}
	.st17{fill:#3FA9F5;}
</style>
<g>
	<path class="st0" d="M574,38H0V20.3C0,9.1,9.1,0,20.3,0h533.4C564.9,0,574,9.1,574,20.3V38z"/>
</g>
<g>
	<path class="st1" d="M562.2,347H9c-4.4,0-8-3.6-8-8V35h574v299.2C575,341.3,569.3,347,562.2,347z"/>
</g>
<path class="st2" d="M25,26L25,26c-3.9,0-7-3.1-7-7v0c0-3.9,3.1-7,7-7h0c3.9,0,7,3.1,7,7v0C32,22.9,28.9,26,25,26z"/>
<path class="st3" d="M49,26L49,26c-3.9,0-7-3.1-7-7v0c0-3.9,3.1-7,7-7h0c3.9,0,7,3.1,7,7v0C56,22.9,52.9,26,49,26z"/>
<path class="st4" d="M72,26L72,26c-3.9,0-7-3.1-7-7v0c0-3.9,3.1-7,7-7h0c3.9,0,7,3.1,7,7v0C79,22.9,75.9,26,72,26z"/>
<g>
	<path class="st5" d="M272.7,16.7h-3.3v-1.2h8v1.2h-3.3v9.6h-1.4V16.7z"/>
	<path class="st5" d="M279.9,16.4c0,0.5-0.3,0.9-0.9,0.9c-0.5,0-0.8-0.4-0.8-0.9c0-0.5,0.4-0.9,0.9-0.9
		C279.6,15.5,279.9,15.9,279.9,16.4z M278.4,26.3v-7.7h1.4v7.7H278.4z"/>
	<path class="st5" d="M287.6,26.1c-0.4,0.2-1.2,0.4-2.2,0.4c-2.3,0-3.9-1.6-3.9-4c0-2.4,1.6-4.1,4.2-4.1c0.8,0,1.6,0.2,2,0.4
		l-0.3,1.1c-0.3-0.2-0.9-0.4-1.6-0.4c-1.8,0-2.7,1.3-2.7,2.9c0,1.8,1.2,2.9,2.7,2.9c0.8,0,1.3-0.2,1.7-0.4L287.6,26.1z"/>
	<path class="st5" d="M290.7,22.1L290.7,22.1c0.2-0.3,0.5-0.6,0.7-0.9l2.3-2.7h1.7l-3,3.2l3.4,4.6h-1.7l-2.7-3.7l-0.7,0.8v2.9h-1.4
		V15h1.4V22.1z"/>
	<path class="st5" d="M297.6,22.7c0,1.9,1.2,2.7,2.7,2.7c1,0,1.6-0.2,2.1-0.4l0.2,1c-0.5,0.2-1.3,0.5-2.6,0.5
		c-2.4,0-3.8-1.6-3.8-3.9s1.4-4.2,3.6-4.2c2.5,0,3.2,2.2,3.2,3.6c0,0.3,0,0.5,0,0.7H297.6z M301.7,21.7c0-0.9-0.4-2.3-2-2.3
		c-1.4,0-2,1.3-2.2,2.3H301.7z"/>
	<path class="st5" d="M311.5,15v9.4c0,0.7,0,1.5,0.1,2h-1.3l-0.1-1.3h0c-0.4,0.9-1.4,1.5-2.6,1.5c-1.9,0-3.3-1.6-3.3-3.9
		c0-2.6,1.6-4.2,3.5-4.2c1.2,0,2,0.6,2.3,1.2h0V15H311.5z M310.1,21.7c0-0.2,0-0.4-0.1-0.6c-0.2-0.9-1-1.6-2-1.6
		c-1.5,0-2.3,1.3-2.3,3c0,1.6,0.8,2.9,2.3,2.9c0.9,0,1.8-0.6,2.1-1.7c0-0.2,0.1-0.4,0.1-0.6V21.7z"/>
	<path class="st5" d="M313.6,25.5c0-0.6,0.4-1,0.9-1c0.6,0,0.9,0.4,0.9,1c0,0.6-0.4,1-0.9,1C313.9,26.5,313.6,26.1,313.6,25.5z
		 M314,23.2l-0.2-7.7h1.5l-0.2,7.7H314z"/>
</g>
<path class="st5" d="M72,347H8.2c-4.5,0-8.2-3.7-8.2-8.2V35h72V347z"/>
<path class="st6" d="M49.4,340H18.6c-3.6,0-6.6-3-6.6-6.6v-0.8c0-3.6,3-6.6,6.6-6.6h30.8c3.6,0,6.6,3,6.6,6.6v0.8
	C56,337,53,340,49.4,340z"/>
<g>
	<path d="M174.8,61.7h-2.5v-0.9h6v0.9h-2.5v7.2h-1.1V61.7z"/>
	<path d="M183.6,65.9c0,2.1-1.5,3.1-2.9,3.1c-1.6,0-2.8-1.2-2.8-3c0-1.9,1.3-3.1,2.9-3.1C182.5,62.9,183.6,64.1,183.6,65.9z M179,66
		c0,1.3,0.7,2.2,1.8,2.2c1,0,1.8-0.9,1.8-2.3c0-1-0.5-2.2-1.7-2.2C179.5,63.7,179,64.9,179,66z"/>
	<path d="M189.9,60.4v7c0,0.5,0,1.1,0,1.5H189l0-1h0c-0.3,0.6-1,1.1-2,1.1c-1.4,0-2.5-1.2-2.5-3c0-1.9,1.2-3.1,2.6-3.1
		c0.9,0,1.5,0.4,1.8,0.9h0v-3.5H189.9z M188.9,65.4c0-0.1,0-0.3,0-0.4c-0.2-0.7-0.7-1.2-1.5-1.2c-1.1,0-1.7,1-1.7,2.2
		c0,1.2,0.6,2.1,1.7,2.1c0.7,0,1.4-0.5,1.5-1.3c0-0.1,0-0.3,0-0.5V65.4z"/>
	<path d="M194.9,68.9l-0.1-0.7h0c-0.3,0.5-0.9,0.9-1.8,0.9c-1.2,0-1.8-0.8-1.8-1.7c0-1.4,1.2-2.2,3.5-2.2v-0.1
		c0-0.5-0.1-1.3-1.3-1.3c-0.5,0-1.1,0.2-1.5,0.4l-0.2-0.7c0.5-0.3,1.2-0.5,1.9-0.5c1.8,0,2.2,1.2,2.2,2.4v2.2c0,0.5,0,1,0.1,1.4
		H194.9z M194.7,65.9c-1.2,0-2.5,0.2-2.5,1.3c0,0.7,0.5,1,1,1c0.8,0,1.2-0.5,1.4-1c0-0.1,0.1-0.2,0.1-0.3V65.9z"/>
	<path d="M197.8,63.1l1.3,3.4c0.1,0.4,0.3,0.8,0.4,1.2h0c0.1-0.3,0.2-0.8,0.4-1.2l1.2-3.4h1.1l-1.6,4.1c-0.8,2-1.3,3-2,3.6
		c-0.5,0.5-1,0.6-1.3,0.7l-0.3-0.9c0.3-0.1,0.6-0.3,0.9-0.5c0.3-0.2,0.6-0.6,0.9-1.2c0-0.1,0.1-0.2,0.1-0.3c0-0.1,0-0.1-0.1-0.3
		l-2.1-5.3H197.8z"/>
	<path d="M206.6,61.7h-2.5v-0.9h6v0.9h-2.5v7.2h-1.1V61.7z"/>
	<path d="M213.5,68.9l-0.1-0.7h0c-0.3,0.5-0.9,0.9-1.8,0.9c-1.2,0-1.8-0.8-1.8-1.7c0-1.4,1.2-2.2,3.5-2.2v-0.1
		c0-0.5-0.1-1.3-1.3-1.3c-0.5,0-1.1,0.2-1.5,0.4l-0.2-0.7c0.5-0.3,1.2-0.5,1.9-0.5c1.8,0,2.2,1.2,2.2,2.4v2.2c0,0.5,0,1,0.1,1.4
		H213.5z M213.3,65.9c-1.2,0-2.5,0.2-2.5,1.3c0,0.7,0.5,1,1,1c0.8,0,1.2-0.5,1.4-1c0-0.1,0.1-0.2,0.1-0.3V65.9z"/>
	<path d="M215.9,67.8c0.3,0.2,0.9,0.4,1.4,0.4c0.8,0,1.1-0.4,1.1-0.9c0-0.5-0.3-0.8-1.1-1.1c-1-0.4-1.5-0.9-1.5-1.6
		c0-0.9,0.8-1.7,2-1.7c0.6,0,1.1,0.2,1.4,0.4l-0.3,0.8c-0.2-0.1-0.6-0.3-1.2-0.3c-0.6,0-1,0.4-1,0.8c0,0.5,0.3,0.7,1.1,1
		c1,0.4,1.5,0.9,1.5,1.8c0,1-0.8,1.7-2.2,1.7c-0.6,0-1.2-0.2-1.6-0.4L215.9,67.8z"/>
	<path d="M221.9,65.7L221.9,65.7c0.2-0.2,0.4-0.5,0.5-0.7l1.7-2h1.3l-2.2,2.4l2.6,3.4h-1.3l-2-2.8l-0.5,0.6v2.2h-1v-8.5h1V65.7z"/>
	<path d="M226.3,67.8c0.3,0.2,0.9,0.4,1.4,0.4c0.8,0,1.1-0.4,1.1-0.9c0-0.5-0.3-0.8-1.1-1.1c-1-0.4-1.5-0.9-1.5-1.6
		c0-0.9,0.8-1.7,2-1.7c0.6,0,1.1,0.2,1.4,0.4l-0.3,0.8c-0.2-0.1-0.6-0.3-1.2-0.3c-0.6,0-1,0.4-1,0.8c0,0.5,0.3,0.7,1.1,1
		c1,0.4,1.5,0.9,1.5,1.8c0,1-0.8,1.7-2.2,1.7c-0.6,0-1.2-0.2-1.6-0.4L226.3,67.8z"/>
	<path d="M230.9,64c0-0.4,0.3-0.8,0.7-0.8s0.7,0.3,0.7,0.8c0,0.4-0.3,0.7-0.7,0.7C231.2,64.8,230.9,64.4,230.9,64z M230.9,68.3
		c0-0.4,0.3-0.8,0.7-0.8s0.7,0.3,0.7,0.8c0,0.4-0.3,0.7-0.7,0.7C231.2,69,230.9,68.7,230.9,68.3z"/>
</g>
<path class="st7" d="M225.5,271h-112c-5.2,0-9.5-4.2-9.5-9.5v-195c0-5.2,4.2-9.5,9.5-9.5h112c5.2,0,9.5,4.2,9.5,9.5v195
	C235,266.8,230.8,271,225.5,271z"/>
<path class="st7" d="M387.5,271h-112c-5.2,0-9.5-4.2-9.5-9.5v-195c0-5.2,4.2-9.5,9.5-9.5h112c5.2,0,9.5,4.2,9.5,9.5v195
	C397,266.8,392.8,271,387.5,271z"/>
<path class="st7" d="M543.5,271h-112c-5.2,0-9.5-4.2-9.5-9.5v-195c0-5.2,4.2-9.5,9.5-9.5h112c5.2,0,9.5,4.2,9.5,9.5v195
	C553,266.8,548.8,271,543.5,271z"/>
<path class="st1" d="M220,264.5H108c-5.2,0-9.5-4.2-9.5-9.5V60c0-5.2,4.2-9.5,9.5-9.5h112c5.2,0,9.5,4.2,9.5,9.5v195
	C229.5,260.3,225.3,264.5,220,264.5z"/>
<path class="st8" d="M382,264.5H270c-5.2,0-9.5-4.2-9.5-9.5V60c0-5.2,4.2-9.5,9.5-9.5h112c5.2,0,9.5,4.2,9.5,9.5v195
	C391.5,260.3,387.3,264.5,382,264.5z"/>
<path class="st8" d="M538,264.5H426c-5.2,0-9.5-4.2-9.5-9.5V60c0-5.2,4.2-9.5,9.5-9.5h112c5.2,0,9.5,4.2,9.5,9.5v195
	C547.5,260.3,543.3,264.5,538,264.5z"/>
<path class="st9" d="M229,120H99V60.5c0-5.2,4.2-9.5,9.5-9.5h111c5.2,0,9.5,4.2,9.5,9.5V120z"/>
<path class="st10" d="M391,120H261V60.5c0-5.2,4.2-9.5,9.5-9.5h111c5.2,0,9.5,4.2,9.5,9.5V120z"/>
<path class="st11" d="M547,120H417V60.5c0-5.2,4.2-9.5,9.5-9.5h111c5.2,0,9.5,4.2,9.5,9.5V120z"/>
<g>
	<path d="M110.5,83.2h6v1.1h-6V83.2z M113,83.9h1.2v7.8H113V83.9z"/>
	<path d="M117.7,91.5c-0.4-0.2-0.7-0.5-0.9-0.9s-0.3-0.9-0.3-1.4v-1c0-0.6,0.1-1,0.3-1.4s0.5-0.7,0.9-0.9s0.8-0.3,1.4-0.3
		s1,0.1,1.4,0.3s0.7,0.5,0.9,0.9s0.3,0.9,0.3,1.4v1c0,0.6-0.1,1-0.3,1.4s-0.5,0.7-0.9,0.9s-0.8,0.3-1.4,0.3S118.1,91.7,117.7,91.5z
		 M120,90.3c0.2-0.3,0.3-0.6,0.3-1.1v-1c0-0.5-0.1-0.8-0.3-1.1s-0.6-0.4-1-0.4s-0.7,0.1-1,0.4s-0.3,0.6-0.3,1.1v1
		c0,0.5,0.1,0.8,0.3,1.1s0.6,0.4,1,0.4S119.8,90.6,120,90.3z"/>
	<path d="M124.1,91.6c-0.3-0.2-0.6-0.5-0.7-0.8s-0.2-0.8-0.2-1.3V88c0-0.5,0.1-1,0.2-1.3s0.4-0.7,0.7-0.8s0.7-0.3,1.1-0.3
		c0.4,0,0.7,0.1,1,0.3s0.5,0.5,0.7,0.8l-0.1,1.2c0-0.3,0-0.5-0.1-0.7s-0.2-0.3-0.4-0.4s-0.4-0.1-0.6-0.1c-0.4,0-0.7,0.1-0.9,0.4
		s-0.3,0.6-0.3,1v1.3c0,0.4,0.1,0.8,0.3,1s0.5,0.4,0.9,0.4c0.3,0,0.5,0,0.6-0.1s0.3-0.2,0.4-0.4s0.1-0.4,0.1-0.7l0.1,1.3
		c-0.1,0.3-0.3,0.6-0.6,0.8s-0.6,0.3-1,0.3C124.8,91.9,124.4,91.8,124.1,91.6z M126.7,83.2h1.2v8.5h-1.2V83.2z"/>
	<path d="M130,91.4c-0.4-0.3-0.6-0.8-0.6-1.4c0-0.6,0.2-1.1,0.5-1.4s0.9-0.5,1.5-0.5h1.7l0.1,1h-1.8c-0.3,0-0.5,0.1-0.7,0.2
		s-0.2,0.4-0.2,0.6c0,0.3,0.1,0.5,0.3,0.7s0.5,0.2,0.9,0.2c0.5,0,0.8,0,1-0.1s0.3-0.2,0.3-0.5l0.1,0.9c-0.1,0.2-0.2,0.3-0.4,0.4
		s-0.3,0.2-0.5,0.2s-0.4,0.1-0.7,0.1C130.9,91.8,130.4,91.7,130,91.4z M133.2,87.9c0-0.4-0.1-0.7-0.3-0.9s-0.5-0.3-0.9-0.3
		c-0.2,0-0.5,0-0.7,0.1s-0.4,0.2-0.6,0.3l-0.9-0.6c0.2-0.3,0.5-0.5,0.9-0.6s0.8-0.2,1.3-0.2c0.5,0,0.9,0.1,1.3,0.3s0.6,0.4,0.8,0.8
		s0.3,0.7,0.3,1.2v3.9h-1.1V87.9z"/>
	<path d="M135.3,85.7h1.2l1.9,5.3l-0.7,1.3L135.3,85.7z M140.7,85.7l-2.6,7.5c-0.1,0.3-0.2,0.5-0.4,0.7s-0.3,0.3-0.6,0.3
		s-0.5,0.1-0.8,0.1h-0.2v-1.1h0.2c0.2,0,0.4,0,0.5-0.1s0.2-0.2,0.3-0.5l2.2-6.9H140.7z"/>
	<path d="M143.9,83.2h6v1.1h-6V83.2z M146.3,83.9h1.2v7.8h-1.2V83.9z"/>
	<path d="M150.5,91.4c-0.4-0.3-0.6-0.8-0.6-1.4c0-0.6,0.2-1.1,0.5-1.4s0.9-0.5,1.5-0.5h1.7l0.1,1H152c-0.3,0-0.5,0.1-0.7,0.2
		s-0.2,0.4-0.2,0.6c0,0.3,0.1,0.5,0.3,0.7s0.5,0.2,0.9,0.2c0.5,0,0.8,0,1-0.1s0.3-0.2,0.3-0.5l0.1,0.9c-0.1,0.2-0.2,0.3-0.4,0.4
		s-0.3,0.2-0.5,0.2s-0.4,0.1-0.7,0.1C151.5,91.8,150.9,91.7,150.5,91.4z M153.7,87.9c0-0.4-0.1-0.7-0.3-0.9s-0.5-0.3-0.9-0.3
		c-0.2,0-0.5,0-0.7,0.1s-0.4,0.2-0.6,0.3l-0.9-0.6c0.2-0.3,0.5-0.5,0.9-0.6s0.8-0.2,1.3-0.2c0.5,0,0.9,0.1,1.3,0.3s0.6,0.4,0.8,0.8
		s0.3,0.7,0.3,1.2v3.9h-1.1V87.9z"/>
	<path d="M157.8,91.7c-0.3-0.1-0.6-0.2-0.9-0.3s-0.5-0.3-0.8-0.5l0.7-0.9c0.3,0.2,0.7,0.4,1,0.6s0.6,0.2,1,0.2
		c0.5,0,0.8-0.1,1.1-0.2s0.4-0.4,0.4-0.7c0-0.2-0.1-0.3-0.2-0.4s-0.3-0.2-0.5-0.2s-0.5-0.1-0.8-0.1c0,0-0.1,0-0.1,0s-0.1,0-0.1,0
		c0,0,0,0,0,0s0,0,0,0c-0.4,0-0.7-0.1-1-0.2s-0.5-0.2-0.7-0.5s-0.3-0.6-0.3-1s0.1-0.8,0.3-1.1s0.4-0.5,0.8-0.6s0.8-0.2,1.3-0.2
		c0.3,0,0.6,0,0.9,0.1s0.6,0.1,0.8,0.3s0.5,0.3,0.8,0.4l-0.7,0.9c-0.3-0.2-0.6-0.3-0.9-0.4s-0.6-0.1-0.9-0.1c-0.4,0-0.7,0.1-0.9,0.2
		s-0.3,0.3-0.3,0.6c0,0.2,0.1,0.3,0.2,0.4s0.3,0.1,0.4,0.2s0.4,0.1,0.8,0.1c0,0,0,0,0.1,0s0.1,0,0.1,0c0,0,0,0,0,0s0,0,0,0
		c0.4,0,0.8,0.1,1.1,0.2s0.6,0.3,0.8,0.5s0.3,0.6,0.3,1.1c0,0.4-0.1,0.8-0.3,1.1s-0.5,0.5-0.8,0.6s-0.8,0.2-1.4,0.2
		C158.5,91.8,158.1,91.8,157.8,91.7z"/>
	<path d="M162.9,83.2h1.2v8.5h-1.2V83.2z M163.4,89.4l3.1-3.8h1.4l-4.6,5.2L163.4,89.4z M164.8,88.2l0.8-0.8l2.7,4.3h-1.3
		L164.8,88.2z"/>
	<path d="M170.4,91.7c-0.3-0.1-0.6-0.2-0.9-0.3s-0.5-0.3-0.8-0.5l0.7-0.9c0.3,0.2,0.7,0.4,1,0.6s0.6,0.2,1,0.2
		c0.5,0,0.8-0.1,1.1-0.2s0.4-0.4,0.4-0.7c0-0.2-0.1-0.3-0.2-0.4s-0.3-0.2-0.5-0.2s-0.5-0.1-0.8-0.1c0,0-0.1,0-0.1,0s-0.1,0-0.1,0
		c0,0,0,0,0,0s0,0,0,0c-0.4,0-0.7-0.1-1-0.2s-0.5-0.2-0.7-0.5s-0.3-0.6-0.3-1s0.1-0.8,0.3-1.1s0.4-0.5,0.8-0.6s0.8-0.2,1.3-0.2
		c0.3,0,0.6,0,0.9,0.1s0.6,0.1,0.8,0.3s0.5,0.3,0.8,0.4l-0.7,0.9c-0.3-0.2-0.6-0.3-0.9-0.4s-0.6-0.1-0.9-0.1c-0.4,0-0.7,0.1-0.9,0.2
		s-0.3,0.3-0.3,0.6c0,0.2,0.1,0.3,0.2,0.4s0.3,0.1,0.4,0.2s0.4,0.1,0.8,0.1c0,0,0,0,0.1,0s0.1,0,0.1,0c0,0,0,0,0,0s0,0,0,0
		c0.4,0,0.8,0.1,1.1,0.2s0.6,0.3,0.8,0.5s0.3,0.6,0.3,1.1c0,0.4-0.1,0.8-0.3,1.1s-0.5,0.5-0.8,0.6s-0.8,0.2-1.4,0.2
		C171,91.8,170.7,91.8,170.4,91.7z"/>
	<path d="M175.2,85.6h1.3v1.3h-1.3V85.6z M175.2,90.5h1.3v1.3h-1.3V90.5z"/>
</g>
<path class="st0" d="M218.1,143.7H110.9c-3.8,0-6.9-3.1-6.9-6.9v0c0-3.8,3.1-6.9,6.9-6.9h107.3c3.8,0,6.9,3.1,6.9,6.9v0
	C225,140.7,221.9,143.7,218.1,143.7z"/>
<path class="st0" d="M380.1,147.7H272.9c-3.8,0-6.9-3.1-6.9-6.9v0c0-3.8,3.1-6.9,6.9-6.9h107.3c3.8,0,6.9,3.1,6.9,6.9v0
	C387,144.7,383.9,147.7,380.1,147.7z"/>
<path class="st0" d="M536.1,148.7H428.9c-3.8,0-6.9-3.1-6.9-6.9v0c0-3.8,3.1-6.9,6.9-6.9h107.3c3.8,0,6.9,3.1,6.9,6.9v0
	C543,145.7,539.9,148.7,536.1,148.7z"/>
<path class="st0" d="M218.1,161.7H110.9c-3.8,0-6.9-3.1-6.9-6.9v0c0-3.8,3.1-6.9,6.9-6.9h107.3c3.8,0,6.9,3.1,6.9,6.9v0
	C225,158.7,221.9,161.7,218.1,161.7z"/>
<path class="st0" d="M218.1,179.7H110.9c-3.8,0-6.9-3.1-6.9-6.9v0c0-3.8,3.1-6.9,6.9-6.9h107.3c3.8,0,6.9,3.1,6.9,6.9v0
	C225,176.7,221.9,179.7,218.1,179.7z"/>
<path class="st0" d="M219.1,201.7H111.9c-3.8,0-6.9-3.1-6.9-6.9v0c0-3.8,3.1-6.9,6.9-6.9h107.3c3.8,0,6.9,3.1,6.9,6.9v0
	C226,198.7,222.9,201.7,219.1,201.7z"/>
<path class="st12" d="M219.1,259.7H111.9c-3.8,0-6.9-3.1-6.9-6.9v0c0-3.8,3.1-6.9,6.9-6.9h107.3c3.8,0,6.9,3.1,6.9,6.9v0
	C226,256.7,222.9,259.7,219.1,259.7z"/>
<path class="st12" d="M535.1,259.7H427.9c-3.8,0-6.9-3.1-6.9-6.9v0c0-3.8,3.1-6.9,6.9-6.9h107.3c3.8,0,6.9,3.1,6.9,6.9v0
	C542,256.7,538.9,259.7,535.1,259.7z"/>
<path class="st12" d="M380.1,259.7H272.9c-3.8,0-6.9-3.1-6.9-6.9v0c0-3.8,3.1-6.9,6.9-6.9h107.3c3.8,0,6.9,3.1,6.9,6.9v0
	C387,256.7,383.9,259.7,380.1,259.7z"/>
<g>
	<path d="M115,134.6h0.5l1,3.9l0.9-3.9h0.7l-1.2,5h-0.7l-0.9-3.5l-1,3.5h-0.7l-1.2-5h0.7l0.9,3.9L115,134.6z"/>
	<path d="M118.7,139.4c-0.2-0.2-0.3-0.5-0.3-0.8c0-0.4,0.1-0.6,0.3-0.8c0.2-0.2,0.5-0.3,0.9-0.3h1l0,0.6h-1.1c-0.2,0-0.3,0-0.4,0.1
		s-0.1,0.2-0.1,0.4c0,0.2,0.1,0.3,0.2,0.4c0.1,0.1,0.3,0.1,0.5,0.1c0.3,0,0.5,0,0.6-0.1c0.1-0.1,0.2-0.1,0.2-0.3l0.1,0.5
		c-0.1,0.1-0.1,0.2-0.2,0.2c-0.1,0.1-0.2,0.1-0.3,0.1c-0.1,0-0.3,0-0.4,0C119.3,139.7,118.9,139.6,118.7,139.4z M120.6,137.4
		c0-0.2-0.1-0.4-0.2-0.5s-0.3-0.2-0.5-0.2c-0.1,0-0.3,0-0.4,0.1s-0.3,0.1-0.4,0.2l-0.5-0.3c0.1-0.2,0.3-0.3,0.5-0.4
		c0.2-0.1,0.5-0.1,0.7-0.1c0.3,0,0.5,0.1,0.8,0.2s0.4,0.3,0.5,0.5s0.2,0.4,0.2,0.7v2.3h-0.7V137.4z"/>
	<path d="M123,138.7c0,0.1,0,0.2,0.1,0.2c0,0,0.1,0.1,0.2,0.1h0.3v0.7h-0.4c-0.3,0-0.5-0.1-0.6-0.2s-0.2-0.4-0.2-0.7v-4h0.7V138.7z"
		/>
	<path d="M124.3,134.6h0.7v5h-0.7V134.6z M124.6,138.3l1.8-2.2h0.8l-2.7,3L124.6,138.3z M125.5,137.6l0.4-0.5l1.5,2.5h-0.8
		L125.5,137.6z"/>
	<path d="M129.6,136.1h1.6v0.6h-1.6V136.1z M130.2,139.4c-0.1-0.2-0.2-0.4-0.2-0.7V135h0.7v3.7c0,0.1,0,0.2,0.1,0.2
		c0,0,0.1,0.1,0.2,0.1h0.3v0.7h-0.4C130.5,139.6,130.3,139.6,130.2,139.4z"/>
	<path d="M132.2,134.6h0.7v5h-0.7V134.6z M134.3,137.5c0-0.2-0.1-0.4-0.2-0.6c-0.1-0.1-0.3-0.2-0.5-0.2c-0.2,0-0.4,0.1-0.5,0.2
		c-0.1,0.1-0.2,0.3-0.2,0.5l-0.1-0.7c0.1-0.2,0.3-0.4,0.4-0.5c0.2-0.1,0.4-0.2,0.6-0.2c0.4,0,0.7,0.1,0.9,0.4
		c0.2,0.3,0.3,0.6,0.3,1.1v2.2h-0.7V137.5z"/>
	<path d="M136.7,139.5c-0.2-0.1-0.4-0.3-0.5-0.5c-0.1-0.2-0.2-0.5-0.2-0.9v-0.4c0-0.4,0.1-0.7,0.2-0.9s0.3-0.4,0.5-0.6
		c0.2-0.1,0.5-0.2,0.8-0.2c0.3,0,0.5,0.1,0.8,0.2c0.2,0.1,0.4,0.4,0.5,0.6c0.1,0.3,0.2,0.6,0.2,1v0.2h-2.4v-0.6h1.7
		c0-0.3-0.1-0.5-0.2-0.7c-0.1-0.2-0.3-0.2-0.5-0.2c-0.3,0-0.5,0.1-0.6,0.3c-0.1,0.2-0.2,0.4-0.2,0.7v0.5c0,0.3,0.1,0.5,0.2,0.7
		s0.4,0.2,0.7,0.2c0.1,0,0.3,0,0.4-0.1s0.3-0.1,0.4-0.2l0.5,0.5c-0.2,0.2-0.4,0.3-0.6,0.4c-0.2,0.1-0.4,0.1-0.7,0.1
		C137.2,139.7,137,139.6,136.7,139.5z"/>
	<path d="M142.2,139.5c-0.2-0.1-0.3-0.3-0.4-0.5s-0.1-0.5-0.1-0.8v-0.8c0-0.3,0-0.6,0.1-0.8c0.1-0.2,0.2-0.4,0.4-0.5
		c0.2-0.1,0.4-0.2,0.6-0.2c0.2,0,0.4,0.1,0.6,0.2c0.2,0.1,0.3,0.3,0.4,0.5l-0.1,0.7c0-0.2,0-0.3-0.1-0.4s-0.1-0.2-0.2-0.2
		c-0.1-0.1-0.2-0.1-0.4-0.1c-0.2,0-0.4,0.1-0.5,0.2c-0.1,0.1-0.2,0.3-0.2,0.6v0.8c0,0.3,0.1,0.5,0.2,0.6c0.1,0.1,0.3,0.2,0.5,0.2
		c0.1,0,0.3,0,0.4-0.1c0.1-0.1,0.2-0.1,0.2-0.3s0.1-0.2,0.1-0.4l0,0.7c-0.1,0.2-0.2,0.3-0.3,0.4c-0.2,0.1-0.4,0.2-0.6,0.2
		C142.6,139.7,142.4,139.6,142.2,139.5z M143.8,134.6h0.7v5h-0.7V134.6z"/>
	<path d="M146.1,139.5c-0.2-0.1-0.4-0.3-0.5-0.5c-0.1-0.2-0.2-0.5-0.2-0.8v-0.6c0-0.3,0.1-0.6,0.2-0.8c0.1-0.2,0.3-0.4,0.5-0.5
		c0.2-0.1,0.5-0.2,0.8-0.2s0.6,0.1,0.8,0.2c0.2,0.1,0.4,0.3,0.5,0.5c0.1,0.2,0.2,0.5,0.2,0.8v0.6c0,0.3-0.1,0.6-0.2,0.8
		c-0.1,0.2-0.3,0.4-0.5,0.5s-0.5,0.2-0.8,0.2S146.3,139.6,146.1,139.5z M147.4,138.8c0.1-0.2,0.2-0.4,0.2-0.6v-0.6
		c0-0.3-0.1-0.5-0.2-0.6c-0.1-0.2-0.3-0.2-0.6-0.2s-0.4,0.1-0.6,0.2c-0.1,0.2-0.2,0.4-0.2,0.6v0.6c0,0.3,0.1,0.5,0.2,0.6
		c0.1,0.2,0.3,0.2,0.6,0.2S147.3,138.9,147.4,138.8z"/>
	<path d="M149.8,139.5c-0.2-0.1-0.3-0.3-0.4-0.5s-0.1-0.5-0.1-0.8v-0.8c0-0.3,0-0.6,0.1-0.8c0.1-0.2,0.2-0.4,0.4-0.5
		c0.2-0.1,0.4-0.2,0.6-0.2c0.2,0,0.4,0.1,0.6,0.2c0.2,0.1,0.3,0.3,0.4,0.5l-0.1,0.7c0-0.2,0-0.3-0.1-0.4s-0.1-0.2-0.2-0.2
		c-0.1-0.1-0.2-0.1-0.4-0.1c-0.2,0-0.4,0.1-0.5,0.2c-0.1,0.1-0.2,0.3-0.2,0.6v0.8c0,0.3,0.1,0.5,0.2,0.6c0.1,0.1,0.3,0.2,0.5,0.2
		c0.1,0,0.3,0,0.4-0.1c0.1-0.1,0.2-0.1,0.2-0.3s0.1-0.2,0.1-0.4l0,0.7c-0.1,0.2-0.2,0.3-0.3,0.4c-0.2,0.1-0.4,0.2-0.6,0.2
		C150.2,139.7,150,139.6,149.8,139.5z M149.8,140.9c-0.2-0.1-0.4-0.2-0.5-0.4l0.5-0.4c0.1,0.1,0.2,0.2,0.3,0.3
		c0.1,0.1,0.3,0.1,0.4,0.1c0.3,0,0.5-0.1,0.6-0.2c0.1-0.1,0.2-0.4,0.2-0.6v-3.5h0.7v3.4c0,0.3-0.1,0.6-0.2,0.8
		c-0.1,0.2-0.3,0.4-0.5,0.5c-0.2,0.1-0.5,0.2-0.8,0.2C150.2,141.1,150,141,149.8,140.9z"/>
</g>
<g>
	<path d="M275,138.6h0.5l1,3.9l0.9-3.9h0.7l-1.2,5h-0.7l-0.9-3.5l-1,3.5h-0.7l-1.2-5h0.7l0.9,3.9L275,138.6z"/>
	<path d="M278.7,143.4c-0.2-0.2-0.3-0.5-0.3-0.8c0-0.4,0.1-0.6,0.3-0.8c0.2-0.2,0.5-0.3,0.9-0.3h1l0,0.6h-1.1c-0.2,0-0.3,0-0.4,0.1
		s-0.1,0.2-0.1,0.4c0,0.2,0.1,0.3,0.2,0.4c0.1,0.1,0.3,0.1,0.5,0.1c0.3,0,0.5,0,0.6-0.1c0.1-0.1,0.2-0.1,0.2-0.3l0.1,0.5
		c-0.1,0.1-0.1,0.2-0.2,0.2c-0.1,0.1-0.2,0.1-0.3,0.1c-0.1,0-0.3,0-0.4,0C279.3,143.7,278.9,143.6,278.7,143.4z M280.6,141.4
		c0-0.2-0.1-0.4-0.2-0.5s-0.3-0.2-0.5-0.2c-0.1,0-0.3,0-0.4,0.1s-0.3,0.1-0.4,0.2l-0.5-0.3c0.1-0.2,0.3-0.3,0.5-0.4
		c0.2-0.1,0.5-0.1,0.7-0.1c0.3,0,0.5,0.1,0.8,0.2s0.4,0.3,0.5,0.5s0.2,0.4,0.2,0.7v2.3h-0.7V141.4z"/>
	<path d="M283,142.7c0,0.1,0,0.2,0.1,0.2c0,0,0.1,0.1,0.2,0.1h0.3v0.7h-0.4c-0.3,0-0.5-0.1-0.6-0.2s-0.2-0.4-0.2-0.7v-4h0.7V142.7z"
		/>
	<path d="M284.3,138.6h0.7v5h-0.7V138.6z M284.6,142.3l1.8-2.2h0.8l-2.7,3L284.6,142.3z M285.5,141.6l0.4-0.5l1.5,2.5h-0.8
		L285.5,141.6z"/>
	<path d="M289.6,140.1h1.6v0.6h-1.6V140.1z M290.2,143.4c-0.1-0.2-0.2-0.4-0.2-0.7V139h0.7v3.7c0,0.1,0,0.2,0.1,0.2
		c0,0,0.1,0.1,0.2,0.1h0.3v0.7h-0.4C290.5,143.6,290.3,143.6,290.2,143.4z"/>
	<path d="M292.2,138.6h0.7v5h-0.7V138.6z M294.3,141.5c0-0.2-0.1-0.4-0.2-0.6c-0.1-0.1-0.3-0.2-0.5-0.2c-0.2,0-0.4,0.1-0.5,0.2
		c-0.1,0.1-0.2,0.3-0.2,0.5l-0.1-0.7c0.1-0.2,0.3-0.4,0.4-0.5c0.2-0.1,0.4-0.2,0.6-0.2c0.4,0,0.7,0.1,0.9,0.4
		c0.2,0.3,0.3,0.6,0.3,1.1v2.2h-0.7V141.5z"/>
	<path d="M296.7,143.5c-0.2-0.1-0.4-0.3-0.5-0.5c-0.1-0.2-0.2-0.5-0.2-0.9v-0.4c0-0.4,0.1-0.7,0.2-0.9s0.3-0.4,0.5-0.6
		c0.2-0.1,0.5-0.2,0.8-0.2c0.3,0,0.5,0.1,0.8,0.2c0.2,0.1,0.4,0.4,0.5,0.6c0.1,0.3,0.2,0.6,0.2,1v0.2h-2.4v-0.6h1.7
		c0-0.3-0.1-0.5-0.2-0.7c-0.1-0.2-0.3-0.2-0.5-0.2c-0.3,0-0.5,0.1-0.6,0.3c-0.1,0.2-0.2,0.4-0.2,0.7v0.5c0,0.3,0.1,0.5,0.2,0.7
		s0.4,0.2,0.7,0.2c0.1,0,0.3,0,0.4-0.1s0.3-0.1,0.4-0.2l0.5,0.5c-0.2,0.2-0.4,0.3-0.6,0.4c-0.2,0.1-0.4,0.1-0.7,0.1
		C297.2,143.7,297,143.6,296.7,143.5z"/>
	<path d="M302.2,143.5c-0.2-0.1-0.3-0.3-0.4-0.5s-0.1-0.5-0.1-0.8v-0.8c0-0.3,0-0.6,0.1-0.8c0.1-0.2,0.2-0.4,0.4-0.5
		c0.2-0.1,0.4-0.2,0.6-0.2c0.2,0,0.4,0.1,0.6,0.2c0.2,0.1,0.3,0.3,0.4,0.5l-0.1,0.7c0-0.2,0-0.3-0.1-0.4s-0.1-0.2-0.2-0.2
		c-0.1-0.1-0.2-0.1-0.4-0.1c-0.2,0-0.4,0.1-0.5,0.2c-0.1,0.1-0.2,0.3-0.2,0.6v0.8c0,0.3,0.1,0.5,0.2,0.6c0.1,0.1,0.3,0.2,0.5,0.2
		c0.1,0,0.3,0,0.4-0.1c0.1-0.1,0.2-0.1,0.2-0.3s0.1-0.2,0.1-0.4l0,0.7c-0.1,0.2-0.2,0.3-0.3,0.4c-0.2,0.1-0.4,0.2-0.6,0.2
		C302.6,143.7,302.4,143.6,302.2,143.5z M303.8,138.6h0.7v5h-0.7V138.6z"/>
	<path d="M306.1,143.5c-0.2-0.1-0.4-0.3-0.5-0.5c-0.1-0.2-0.2-0.5-0.2-0.8v-0.6c0-0.3,0.1-0.6,0.2-0.8c0.1-0.2,0.3-0.4,0.5-0.5
		c0.2-0.1,0.5-0.2,0.8-0.2s0.6,0.1,0.8,0.2c0.2,0.1,0.4,0.3,0.5,0.5c0.1,0.2,0.2,0.5,0.2,0.8v0.6c0,0.3-0.1,0.6-0.2,0.8
		c-0.1,0.2-0.3,0.4-0.5,0.5s-0.5,0.2-0.8,0.2S306.3,143.6,306.1,143.5z M307.4,142.8c0.1-0.2,0.2-0.4,0.2-0.6v-0.6
		c0-0.3-0.1-0.5-0.2-0.6c-0.1-0.2-0.3-0.2-0.6-0.2s-0.4,0.1-0.6,0.2c-0.1,0.2-0.2,0.4-0.2,0.6v0.6c0,0.3,0.1,0.5,0.2,0.6
		c0.1,0.2,0.3,0.2,0.6,0.2S307.3,142.9,307.4,142.8z"/>
	<path d="M309.8,143.5c-0.2-0.1-0.3-0.3-0.4-0.5s-0.1-0.5-0.1-0.8v-0.8c0-0.3,0-0.6,0.1-0.8c0.1-0.2,0.2-0.4,0.4-0.5
		c0.2-0.1,0.4-0.2,0.6-0.2c0.2,0,0.4,0.1,0.6,0.2c0.2,0.1,0.3,0.3,0.4,0.5l-0.1,0.7c0-0.2,0-0.3-0.1-0.4s-0.1-0.2-0.2-0.2
		c-0.1-0.1-0.2-0.1-0.4-0.1c-0.2,0-0.4,0.1-0.5,0.2c-0.1,0.1-0.2,0.3-0.2,0.6v0.8c0,0.3,0.1,0.5,0.2,0.6c0.1,0.1,0.3,0.2,0.5,0.2
		c0.1,0,0.3,0,0.4-0.1c0.1-0.1,0.2-0.1,0.2-0.3s0.1-0.2,0.1-0.4l0,0.7c-0.1,0.2-0.2,0.3-0.3,0.4c-0.2,0.1-0.4,0.2-0.6,0.2
		C310.2,143.7,310,143.6,309.8,143.5z M309.8,144.9c-0.2-0.1-0.4-0.2-0.5-0.4l0.5-0.4c0.1,0.1,0.2,0.2,0.3,0.3
		c0.1,0.1,0.3,0.1,0.4,0.1c0.3,0,0.5-0.1,0.6-0.2c0.1-0.1,0.2-0.4,0.2-0.6v-3.5h0.7v3.4c0,0.3-0.1,0.6-0.2,0.8
		c-0.1,0.2-0.3,0.4-0.5,0.5c-0.2,0.1-0.5,0.2-0.8,0.2C310.2,145.1,310,145,309.8,144.9z"/>
</g>
<g>
	<path d="M427.9,139.6h0.7v5h-0.7V139.6z M428.2,139.6h2.8v0.7h-2.8V139.6z M428.2,141.9h2.4v0.7h-2.4V141.9z"/>
	<path d="M432.3,144.5c-0.2-0.1-0.4-0.3-0.5-0.5c-0.1-0.2-0.2-0.5-0.2-0.8v-0.6c0-0.3,0.1-0.6,0.2-0.8c0.1-0.2,0.3-0.4,0.5-0.5
		c0.2-0.1,0.5-0.2,0.8-0.2c0.3,0,0.6,0.1,0.8,0.2c0.2,0.1,0.4,0.3,0.5,0.5c0.1,0.2,0.2,0.5,0.2,0.8v0.6c0,0.3-0.1,0.6-0.2,0.8
		c-0.1,0.2-0.3,0.4-0.5,0.5s-0.5,0.2-0.8,0.2C432.8,144.7,432.5,144.6,432.3,144.5z M433.7,143.8c0.1-0.2,0.2-0.4,0.2-0.6v-0.6
		c0-0.3-0.1-0.5-0.2-0.6c-0.1-0.2-0.3-0.2-0.6-0.2c-0.2,0-0.4,0.1-0.6,0.2s-0.2,0.4-0.2,0.6v0.6c0,0.3,0.1,0.5,0.2,0.6
		s0.3,0.2,0.6,0.2C433.3,144,433.5,143.9,433.7,143.8z"/>
	<path d="M436.1,144.5c-0.2-0.1-0.4-0.3-0.5-0.5c-0.1-0.2-0.2-0.5-0.2-0.8v-0.6c0-0.3,0.1-0.6,0.2-0.8c0.1-0.2,0.3-0.4,0.5-0.5
		c0.2-0.1,0.5-0.2,0.8-0.2c0.3,0,0.6,0.1,0.8,0.2c0.2,0.1,0.4,0.3,0.5,0.5c0.1,0.2,0.2,0.5,0.2,0.8v0.6c0,0.3-0.1,0.6-0.2,0.8
		c-0.1,0.2-0.3,0.4-0.5,0.5s-0.5,0.2-0.8,0.2C436.6,144.7,436.3,144.6,436.1,144.5z M437.5,143.8c0.1-0.2,0.2-0.4,0.2-0.6v-0.6
		c0-0.3-0.1-0.5-0.2-0.6c-0.1-0.2-0.3-0.2-0.6-0.2c-0.2,0-0.4,0.1-0.6,0.2s-0.2,0.4-0.2,0.6v0.6c0,0.3,0.1,0.5,0.2,0.6
		s0.3,0.2,0.6,0.2C437.2,144,437.3,143.9,437.5,143.8z"/>
	<path d="M439.1,141.1h1.6v0.6h-1.6V141.1z M439.7,144.4c-0.1-0.2-0.2-0.4-0.2-0.7V140h0.7v3.7c0,0.1,0,0.2,0.1,0.2
		c0,0,0.1,0.1,0.2,0.1h0.3v0.7h-0.4C440,144.6,439.8,144.6,439.7,144.4z"/>
	<path d="M441.6,139.6h0.7v5h-0.7V139.6z M442.7,144.5c-0.2-0.1-0.3-0.3-0.4-0.4l0-0.7c0,0.2,0,0.3,0.1,0.4s0.1,0.2,0.2,0.2
		s0.2,0.1,0.4,0.1c0.2,0,0.4-0.1,0.5-0.2c0.1-0.1,0.2-0.3,0.2-0.6v-0.8c0-0.3-0.1-0.5-0.2-0.6s-0.3-0.2-0.5-0.2
		c-0.1,0-0.3,0-0.4,0.1s-0.2,0.1-0.2,0.2c-0.1,0.1-0.1,0.2-0.1,0.4l-0.1-0.7c0.1-0.2,0.2-0.4,0.4-0.5c0.2-0.1,0.4-0.2,0.6-0.2
		c0.3,0,0.5,0.1,0.6,0.2c0.2,0.1,0.3,0.3,0.4,0.5c0.1,0.2,0.1,0.5,0.1,0.8v0.8c0,0.3,0,0.6-0.1,0.8s-0.2,0.4-0.4,0.5
		c-0.2,0.1-0.4,0.2-0.7,0.2C443,144.7,442.8,144.6,442.7,144.5z"/>
	<path d="M445.6,144.4c-0.2-0.2-0.3-0.5-0.3-0.8c0-0.4,0.1-0.6,0.3-0.8c0.2-0.2,0.5-0.3,0.9-0.3h1l0,0.6h-1.1c-0.2,0-0.3,0-0.4,0.1
		c-0.1,0.1-0.1,0.2-0.1,0.4c0,0.2,0.1,0.3,0.2,0.4c0.1,0.1,0.3,0.1,0.5,0.1c0.3,0,0.5,0,0.6-0.1c0.1-0.1,0.2-0.1,0.2-0.3l0.1,0.5
		c-0.1,0.1-0.1,0.2-0.2,0.2c-0.1,0.1-0.2,0.1-0.3,0.1c-0.1,0-0.3,0-0.4,0C446.2,144.7,445.8,144.6,445.6,144.4z M447.5,142.4
		c0-0.2-0.1-0.4-0.2-0.5c-0.1-0.1-0.3-0.2-0.5-0.2c-0.1,0-0.3,0-0.4,0.1c-0.1,0-0.3,0.1-0.4,0.2l-0.5-0.3c0.1-0.2,0.3-0.3,0.5-0.4
		c0.2-0.1,0.5-0.1,0.7-0.1c0.3,0,0.5,0.1,0.8,0.2c0.2,0.1,0.4,0.3,0.5,0.5s0.2,0.4,0.2,0.7v2.3h-0.7V142.4z"/>
	<path d="M449.9,143.7c0,0.1,0,0.2,0.1,0.2c0,0,0.1,0.1,0.2,0.1h0.3v0.7H450c-0.3,0-0.5-0.1-0.6-0.2c-0.1-0.2-0.2-0.4-0.2-0.7v-4
		h0.7V143.7z"/>
	<path d="M451.9,143.7c0,0.1,0,0.2,0.1,0.2c0,0,0.1,0.1,0.2,0.1h0.3v0.7H452c-0.3,0-0.5-0.1-0.6-0.2s-0.2-0.4-0.2-0.7v-4h0.7V143.7z
		"/>
	<path d="M455.1,141.1h0.7v3.5h-0.7V141.1z M457.2,142.5c0-0.2-0.1-0.4-0.2-0.6s-0.3-0.2-0.5-0.2c-0.2,0-0.4,0.1-0.5,0.2
		c-0.1,0.1-0.2,0.3-0.2,0.5l-0.1-0.7c0.1-0.2,0.3-0.4,0.4-0.5c0.2-0.1,0.4-0.2,0.6-0.2c0.2,0,0.5,0.1,0.6,0.2
		c0.2,0.1,0.3,0.3,0.4,0.5c0.1,0.2,0.1,0.5,0.1,0.8v2.2h-0.7V142.5z M459.4,142.5c0-0.2-0.1-0.4-0.2-0.6s-0.3-0.2-0.5-0.2
		c-0.2,0-0.4,0.1-0.5,0.2c-0.1,0.1-0.2,0.3-0.2,0.6l-0.1-0.7c0.1-0.2,0.3-0.4,0.4-0.5s0.4-0.2,0.6-0.2c0.3,0,0.5,0.1,0.7,0.2
		c0.2,0.1,0.3,0.3,0.4,0.5c0.1,0.2,0.1,0.5,0.1,0.8v2.2h-0.7V142.5z"/>
	<path d="M461.3,144.4c-0.2-0.2-0.3-0.5-0.3-0.8c0-0.4,0.1-0.6,0.3-0.8c0.2-0.2,0.5-0.3,0.9-0.3h1l0,0.6h-1.1c-0.2,0-0.3,0-0.4,0.1
		c-0.1,0.1-0.1,0.2-0.1,0.4c0,0.2,0.1,0.3,0.2,0.4c0.1,0.1,0.3,0.1,0.5,0.1c0.3,0,0.5,0,0.6-0.1c0.1-0.1,0.2-0.1,0.2-0.3l0.1,0.5
		c-0.1,0.1-0.1,0.2-0.2,0.2c-0.1,0.1-0.2,0.1-0.3,0.1c-0.1,0-0.3,0-0.4,0C461.8,144.7,461.5,144.6,461.3,144.4z M463.1,142.4
		c0-0.2-0.1-0.4-0.2-0.5c-0.1-0.1-0.3-0.2-0.5-0.2c-0.1,0-0.3,0-0.4,0.1c-0.1,0-0.3,0.1-0.4,0.2l-0.5-0.3c0.1-0.2,0.3-0.3,0.5-0.4
		c0.2-0.1,0.5-0.1,0.7-0.1c0.3,0,0.5,0.1,0.8,0.2c0.2,0.1,0.4,0.3,0.5,0.5s0.2,0.4,0.2,0.7v2.3h-0.7V142.4z"/>
	<path d="M464.6,141.1h1.6v0.6h-1.6V141.1z M465.1,144.4c-0.1-0.2-0.2-0.4-0.2-0.7V140h0.7v3.7c0,0.1,0,0.2,0.1,0.2
		c0,0,0.1,0.1,0.2,0.1h0.3v0.7h-0.4C465.5,144.6,465.3,144.6,465.1,144.4z"/>
	<path d="M467.7,144.5c-0.2-0.1-0.4-0.3-0.5-0.5s-0.2-0.5-0.2-0.8v-0.6c0-0.3,0.1-0.6,0.2-0.8s0.3-0.4,0.5-0.5
		c0.2-0.1,0.5-0.2,0.8-0.2c0.2,0,0.4,0,0.5,0.1c0.2,0,0.3,0.1,0.4,0.2c0.1,0.1,0.2,0.2,0.3,0.3l-0.5,0.5c-0.1-0.1-0.2-0.2-0.4-0.3
		s-0.3-0.1-0.4-0.1c-0.3,0-0.5,0.1-0.6,0.2s-0.2,0.4-0.2,0.6v0.6c0,0.3,0.1,0.5,0.2,0.6c0.1,0.2,0.4,0.2,0.6,0.2
		c0.1,0,0.3,0,0.4-0.1c0.1-0.1,0.2-0.2,0.3-0.3l0.5,0.5c-0.1,0.1-0.2,0.2-0.3,0.3c-0.1,0.1-0.3,0.1-0.4,0.2c-0.2,0-0.3,0.1-0.5,0.1
		C468.2,144.7,468,144.6,467.7,144.5z"/>
	<path d="M470.6,139.6h0.7v5h-0.7V139.6z M472.8,142.5c0-0.2-0.1-0.4-0.2-0.6s-0.3-0.2-0.5-0.2c-0.2,0-0.4,0.1-0.5,0.2
		c-0.1,0.1-0.2,0.3-0.2,0.5l-0.1-0.7c0.1-0.2,0.3-0.4,0.4-0.5c0.2-0.1,0.4-0.2,0.6-0.2c0.4,0,0.7,0.1,0.9,0.4
		c0.2,0.3,0.3,0.6,0.3,1.1v2.2h-0.7V142.5z"/>
</g>
<g>
	<path d="M114.6,157.4c-0.3-0.2-0.5-0.4-0.6-0.6c-0.1-0.3-0.2-0.6-0.2-1v-1.4c0-0.4,0.1-0.7,0.2-1c0.1-0.3,0.3-0.5,0.6-0.7
		c0.3-0.2,0.6-0.2,0.9-0.2c0.3,0,0.5,0.1,0.8,0.2c0.2,0.1,0.4,0.3,0.6,0.5c0.2,0.2,0.3,0.5,0.3,0.8h-0.7c0-0.2-0.1-0.3-0.2-0.4
		c-0.1-0.1-0.2-0.2-0.4-0.3c-0.1-0.1-0.3-0.1-0.4-0.1c-0.2,0-0.4,0-0.5,0.1c-0.2,0.1-0.3,0.2-0.4,0.4s-0.1,0.4-0.1,0.6v1.4
		c0,0.2,0,0.4,0.1,0.6s0.2,0.3,0.4,0.4s0.3,0.1,0.5,0.1c0.1,0,0.3,0,0.4-0.1c0.1-0.1,0.3-0.2,0.4-0.3c0.1-0.1,0.2-0.3,0.2-0.4h0.7
		c-0.1,0.3-0.2,0.6-0.3,0.8c-0.2,0.2-0.4,0.4-0.6,0.5c-0.2,0.1-0.5,0.2-0.8,0.2C115.2,157.7,114.9,157.6,114.6,157.4z"/>
	<path d="M118.2,154.1h0.7v3.5h-0.7V154.1z M119.9,154.7c-0.1,0-0.2-0.1-0.3-0.1c-0.2,0-0.4,0.1-0.5,0.2c-0.1,0.1-0.2,0.3-0.2,0.5
		l-0.1-0.7c0.1-0.2,0.2-0.4,0.4-0.5c0.2-0.1,0.4-0.2,0.6-0.2c0.2,0,0.3,0,0.4,0.1s0.2,0.1,0.3,0.2l-0.5,0.6
		C120,154.8,120,154.8,119.9,154.7z"/>
	<path d="M121.7,157.5c-0.2-0.1-0.4-0.3-0.5-0.5c-0.1-0.2-0.2-0.5-0.2-0.9v-0.4c0-0.4,0.1-0.7,0.2-0.9s0.3-0.4,0.5-0.6
		s0.5-0.2,0.8-0.2c0.3,0,0.5,0.1,0.8,0.2s0.4,0.4,0.5,0.6c0.1,0.3,0.2,0.6,0.2,1v0.2h-2.4v-0.6h1.7c0-0.3-0.1-0.5-0.2-0.7
		c-0.1-0.2-0.3-0.2-0.5-0.2c-0.3,0-0.5,0.1-0.6,0.3c-0.1,0.2-0.2,0.4-0.2,0.7v0.5c0,0.3,0.1,0.5,0.2,0.7c0.2,0.2,0.4,0.2,0.7,0.2
		c0.1,0,0.3,0,0.4-0.1c0.1-0.1,0.3-0.1,0.4-0.2l0.5,0.5c-0.2,0.2-0.4,0.3-0.6,0.4c-0.2,0.1-0.4,0.1-0.7,0.1
		C122.2,157.7,121.9,157.6,121.7,157.5z"/>
	<path d="M125,157.4c-0.2-0.2-0.3-0.5-0.3-0.8c0-0.4,0.1-0.6,0.3-0.8c0.2-0.2,0.5-0.3,0.9-0.3h1l0,0.6h-1.1c-0.2,0-0.3,0-0.4,0.1
		c-0.1,0.1-0.1,0.2-0.1,0.4c0,0.2,0.1,0.3,0.2,0.4c0.1,0.1,0.3,0.1,0.5,0.1c0.3,0,0.5,0,0.6-0.1c0.1-0.1,0.2-0.1,0.2-0.3l0.1,0.5
		c-0.1,0.1-0.1,0.2-0.2,0.2c-0.1,0.1-0.2,0.1-0.3,0.1c-0.1,0-0.3,0-0.4,0C125.5,157.7,125.2,157.6,125,157.4z M126.8,155.4
		c0-0.2-0.1-0.4-0.2-0.5c-0.1-0.1-0.3-0.2-0.5-0.2c-0.1,0-0.3,0-0.4,0.1c-0.1,0-0.3,0.1-0.4,0.2l-0.5-0.3c0.1-0.2,0.3-0.3,0.5-0.4
		c0.2-0.1,0.5-0.1,0.7-0.1c0.3,0,0.5,0.1,0.8,0.2c0.2,0.1,0.4,0.3,0.5,0.5s0.2,0.4,0.2,0.7v2.3h-0.7V155.4z"/>
	<path d="M128.3,154.1h1.6v0.6h-1.6V154.1z M128.8,157.4c-0.1-0.2-0.2-0.4-0.2-0.7V153h0.7v3.7c0,0.1,0,0.2,0.1,0.2
		c0,0,0.1,0.1,0.2,0.1h0.3v0.7h-0.4C129.2,157.6,129,157.6,128.8,157.4z"/>
	<path d="M131.4,157.5c-0.2-0.1-0.4-0.3-0.5-0.5c-0.1-0.2-0.2-0.5-0.2-0.9v-0.4c0-0.4,0.1-0.7,0.2-0.9s0.3-0.4,0.5-0.6
		s0.5-0.2,0.8-0.2c0.3,0,0.5,0.1,0.8,0.2s0.4,0.4,0.5,0.6c0.1,0.3,0.2,0.6,0.2,1v0.2h-2.4v-0.6h1.7c0-0.3-0.1-0.5-0.2-0.7
		c-0.1-0.2-0.3-0.2-0.5-0.2c-0.3,0-0.5,0.1-0.6,0.3c-0.1,0.2-0.2,0.4-0.2,0.7v0.5c0,0.3,0.1,0.5,0.2,0.7c0.2,0.2,0.4,0.2,0.7,0.2
		c0.1,0,0.3,0,0.4-0.1c0.1-0.1,0.3-0.1,0.4-0.2l0.5,0.5c-0.2,0.2-0.4,0.3-0.6,0.4c-0.2,0.1-0.4,0.1-0.7,0.1
		C132,157.7,131.7,157.6,131.4,157.5z"/>
	<path d="M136.6,157.4c-0.2-0.2-0.3-0.5-0.3-0.8c0-0.4,0.1-0.6,0.3-0.8c0.2-0.2,0.5-0.3,0.9-0.3h1l0,0.6h-1.1c-0.2,0-0.3,0-0.4,0.1
		s-0.1,0.2-0.1,0.4c0,0.2,0.1,0.3,0.2,0.4c0.1,0.1,0.3,0.1,0.5,0.1c0.3,0,0.5,0,0.6-0.1s0.2-0.1,0.2-0.3l0.1,0.5
		c-0.1,0.1-0.1,0.2-0.2,0.2c-0.1,0.1-0.2,0.1-0.3,0.1c-0.1,0-0.3,0-0.4,0C137.2,157.7,136.8,157.6,136.6,157.4z M138.5,155.4
		c0-0.2-0.1-0.4-0.2-0.5c-0.1-0.1-0.3-0.2-0.5-0.2c-0.1,0-0.3,0-0.4,0.1c-0.1,0-0.3,0.1-0.4,0.2l-0.5-0.3c0.1-0.2,0.3-0.3,0.5-0.4
		c0.2-0.1,0.5-0.1,0.7-0.1c0.3,0,0.5,0.1,0.8,0.2c0.2,0.1,0.4,0.3,0.5,0.5s0.2,0.4,0.2,0.7v2.3h-0.7V155.4z"/>
	<path d="M142.1,154.1h0.7v3.5h-0.7V154.1z M144.2,155.5c0-0.2-0.1-0.4-0.2-0.6s-0.3-0.2-0.5-0.2c-0.2,0-0.4,0.1-0.5,0.2
		c-0.1,0.1-0.2,0.3-0.2,0.5l-0.1-0.7c0.1-0.2,0.3-0.4,0.4-0.5c0.2-0.1,0.4-0.2,0.6-0.2c0.4,0,0.7,0.1,0.9,0.4
		c0.2,0.3,0.3,0.6,0.3,1.1v2.2h-0.7V155.5z"/>
	<path d="M146.6,157.5c-0.2-0.1-0.4-0.3-0.5-0.5c-0.1-0.2-0.2-0.5-0.2-0.9v-0.4c0-0.4,0.1-0.7,0.2-0.9s0.3-0.4,0.5-0.6
		s0.5-0.2,0.8-0.2c0.3,0,0.5,0.1,0.8,0.2s0.4,0.4,0.5,0.6c0.1,0.3,0.2,0.6,0.2,1v0.2h-2.4v-0.6h1.7c0-0.3-0.1-0.5-0.2-0.7
		c-0.1-0.2-0.3-0.2-0.5-0.2c-0.3,0-0.5,0.1-0.6,0.3c-0.1,0.2-0.2,0.4-0.2,0.7v0.5c0,0.3,0.1,0.5,0.2,0.7c0.2,0.2,0.4,0.2,0.7,0.2
		c0.1,0,0.3,0,0.4-0.1c0.1-0.1,0.3-0.1,0.4-0.2l0.5,0.5c-0.2,0.2-0.4,0.3-0.6,0.4c-0.2,0.1-0.4,0.1-0.7,0.1
		C147.1,157.7,146.8,157.6,146.6,157.5z"/>
	<path d="M149.3,154.1h0.7l0.6,2.5l0.9-2.5h0.5l0.9,2.5l0.6-2.5h0.7l-1.1,3.5h-0.5l-0.9-2.5l-0.9,2.5h-0.5L149.3,154.1z"/>
	<path d="M156.3,152.6h3.5v0.7h-3.5V152.6z M157.7,153.1h0.7v4.6h-0.7V153.1z"/>
	<path d="M160.1,157.4c-0.2-0.2-0.3-0.5-0.3-0.8c0-0.4,0.1-0.6,0.3-0.8c0.2-0.2,0.5-0.3,0.9-0.3h1l0,0.6H161c-0.2,0-0.3,0-0.4,0.1
		c-0.1,0.1-0.1,0.2-0.1,0.4c0,0.2,0.1,0.3,0.2,0.4c0.1,0.1,0.3,0.1,0.5,0.1c0.3,0,0.5,0,0.6-0.1c0.1-0.1,0.2-0.1,0.2-0.3l0.1,0.5
		c-0.1,0.1-0.1,0.2-0.2,0.2c-0.1,0.1-0.2,0.1-0.3,0.1c-0.1,0-0.3,0-0.4,0C160.7,157.7,160.4,157.6,160.1,157.4z M162,155.4
		c0-0.2-0.1-0.4-0.2-0.5c-0.1-0.1-0.3-0.2-0.5-0.2c-0.1,0-0.3,0-0.4,0.1c-0.1,0-0.3,0.1-0.4,0.2l-0.5-0.3c0.1-0.2,0.3-0.3,0.5-0.4
		c0.2-0.1,0.5-0.1,0.7-0.1c0.3,0,0.5,0.1,0.8,0.2c0.2,0.1,0.4,0.3,0.5,0.5s0.2,0.4,0.2,0.7v2.3H162V155.4z"/>
	<path d="M164.4,157.6c-0.2,0-0.4-0.1-0.5-0.2c-0.2-0.1-0.3-0.2-0.4-0.3l0.4-0.5c0.2,0.1,0.4,0.3,0.6,0.3s0.4,0.1,0.6,0.1
		c0.3,0,0.5,0,0.6-0.1c0.1-0.1,0.2-0.2,0.2-0.4c0-0.1,0-0.2-0.1-0.3c-0.1-0.1-0.2-0.1-0.3-0.1c-0.1,0-0.3,0-0.5-0.1c0,0,0,0-0.1,0
		s0,0-0.1,0c0,0,0,0,0,0c0,0,0,0,0,0c-0.2,0-0.4-0.1-0.6-0.1c-0.2,0-0.3-0.1-0.4-0.3c-0.1-0.1-0.2-0.3-0.2-0.6s0.1-0.5,0.2-0.6
		c0.1-0.2,0.3-0.3,0.5-0.4c0.2-0.1,0.5-0.1,0.8-0.1c0.2,0,0.4,0,0.5,0.1s0.3,0.1,0.5,0.2s0.3,0.2,0.4,0.3L166,155
		c-0.2-0.1-0.4-0.2-0.5-0.3c-0.2-0.1-0.3-0.1-0.5-0.1c-0.2,0-0.4,0-0.5,0.1c-0.1,0.1-0.2,0.2-0.2,0.4c0,0.1,0,0.2,0.1,0.2
		c0.1,0,0.2,0.1,0.3,0.1c0.1,0,0.2,0,0.4,0c0,0,0,0,0,0c0,0,0,0,0,0c0,0,0,0,0,0c0,0,0,0,0,0c0.2,0,0.5,0,0.6,0.1
		c0.2,0.1,0.3,0.2,0.4,0.3c0.1,0.1,0.2,0.4,0.2,0.6c0,0.3-0.1,0.5-0.2,0.6c-0.1,0.2-0.3,0.3-0.5,0.4c-0.2,0.1-0.5,0.1-0.8,0.1
		C164.8,157.7,164.6,157.6,164.4,157.6z"/>
	<path d="M167.3,152.6h0.7v5h-0.7V152.6z M167.6,156.3l1.8-2.2h0.8l-2.7,3L167.6,156.3z M168.5,155.6l0.4-0.5l1.5,2.5h-0.8
		L168.5,155.6z"/>
</g>
<g>
	<path d="M113.6,175.4c-0.3-0.2-0.5-0.4-0.6-0.6c-0.1-0.3-0.2-0.6-0.2-1v-1.4c0-0.4,0.1-0.7,0.2-1c0.1-0.3,0.3-0.5,0.6-0.7
		c0.3-0.2,0.6-0.2,0.9-0.2c0.3,0,0.5,0.1,0.8,0.2c0.2,0.1,0.4,0.3,0.6,0.5c0.2,0.2,0.3,0.5,0.3,0.8h-0.7c0-0.2-0.1-0.3-0.2-0.4
		c-0.1-0.1-0.2-0.2-0.4-0.3c-0.1-0.1-0.3-0.1-0.4-0.1c-0.2,0-0.4,0-0.5,0.1c-0.2,0.1-0.3,0.2-0.4,0.4s-0.1,0.4-0.1,0.6v1.4
		c0,0.2,0,0.4,0.1,0.6s0.2,0.3,0.4,0.4s0.3,0.1,0.5,0.1c0.1,0,0.3,0,0.4-0.1c0.1-0.1,0.3-0.2,0.4-0.3c0.1-0.1,0.2-0.3,0.2-0.4h0.7
		c-0.1,0.3-0.2,0.6-0.3,0.8c-0.2,0.2-0.4,0.4-0.6,0.5c-0.2,0.1-0.5,0.2-0.8,0.2C114.2,175.7,113.9,175.6,113.6,175.4z"/>
	<path d="M117.7,175.5c-0.2-0.1-0.4-0.3-0.5-0.5c-0.1-0.2-0.2-0.5-0.2-0.8v-0.6c0-0.3,0.1-0.6,0.2-0.8c0.1-0.2,0.3-0.4,0.5-0.5
		c0.2-0.1,0.5-0.2,0.8-0.2c0.3,0,0.6,0.1,0.8,0.2c0.2,0.1,0.4,0.3,0.5,0.5c0.1,0.2,0.2,0.5,0.2,0.8v0.6c0,0.3-0.1,0.6-0.2,0.8
		c-0.1,0.2-0.3,0.4-0.5,0.5s-0.5,0.2-0.8,0.2C118.2,175.7,117.9,175.6,117.7,175.5z M119.1,174.8c0.1-0.2,0.2-0.4,0.2-0.6v-0.6
		c0-0.3-0.1-0.5-0.2-0.6s-0.3-0.2-0.6-0.2c-0.2,0-0.4,0.1-0.6,0.2c-0.1,0.2-0.2,0.4-0.2,0.6v0.6c0,0.3,0.1,0.5,0.2,0.6
		c0.1,0.2,0.3,0.2,0.6,0.2C118.8,175,118.9,174.9,119.1,174.8z"/>
	<path d="M121.4,175.5c-0.2-0.1-0.3-0.3-0.4-0.5s-0.1-0.5-0.1-0.8v-0.8c0-0.3,0-0.6,0.1-0.8s0.2-0.4,0.4-0.5
		c0.2-0.1,0.4-0.2,0.6-0.2c0.2,0,0.4,0.1,0.6,0.2s0.3,0.3,0.4,0.5l-0.1,0.7c0-0.2,0-0.3-0.1-0.4s-0.1-0.2-0.2-0.2
		c-0.1-0.1-0.2-0.1-0.4-0.1c-0.2,0-0.4,0.1-0.5,0.2c-0.1,0.1-0.2,0.3-0.2,0.6v0.8c0,0.3,0.1,0.5,0.2,0.6c0.1,0.1,0.3,0.2,0.5,0.2
		c0.1,0,0.3,0,0.4-0.1c0.1-0.1,0.2-0.1,0.2-0.3s0.1-0.2,0.1-0.4l0,0.7c-0.1,0.2-0.2,0.3-0.3,0.4s-0.4,0.2-0.6,0.2
		C121.8,175.7,121.6,175.6,121.4,175.5z M123,170.6h0.7v5H123V170.6z"/>
	<path d="M125.4,175.5c-0.2-0.1-0.4-0.3-0.5-0.5c-0.1-0.2-0.2-0.5-0.2-0.9v-0.4c0-0.4,0.1-0.7,0.2-0.9c0.1-0.2,0.3-0.4,0.5-0.6
		s0.5-0.2,0.8-0.2c0.3,0,0.5,0.1,0.8,0.2s0.4,0.4,0.5,0.6c0.1,0.3,0.2,0.6,0.2,1v0.2h-2.4v-0.6h1.7c0-0.3-0.1-0.5-0.2-0.7
		c-0.1-0.2-0.3-0.2-0.5-0.2c-0.3,0-0.5,0.1-0.6,0.3c-0.1,0.2-0.2,0.4-0.2,0.7v0.5c0,0.3,0.1,0.5,0.2,0.7c0.2,0.2,0.4,0.2,0.7,0.2
		c0.1,0,0.3,0,0.4-0.1c0.1-0.1,0.3-0.1,0.4-0.2l0.5,0.5c-0.2,0.2-0.4,0.3-0.6,0.4c-0.2,0.1-0.4,0.1-0.7,0.1
		C125.9,175.7,125.6,175.6,125.4,175.5z"/>
	<path d="M130.5,175.4c-0.2-0.2-0.3-0.5-0.3-0.8c0-0.4,0.1-0.6,0.3-0.8c0.2-0.2,0.5-0.3,0.9-0.3h1l0,0.6h-1.1c-0.2,0-0.3,0-0.4,0.1
		c-0.1,0.1-0.1,0.2-0.1,0.4c0,0.2,0.1,0.3,0.2,0.4c0.1,0.1,0.3,0.1,0.5,0.1c0.3,0,0.5,0,0.6-0.1c0.1-0.1,0.2-0.1,0.2-0.3l0.1,0.5
		c-0.1,0.1-0.1,0.2-0.2,0.2c-0.1,0.1-0.2,0.1-0.3,0.1c-0.1,0-0.3,0-0.4,0C131.1,175.7,130.7,175.6,130.5,175.4z M132.4,173.4
		c0-0.2-0.1-0.4-0.2-0.5c-0.1-0.1-0.3-0.2-0.5-0.2c-0.1,0-0.3,0-0.4,0.1c-0.1,0-0.3,0.1-0.4,0.2l-0.5-0.3c0.1-0.2,0.3-0.3,0.5-0.4
		c0.2-0.1,0.5-0.1,0.7-0.1c0.3,0,0.5,0.1,0.8,0.2c0.2,0.1,0.4,0.3,0.5,0.5s0.2,0.4,0.2,0.7v2.3h-0.7V173.4z"/>
	<path d="M136,172.1h0.7v3.5H136V172.1z M138.1,173.5c0-0.2-0.1-0.4-0.2-0.6s-0.3-0.2-0.5-0.2c-0.2,0-0.4,0.1-0.5,0.2
		c-0.1,0.1-0.2,0.3-0.2,0.5l-0.1-0.7c0.1-0.2,0.3-0.4,0.4-0.5c0.2-0.1,0.4-0.2,0.6-0.2c0.4,0,0.7,0.1,0.9,0.4
		c0.2,0.3,0.3,0.6,0.3,1.1v2.2h-0.7V173.5z"/>
	<path d="M140.5,175.5c-0.2-0.1-0.4-0.3-0.5-0.5c-0.1-0.2-0.2-0.5-0.2-0.9v-0.4c0-0.4,0.1-0.7,0.2-0.9c0.1-0.2,0.3-0.4,0.5-0.6
		s0.5-0.2,0.8-0.2c0.3,0,0.5,0.1,0.8,0.2s0.4,0.4,0.5,0.6c0.1,0.3,0.2,0.6,0.2,1v0.2h-2.4v-0.6h1.7c0-0.3-0.1-0.5-0.2-0.7
		c-0.1-0.2-0.3-0.2-0.5-0.2c-0.3,0-0.5,0.1-0.6,0.3c-0.1,0.2-0.2,0.4-0.2,0.7v0.5c0,0.3,0.1,0.5,0.2,0.7c0.2,0.2,0.4,0.2,0.7,0.2
		c0.1,0,0.3,0,0.4-0.1c0.1-0.1,0.3-0.1,0.4-0.2l0.5,0.5c-0.2,0.2-0.4,0.3-0.6,0.4c-0.2,0.1-0.4,0.1-0.7,0.1
		C141,175.7,140.7,175.6,140.5,175.5z"/>
	<path d="M143.2,172.1h0.7l0.6,2.5l0.9-2.5h0.5l0.9,2.5l0.6-2.5h0.7l-1.1,3.5h-0.5l-0.9-2.5l-0.9,2.5h-0.5L143.2,172.1z"/>
	<path d="M150.8,172.1h0.7v5h-0.7V172.1z M151.8,175.5c-0.2-0.1-0.3-0.3-0.4-0.4l0-0.7c0,0.2,0,0.3,0.1,0.4s0.1,0.2,0.2,0.2
		c0.1,0.1,0.2,0.1,0.4,0.1c0.2,0,0.4-0.1,0.5-0.2c0.1-0.1,0.2-0.3,0.2-0.6v-0.8c0-0.3-0.1-0.5-0.2-0.6c-0.1-0.1-0.3-0.2-0.5-0.2
		c-0.1,0-0.3,0-0.4,0.1c-0.1,0.1-0.2,0.1-0.2,0.2c-0.1,0.1-0.1,0.2-0.1,0.4l-0.1-0.7c0.1-0.2,0.2-0.4,0.4-0.5
		c0.2-0.1,0.4-0.2,0.6-0.2c0.2,0,0.5,0.1,0.6,0.2c0.2,0.1,0.3,0.3,0.4,0.5c0.1,0.2,0.1,0.5,0.1,0.8v0.8c0,0.3,0,0.6-0.1,0.8
		s-0.2,0.4-0.4,0.5c-0.2,0.1-0.4,0.2-0.7,0.2C152.2,175.7,152,175.6,151.8,175.5z"/>
	<path d="M154.6,172.1h0.7v3.5h-0.7V172.1z M156.3,172.7c-0.1,0-0.2-0.1-0.3-0.1c-0.2,0-0.4,0.1-0.5,0.2c-0.1,0.1-0.2,0.3-0.2,0.5
		l-0.1-0.7c0.1-0.2,0.3-0.4,0.4-0.5c0.2-0.1,0.4-0.2,0.6-0.2c0.2,0,0.3,0,0.4,0.1c0.1,0,0.2,0.1,0.3,0.2l-0.5,0.6
		C156.5,172.8,156.4,172.8,156.3,172.7z"/>
	<path d="M158.1,175.5c-0.2-0.1-0.4-0.3-0.5-0.5c-0.1-0.2-0.2-0.5-0.2-0.8v-0.6c0-0.3,0.1-0.6,0.2-0.8c0.1-0.2,0.3-0.4,0.5-0.5
		c0.2-0.1,0.5-0.2,0.8-0.2c0.3,0,0.6,0.1,0.8,0.2c0.2,0.1,0.4,0.3,0.5,0.5c0.1,0.2,0.2,0.5,0.2,0.8v0.6c0,0.3-0.1,0.6-0.2,0.8
		c-0.1,0.2-0.3,0.4-0.5,0.5s-0.5,0.2-0.8,0.2C158.6,175.7,158.3,175.6,158.1,175.5z M159.5,174.8c0.1-0.2,0.2-0.4,0.2-0.6v-0.6
		c0-0.3-0.1-0.5-0.2-0.6s-0.3-0.2-0.6-0.2c-0.2,0-0.4,0.1-0.6,0.2c-0.1,0.2-0.2,0.4-0.2,0.6v0.6c0,0.3,0.1,0.5,0.2,0.6
		c0.1,0.2,0.3,0.2,0.6,0.2C159.1,175,159.3,174.9,159.5,174.8z"/>
	<path d="M161.8,175.5c-0.2-0.1-0.3-0.3-0.4-0.5s-0.1-0.5-0.1-0.8v-0.8c0-0.3,0-0.6,0.1-0.8s0.2-0.4,0.4-0.5
		c0.2-0.1,0.4-0.2,0.6-0.2c0.2,0,0.4,0.1,0.6,0.2s0.3,0.3,0.4,0.5l-0.1,0.7c0-0.2,0-0.3-0.1-0.4s-0.1-0.2-0.2-0.2
		c-0.1-0.1-0.2-0.1-0.4-0.1c-0.2,0-0.4,0.1-0.5,0.2c-0.1,0.1-0.2,0.3-0.2,0.6v0.8c0,0.3,0.1,0.5,0.2,0.6c0.1,0.1,0.3,0.2,0.5,0.2
		c0.1,0,0.3,0,0.4-0.1c0.1-0.1,0.2-0.1,0.2-0.3s0.1-0.2,0.1-0.4l0,0.7c-0.1,0.2-0.2,0.3-0.3,0.4s-0.4,0.2-0.6,0.2
		C162.2,175.7,162,175.6,161.8,175.5z M161.8,176.9c-0.2-0.1-0.4-0.2-0.5-0.4l0.5-0.4c0.1,0.1,0.2,0.2,0.3,0.3
		c0.1,0.1,0.3,0.1,0.4,0.1c0.3,0,0.5-0.1,0.6-0.2c0.1-0.1,0.2-0.4,0.2-0.6v-3.5h0.7v3.4c0,0.3-0.1,0.6-0.2,0.8
		c-0.1,0.2-0.3,0.4-0.5,0.5c-0.2,0.1-0.5,0.2-0.8,0.2C162.3,177.1,162,177,161.8,176.9z"/>
	<path d="M165.3,175.4c-0.2-0.2-0.3-0.5-0.3-0.8c0-0.4,0.1-0.6,0.3-0.8c0.2-0.2,0.5-0.3,0.9-0.3h1l0,0.6h-1.1c-0.2,0-0.3,0-0.4,0.1
		c-0.1,0.1-0.1,0.2-0.1,0.4c0,0.2,0.1,0.3,0.2,0.4c0.1,0.1,0.3,0.1,0.5,0.1c0.3,0,0.5,0,0.6-0.1c0.1-0.1,0.2-0.1,0.2-0.3l0.1,0.5
		c-0.1,0.1-0.1,0.2-0.2,0.2c-0.1,0.1-0.2,0.1-0.3,0.1c-0.1,0-0.3,0-0.4,0C165.8,175.7,165.5,175.6,165.3,175.4z M167.1,173.4
		c0-0.2-0.1-0.4-0.2-0.5c-0.1-0.1-0.3-0.2-0.5-0.2c-0.1,0-0.3,0-0.4,0.1c-0.1,0-0.3,0.1-0.4,0.2l-0.5-0.3c0.1-0.2,0.3-0.3,0.5-0.4
		c0.2-0.1,0.5-0.1,0.7-0.1c0.3,0,0.5,0.1,0.8,0.2c0.2,0.1,0.4,0.3,0.5,0.5s0.2,0.4,0.2,0.7v2.3h-0.7V173.4z"/>
	<path d="M168.8,172.1h0.7v3.5h-0.7V172.1z M171,173.5c0-0.2-0.1-0.4-0.2-0.6s-0.3-0.2-0.5-0.2c-0.2,0-0.4,0.1-0.5,0.2
		c-0.1,0.1-0.2,0.3-0.2,0.5l-0.1-0.7c0.1-0.2,0.3-0.4,0.4-0.5c0.2-0.1,0.4-0.2,0.6-0.2c0.2,0,0.5,0.1,0.6,0.2
		c0.2,0.1,0.3,0.3,0.4,0.5c0.1,0.2,0.1,0.5,0.1,0.8v2.2H171V173.5z M173.1,173.5c0-0.2-0.1-0.4-0.2-0.6s-0.3-0.2-0.5-0.2
		c-0.2,0-0.4,0.1-0.5,0.2c-0.1,0.1-0.2,0.3-0.2,0.6l-0.1-0.7c0.1-0.2,0.3-0.4,0.4-0.5s0.4-0.2,0.6-0.2c0.3,0,0.5,0.1,0.7,0.2
		c0.2,0.1,0.3,0.3,0.4,0.5c0.1,0.2,0.1,0.5,0.1,0.8v2.2h-0.7V173.5z"/>
</g>
<g>
	<path d="M112.9,192.6h0.7v5h-0.7V192.6z M113.3,194.8h2.8v0.7h-2.8V194.8z M115.7,192.6h0.7v5h-0.7V192.6z"/>
	<path d="M117.7,197.4c-0.2-0.2-0.3-0.5-0.3-0.8c0-0.4,0.1-0.6,0.3-0.8c0.2-0.2,0.5-0.3,0.9-0.3h1l0,0.6h-1.1c-0.2,0-0.3,0-0.4,0.1
		c-0.1,0.1-0.1,0.2-0.1,0.4c0,0.2,0.1,0.3,0.2,0.4c0.1,0.1,0.3,0.1,0.5,0.1c0.3,0,0.5,0,0.6-0.1s0.2-0.1,0.2-0.3l0.1,0.5
		c-0.1,0.1-0.1,0.2-0.2,0.2c-0.1,0.1-0.2,0.1-0.3,0.1c-0.1,0-0.3,0-0.4,0C118.3,197.7,117.9,197.6,117.7,197.4z M119.6,195.4
		c0-0.2-0.1-0.4-0.2-0.5c-0.1-0.1-0.3-0.2-0.5-0.2c-0.1,0-0.3,0-0.4,0.1c-0.1,0-0.3,0.1-0.4,0.2l-0.5-0.3c0.1-0.2,0.3-0.3,0.5-0.4
		c0.2-0.1,0.5-0.1,0.7-0.1c0.3,0,0.5,0.1,0.8,0.2s0.4,0.3,0.5,0.5s0.2,0.4,0.2,0.7v2.3h-0.7V195.4z"/>
	<path d="M121.3,194.1h0.7v3.5h-0.7V194.1z M123.5,195.5c0-0.2-0.1-0.4-0.2-0.6c-0.1-0.1-0.3-0.2-0.5-0.2c-0.2,0-0.4,0.1-0.5,0.2
		c-0.1,0.1-0.2,0.3-0.2,0.5l-0.1-0.7c0.1-0.2,0.3-0.4,0.4-0.5s0.4-0.2,0.6-0.2c0.4,0,0.7,0.1,0.9,0.4c0.2,0.3,0.3,0.6,0.3,1.1v2.2
		h-0.7V195.5z"/>
	<path d="M125.7,197.5c-0.2-0.1-0.3-0.3-0.4-0.5s-0.1-0.5-0.1-0.8v-0.8c0-0.3,0-0.6,0.1-0.8c0.1-0.2,0.2-0.4,0.4-0.5
		c0.2-0.1,0.4-0.2,0.6-0.2c0.2,0,0.4,0.1,0.6,0.2c0.2,0.1,0.3,0.3,0.4,0.5l-0.1,0.7c0-0.2,0-0.3-0.1-0.4s-0.1-0.2-0.2-0.2
		c-0.1-0.1-0.2-0.1-0.4-0.1c-0.2,0-0.4,0.1-0.5,0.2c-0.1,0.1-0.2,0.3-0.2,0.6v0.8c0,0.3,0.1,0.5,0.2,0.6c0.1,0.1,0.3,0.2,0.5,0.2
		c0.1,0,0.3,0,0.4-0.1c0.1-0.1,0.2-0.1,0.2-0.3s0.1-0.2,0.1-0.4l0,0.7c-0.1,0.2-0.2,0.3-0.3,0.4c-0.2,0.1-0.4,0.2-0.6,0.2
		C126.1,197.7,125.9,197.6,125.7,197.5z M125.7,198.9c-0.2-0.1-0.4-0.2-0.5-0.4l0.5-0.4c0.1,0.1,0.2,0.2,0.3,0.3
		c0.1,0.1,0.3,0.1,0.4,0.1c0.3,0,0.5-0.1,0.6-0.2c0.1-0.1,0.2-0.4,0.2-0.6v-3.5h0.7v3.4c0,0.3-0.1,0.6-0.2,0.8
		c-0.1,0.2-0.3,0.4-0.5,0.5c-0.2,0.1-0.5,0.2-0.8,0.2C126.1,199.1,125.9,199,125.7,198.9z"/>
	<path d="M131.4,197.5c-0.2-0.1-0.4-0.3-0.5-0.5c-0.1-0.2-0.2-0.5-0.2-0.8v-0.6c0-0.3,0.1-0.6,0.2-0.8c0.1-0.2,0.3-0.4,0.5-0.5
		c0.2-0.1,0.5-0.2,0.8-0.2s0.6,0.1,0.8,0.2c0.2,0.1,0.4,0.3,0.5,0.5c0.1,0.2,0.2,0.5,0.2,0.8v0.6c0,0.3-0.1,0.6-0.2,0.8
		c-0.1,0.2-0.3,0.4-0.5,0.5s-0.5,0.2-0.8,0.2S131.7,197.6,131.4,197.5z M132.8,196.8c0.1-0.2,0.2-0.4,0.2-0.6v-0.6
		c0-0.3-0.1-0.5-0.2-0.6c-0.1-0.2-0.3-0.2-0.6-0.2s-0.4,0.1-0.6,0.2c-0.1,0.2-0.2,0.4-0.2,0.6v0.6c0,0.3,0.1,0.5,0.2,0.6
		c0.1,0.2,0.3,0.2,0.6,0.2S132.7,196.9,132.8,196.8z"/>
	<path d="M135.3,196.2c0,0.2,0.1,0.4,0.2,0.6c0.1,0.1,0.3,0.2,0.5,0.2c0.2,0,0.4-0.1,0.5-0.2s0.2-0.3,0.2-0.5l0,0.7
		c-0.1,0.2-0.2,0.3-0.4,0.4c-0.2,0.1-0.4,0.2-0.6,0.2c-0.4,0-0.7-0.1-0.9-0.4s-0.3-0.6-0.3-1.1v-2.2h0.7V196.2z M136.7,194.1h0.7
		v3.5h-0.7V194.1z"/>
	<path d="M138.2,194.1h1.6v0.6h-1.6V194.1z M138.8,197.4c-0.1-0.2-0.2-0.4-0.2-0.7V193h0.7v3.7c0,0.1,0,0.2,0.1,0.2
		c0,0,0.1,0.1,0.2,0.1h0.3v0.7h-0.4C139.1,197.6,138.9,197.6,138.8,197.4z"/>
	<path d="M142.3,194.1h0.7l0.6,2.5l0.9-2.5h0.5l0.9,2.5l0.6-2.5h0.7l-1.1,3.5h-0.5l-0.9-2.5l-0.9,2.5h-0.5L142.3,194.1z"/>
	<path d="M148.1,192.6h0.7v0.7h-0.7V192.6z M148.1,194.1h0.7v3.5h-0.7V194.1z"/>
	<path d="M149.5,194.1h1.6v0.6h-1.6V194.1z M150.1,197.4c-0.1-0.2-0.2-0.4-0.2-0.7V193h0.7v3.7c0,0.1,0,0.2,0.1,0.2
		c0,0,0.1,0.1,0.2,0.1h0.3v0.7h-0.4C150.5,197.6,150.2,197.6,150.1,197.4z"/>
	<path d="M152.1,192.6h0.7v5h-0.7V192.6z M154.3,195.5c0-0.2-0.1-0.4-0.2-0.6c-0.1-0.1-0.3-0.2-0.5-0.2c-0.2,0-0.4,0.1-0.5,0.2
		c-0.1,0.1-0.2,0.3-0.2,0.5l-0.1-0.7c0.1-0.2,0.3-0.4,0.4-0.5c0.2-0.1,0.4-0.2,0.6-0.2c0.4,0,0.7,0.1,0.9,0.4
		c0.2,0.3,0.3,0.6,0.3,1.1v2.2h-0.7V195.5z"/>
	<path d="M157.6,194.1h1.8v0.6h-1.8V194.1z M158,193.6c0-0.3,0.1-0.6,0.2-0.7c0.1-0.2,0.4-0.2,0.7-0.2h0.5v0.7h-0.5
		c-0.1,0-0.1,0-0.2,0.1c0,0-0.1,0.1-0.1,0.2v4H158V193.6z"/>
	<path d="M160,194.1h0.7v3.5H160V194.1z M161.7,194.7c-0.1,0-0.2-0.1-0.3-0.1c-0.2,0-0.4,0.1-0.5,0.2c-0.1,0.1-0.2,0.3-0.2,0.5
		l-0.1-0.7c0.1-0.2,0.2-0.4,0.4-0.5c0.2-0.1,0.4-0.2,0.6-0.2c0.2,0,0.3,0,0.4,0.1s0.2,0.1,0.3,0.2l-0.5,0.6
		C161.9,194.8,161.8,194.8,161.7,194.7z"/>
	<path d="M163,192.6h0.7v0.7H163V192.6z M163,194.1h0.7v3.5H163V194.1z"/>
	<path d="M165.3,197.5c-0.2-0.1-0.4-0.3-0.5-0.5c-0.1-0.2-0.2-0.5-0.2-0.9v-0.4c0-0.4,0.1-0.7,0.2-0.9c0.1-0.2,0.3-0.4,0.5-0.6
		s0.5-0.2,0.8-0.2c0.3,0,0.5,0.1,0.8,0.2s0.4,0.4,0.5,0.6c0.1,0.3,0.2,0.6,0.2,1v0.2h-2.4v-0.6h1.7c0-0.3-0.1-0.5-0.2-0.7
		c-0.1-0.2-0.3-0.2-0.5-0.2c-0.3,0-0.5,0.1-0.6,0.3c-0.1,0.2-0.2,0.4-0.2,0.7v0.5c0,0.3,0.1,0.5,0.2,0.7c0.2,0.2,0.4,0.2,0.7,0.2
		c0.1,0,0.3,0,0.4-0.1c0.1-0.1,0.3-0.1,0.4-0.2l0.5,0.5c-0.2,0.2-0.4,0.3-0.6,0.4c-0.2,0.1-0.4,0.1-0.7,0.1
		C165.8,197.7,165.6,197.6,165.3,197.5z"/>
	<path d="M168.5,194.1h0.7v3.5h-0.7V194.1z M170.6,195.5c0-0.2-0.1-0.4-0.2-0.6s-0.3-0.2-0.5-0.2c-0.2,0-0.4,0.1-0.5,0.2
		c-0.1,0.1-0.2,0.3-0.2,0.5l-0.1-0.7c0.1-0.2,0.3-0.4,0.4-0.5c0.2-0.1,0.4-0.2,0.6-0.2c0.4,0,0.7,0.1,0.9,0.4
		c0.2,0.3,0.3,0.6,0.3,1.1v2.2h-0.7V195.5z"/>
	<path d="M172.8,197.5c-0.2-0.1-0.3-0.3-0.4-0.5s-0.1-0.5-0.1-0.8v-0.8c0-0.3,0-0.6,0.1-0.8s0.2-0.4,0.4-0.5
		c0.2-0.1,0.4-0.2,0.6-0.2c0.2,0,0.4,0.1,0.6,0.2c0.2,0.1,0.3,0.3,0.4,0.5l-0.1,0.7c0-0.2,0-0.3-0.1-0.4s-0.1-0.2-0.2-0.2
		s-0.2-0.1-0.4-0.1c-0.2,0-0.4,0.1-0.5,0.2c-0.1,0.1-0.2,0.3-0.2,0.6v0.8c0,0.3,0.1,0.5,0.2,0.6c0.1,0.1,0.3,0.2,0.5,0.2
		c0.1,0,0.3,0,0.4-0.1c0.1-0.1,0.2-0.1,0.2-0.3s0.1-0.2,0.1-0.4l0,0.7c-0.1,0.2-0.2,0.3-0.3,0.4c-0.2,0.1-0.4,0.2-0.6,0.2
		C173.2,197.7,173,197.6,172.8,197.5z M174.4,192.6h0.7v5h-0.7V192.6z"/>
	<path d="M176.8,197.6c-0.2,0-0.4-0.1-0.5-0.2c-0.2-0.1-0.3-0.2-0.4-0.3l0.4-0.5c0.2,0.1,0.4,0.3,0.6,0.3s0.4,0.1,0.6,0.1
		c0.3,0,0.5,0,0.6-0.1c0.1-0.1,0.2-0.2,0.2-0.4c0-0.1,0-0.2-0.1-0.3c-0.1-0.1-0.2-0.1-0.3-0.1c-0.1,0-0.3,0-0.5-0.1c0,0,0,0-0.1,0
		s0,0-0.1,0c0,0,0,0,0,0c0,0,0,0,0,0c-0.2,0-0.4-0.1-0.6-0.1c-0.2,0-0.3-0.1-0.4-0.3c-0.1-0.1-0.2-0.3-0.2-0.6s0.1-0.5,0.2-0.6
		c0.1-0.2,0.3-0.3,0.5-0.4c0.2-0.1,0.5-0.1,0.8-0.1c0.2,0,0.4,0,0.5,0.1s0.3,0.1,0.5,0.2s0.3,0.2,0.4,0.3l-0.4,0.5
		c-0.2-0.1-0.4-0.2-0.5-0.3c-0.2-0.1-0.3-0.1-0.5-0.1c-0.2,0-0.4,0-0.5,0.1c-0.1,0.1-0.2,0.2-0.2,0.4c0,0.1,0,0.2,0.1,0.2
		c0.1,0,0.2,0.1,0.3,0.1c0.1,0,0.2,0,0.4,0c0,0,0,0,0,0c0,0,0,0,0,0c0,0,0,0,0,0c0,0,0,0,0,0c0.2,0,0.5,0,0.6,0.1
		c0.2,0.1,0.3,0.2,0.4,0.3c0.1,0.1,0.2,0.4,0.2,0.6c0,0.3-0.1,0.5-0.2,0.6c-0.1,0.2-0.3,0.3-0.5,0.4c-0.2,0.1-0.5,0.1-0.8,0.1
		C177.2,197.7,177,197.6,176.8,197.6z"/>
</g>
<g>
	<path class="st13" d="M214.4,134.8c-1.4,0-2.5,1.1-2.5,2.5c0,1.4,1.1,2.5,2.5,2.5c1.4,0,2.5-1.1,2.5-2.5
		C216.9,135.9,215.7,134.8,214.4,134.8z M214.1,138.2L214.1,138.2l-0.1,0.1l-1-1l0.4-0.4l0.6,0.6l1.3-1.3l0.4,0.4L214.1,138.2z"/>
	<g>
		<polygon class="st14" points="215.3,136.3 215.7,136.6 214.1,138.2 214.1,138.2 214,138.3 213,137.3 213.4,137 214,137.6 		"/>
	</g>
</g>
<g>
	<path class="st13" d="M214.4,152.8c-1.4,0-2.5,1.1-2.5,2.5c0,1.4,1.1,2.5,2.5,2.5c1.4,0,2.5-1.1,2.5-2.5
		C216.9,153.9,215.7,152.8,214.4,152.8z M214.1,156.2L214.1,156.2l-0.1,0.1l-1-1l0.4-0.4l0.6,0.6l1.3-1.3l0.4,0.4L214.1,156.2z"/>
	<g>
		<polygon class="st14" points="215.3,154.3 215.7,154.6 214.1,156.2 214.1,156.2 214,156.3 213,155.3 213.4,155 214,155.6 		"/>
	</g>
</g>
<g>
	<path class="st13" d="M215.4,170.8c-1.4,0-2.5,1.1-2.5,2.5c0,1.4,1.1,2.5,2.5,2.5c1.4,0,2.5-1.1,2.5-2.5
		C217.9,171.9,216.7,170.8,215.4,170.8z M215.1,174.2L215.1,174.2l-0.1,0.1l-1-1l0.4-0.4l0.6,0.6l1.3-1.3l0.4,0.4L215.1,174.2z"/>
	<g>
		<polygon class="st14" points="216.3,172.3 216.7,172.6 215.1,174.2 215.1,174.2 215,174.3 214,173.3 214.4,173 215,173.6 		"/>
	</g>
</g>
<g>
	<path class="st13" d="M215.4,192.8c-1.4,0-2.5,1.1-2.5,2.5c0,1.4,1.1,2.5,2.5,2.5c1.4,0,2.5-1.1,2.5-2.5
		C217.9,193.9,216.7,192.8,215.4,192.8z M215.1,196.2L215.1,196.2l-0.1,0.1l-1-1l0.4-0.4l0.6,0.6l1.3-1.3l0.4,0.4L215.1,196.2z"/>
	<g>
		<polygon class="st14" points="216.3,194.3 216.7,194.6 215.1,196.2 215.1,196.2 215,196.3 214,195.3 214.4,195 215,195.6 		"/>
	</g>
</g>
<g>
	<path d="M189.5,135.4h2v0.4h-2V135.4z M190.3,135.7h0.4v2.6h-0.4V135.7z"/>
	<path d="M191.9,138.2c-0.1-0.1-0.2-0.2-0.3-0.3c-0.1-0.1-0.1-0.3-0.1-0.5v-0.3c0-0.2,0-0.3,0.1-0.5c0.1-0.1,0.2-0.2,0.3-0.3
		s0.3-0.1,0.5-0.1s0.3,0,0.5,0.1s0.2,0.2,0.3,0.3c0.1,0.1,0.1,0.3,0.1,0.5v0.3c0,0.2,0,0.3-0.1,0.5c-0.1,0.1-0.2,0.2-0.3,0.3
		s-0.3,0.1-0.5,0.1S192,138.3,191.9,138.2z M192.7,137.8c0.1-0.1,0.1-0.2,0.1-0.4v-0.3c0-0.2,0-0.3-0.1-0.4s-0.2-0.1-0.3-0.1
		c-0.1,0-0.2,0-0.3,0.1s-0.1,0.2-0.1,0.4v0.3c0,0.2,0,0.3,0.1,0.4s0.2,0.1,0.3,0.1C192.5,137.9,192.6,137.9,192.7,137.8z"/>
	<path d="M194,138.2c-0.1-0.1-0.2-0.2-0.2-0.3s-0.1-0.3-0.1-0.4V137c0-0.2,0-0.3,0.1-0.4c0.1-0.1,0.1-0.2,0.2-0.3
		c0.1-0.1,0.2-0.1,0.4-0.1c0.1,0,0.2,0,0.3,0.1s0.2,0.2,0.2,0.3l0,0.4c0-0.1,0-0.2,0-0.2s-0.1-0.1-0.1-0.1c-0.1,0-0.1,0-0.2,0
		c-0.1,0-0.2,0-0.3,0.1s-0.1,0.2-0.1,0.3v0.4c0,0.1,0,0.3,0.1,0.3s0.2,0.1,0.3,0.1c0.1,0,0.2,0,0.2,0c0.1,0,0.1-0.1,0.1-0.1
		s0-0.1,0-0.2l0,0.4c0,0.1-0.1,0.2-0.2,0.3s-0.2,0.1-0.3,0.1C194.2,138.3,194.1,138.3,194,138.2z M194.9,135.4h0.4v2.8h-0.4V135.4z"
		/>
	<path d="M196,138.2c-0.1-0.1-0.2-0.3-0.2-0.5c0-0.2,0.1-0.4,0.2-0.5s0.3-0.2,0.5-0.2h0.6l0,0.3h-0.6c-0.1,0-0.2,0-0.2,0.1
		c-0.1,0-0.1,0.1-0.1,0.2c0,0.1,0,0.2,0.1,0.2s0.2,0.1,0.3,0.1c0.2,0,0.3,0,0.3,0c0.1,0,0.1-0.1,0.1-0.2l0,0.3
		c0,0.1-0.1,0.1-0.1,0.1c-0.1,0-0.1,0.1-0.2,0.1c-0.1,0-0.1,0-0.2,0C196.3,138.3,196.1,138.3,196,138.2z M197,137
		c0-0.1,0-0.2-0.1-0.3c-0.1-0.1-0.2-0.1-0.3-0.1c-0.1,0-0.2,0-0.2,0c-0.1,0-0.1,0.1-0.2,0.1l-0.3-0.2c0.1-0.1,0.2-0.2,0.3-0.2
		c0.1-0.1,0.3-0.1,0.4-0.1c0.2,0,0.3,0,0.4,0.1c0.1,0.1,0.2,0.1,0.3,0.3s0.1,0.2,0.1,0.4v1.3H197V137z"/>
	<path d="M197.7,136.2h0.4l0.6,1.8l-0.2,0.4L197.7,136.2z M199.5,136.2l-0.9,2.5c0,0.1-0.1,0.2-0.1,0.2s-0.1,0.1-0.2,0.1
		s-0.2,0-0.3,0H198v-0.4h0.1c0.1,0,0.1,0,0.2,0c0,0,0.1-0.1,0.1-0.2l0.8-2.3H199.5z"/>
	<path d="M202,136.9L202,136.9c0,0.1-0.1,0.2-0.1,0.2c-0.1,0-0.1,0-0.2,0c-0.1,0-0.3,0-0.4-0.1c-0.1-0.1-0.2-0.2-0.2-0.3
		s-0.1-0.3-0.1-0.4v0c0-0.2,0-0.3,0.1-0.5c0.1-0.1,0.2-0.2,0.3-0.3s0.3-0.1,0.4-0.1c0.2,0,0.3,0,0.4,0.1c0.1,0.1,0.2,0.2,0.3,0.3
		c0.1,0.1,0.1,0.3,0.1,0.5v0c0,0.1,0,0.2,0,0.3c0,0.1-0.1,0.2-0.1,0.3c0,0,0,0,0,0.1s0,0,0,0.1l-0.6,1.2h-0.4L202,136.9z M202,136.6
		c0.1-0.1,0.1-0.2,0.1-0.4v0c0-0.1,0-0.3-0.1-0.3s-0.2-0.1-0.3-0.1c-0.1,0-0.2,0-0.3,0.1s-0.1,0.2-0.1,0.3v0c0,0.2,0,0.3,0.1,0.4
		s0.2,0.1,0.3,0.1C201.8,136.7,201.9,136.7,202,136.6z"/>
	<path d="M203.1,138.2c-0.1-0.1-0.2-0.3-0.2-0.5c0-0.2,0.1-0.4,0.2-0.5s0.3-0.2,0.5-0.2h0.6l0,0.3h-0.6c-0.1,0-0.2,0-0.2,0.1
		c-0.1,0-0.1,0.1-0.1,0.2c0,0.1,0,0.2,0.1,0.2s0.2,0.1,0.3,0.1c0.2,0,0.3,0,0.3,0c0.1,0,0.1-0.1,0.1-0.2l0,0.3
		c0,0.1-0.1,0.1-0.1,0.1c-0.1,0-0.1,0.1-0.2,0.1c-0.1,0-0.1,0-0.2,0C203.4,138.3,203.2,138.3,203.1,138.2z M204.2,137
		c0-0.1,0-0.2-0.1-0.3c-0.1-0.1-0.2-0.1-0.3-0.1c-0.1,0-0.2,0-0.2,0c-0.1,0-0.1,0.1-0.2,0.1l-0.3-0.2c0.1-0.1,0.2-0.2,0.3-0.2
		c0.1-0.1,0.3-0.1,0.4-0.1c0.2,0,0.3,0,0.4,0.1c0.1,0.1,0.2,0.1,0.3,0.3s0.1,0.2,0.1,0.4v1.3h-0.4V137z"/>
	<path d="M205.1,136.2h0.4v2h-0.4V136.2z M206.4,137c0-0.1,0-0.3-0.1-0.3s-0.2-0.1-0.3-0.1c-0.1,0-0.2,0-0.3,0.1
		c-0.1,0.1-0.1,0.2-0.1,0.3l0-0.4c0.1-0.1,0.1-0.2,0.2-0.3c0.1-0.1,0.2-0.1,0.3-0.1c0.1,0,0.3,0,0.4,0.1c0.1,0.1,0.2,0.2,0.2,0.3
		s0.1,0.3,0.1,0.4v1.2h-0.4V137z M207.6,137c0-0.1,0-0.3-0.1-0.3s-0.2-0.1-0.3-0.1c-0.1,0-0.2,0-0.3,0.1c-0.1,0.1-0.1,0.2-0.1,0.3
		l-0.1-0.4c0.1-0.1,0.1-0.2,0.3-0.3c0.1-0.1,0.2-0.1,0.3-0.1c0.1,0,0.3,0,0.4,0.1s0.2,0.2,0.2,0.3c0.1,0.1,0.1,0.3,0.1,0.4v1.2h-0.4
		V137z"/>
</g>
<g>
	<path d="M345.5,139.4h2v0.4h-2V139.4z M346.3,139.7h0.4v2.6h-0.4V139.7z"/>
	<path d="M347.9,142.2c-0.1-0.1-0.2-0.2-0.3-0.3c-0.1-0.1-0.1-0.3-0.1-0.5v-0.3c0-0.2,0-0.3,0.1-0.5c0.1-0.1,0.2-0.2,0.3-0.3
		s0.3-0.1,0.5-0.1s0.3,0,0.5,0.1s0.2,0.2,0.3,0.3c0.1,0.1,0.1,0.3,0.1,0.5v0.3c0,0.2,0,0.3-0.1,0.5c-0.1,0.1-0.2,0.2-0.3,0.3
		s-0.3,0.1-0.5,0.1S348,142.3,347.9,142.2z M348.7,141.8c0.1-0.1,0.1-0.2,0.1-0.4v-0.3c0-0.2,0-0.3-0.1-0.4s-0.2-0.1-0.3-0.1
		c-0.1,0-0.2,0-0.3,0.1s-0.1,0.2-0.1,0.4v0.3c0,0.2,0,0.3,0.1,0.4s0.2,0.1,0.3,0.1C348.5,141.9,348.6,141.9,348.7,141.8z"/>
	<path d="M349.7,140.2h0.4v2h-0.4V140.2z M350.9,141c0-0.1,0-0.3-0.1-0.3s-0.2-0.1-0.3-0.1c-0.1,0-0.2,0-0.3,0.1
		c-0.1,0.1-0.1,0.2-0.1,0.3l0-0.4c0.1-0.1,0.1-0.2,0.2-0.3c0.1-0.1,0.2-0.1,0.3-0.1c0.1,0,0.3,0,0.4,0.1c0.1,0.1,0.2,0.2,0.2,0.3
		s0.1,0.3,0.1,0.4v1.2h-0.4V141z M352.2,141c0-0.1,0-0.3-0.1-0.3s-0.2-0.1-0.3-0.1c-0.1,0-0.2,0-0.3,0.1c-0.1,0.1-0.1,0.2-0.1,0.3
		l-0.1-0.4c0.1-0.1,0.1-0.2,0.3-0.3c0.1-0.1,0.2-0.1,0.3-0.1c0.1,0,0.3,0,0.4,0.1s0.2,0.2,0.2,0.3c0.1,0.1,0.1,0.3,0.1,0.4v1.2h-0.4
		V141z"/>
	<path d="M353.5,142.2c-0.1-0.1-0.2-0.2-0.3-0.3c-0.1-0.1-0.1-0.3-0.1-0.5v-0.3c0-0.2,0-0.3,0.1-0.5c0.1-0.1,0.2-0.2,0.3-0.3
		s0.3-0.1,0.5-0.1s0.3,0,0.5,0.1s0.2,0.2,0.3,0.3c0.1,0.1,0.1,0.3,0.1,0.5v0.3c0,0.2,0,0.3-0.1,0.5c-0.1,0.1-0.2,0.2-0.3,0.3
		s-0.3,0.1-0.5,0.1S353.6,142.3,353.5,142.2z M354.3,141.8c0.1-0.1,0.1-0.2,0.1-0.4v-0.3c0-0.2,0-0.3-0.1-0.4s-0.2-0.1-0.3-0.1
		c-0.1,0-0.2,0-0.3,0.1s-0.1,0.2-0.1,0.4v0.3c0,0.2,0,0.3,0.1,0.4s0.2,0.1,0.3,0.1C354.1,141.9,354.2,141.9,354.3,141.8z"/>
	<path d="M355.3,140.2h0.4v2h-0.4V140.2z M356.3,140.6c-0.1,0-0.1,0-0.2,0c-0.1,0-0.2,0-0.3,0.1c-0.1,0.1-0.1,0.2-0.1,0.3l0-0.4
		c0.1-0.1,0.1-0.2,0.2-0.3c0.1-0.1,0.2-0.1,0.3-0.1c0.1,0,0.2,0,0.3,0c0.1,0,0.1,0.1,0.2,0.1l-0.3,0.4
		C356.4,140.7,356.4,140.7,356.3,140.6z"/>
	<path d="M357,140.2h0.4v2H357V140.2z M358,140.6c-0.1,0-0.1,0-0.2,0c-0.1,0-0.2,0-0.3,0.1c-0.1,0.1-0.1,0.2-0.1,0.3l0-0.4
		c0.1-0.1,0.1-0.2,0.2-0.3c0.1-0.1,0.2-0.1,0.3-0.1c0.1,0,0.2,0,0.3,0c0.1,0,0.1,0.1,0.2,0.1l-0.3,0.4
		C358.1,140.7,358.1,140.7,358,140.6z"/>
	<path d="M359,142.2c-0.1-0.1-0.2-0.2-0.3-0.3c-0.1-0.1-0.1-0.3-0.1-0.5v-0.3c0-0.2,0-0.3,0.1-0.5c0.1-0.1,0.2-0.2,0.3-0.3
		s0.3-0.1,0.5-0.1s0.3,0,0.5,0.1s0.2,0.2,0.3,0.3c0.1,0.1,0.1,0.3,0.1,0.5v0.3c0,0.2,0,0.3-0.1,0.5c-0.1,0.1-0.2,0.2-0.3,0.3
		s-0.3,0.1-0.5,0.1S359.2,142.3,359,142.2z M359.8,141.8c0.1-0.1,0.1-0.2,0.1-0.4v-0.3c0-0.2,0-0.3-0.1-0.4s-0.2-0.1-0.3-0.1
		c-0.1,0-0.2,0-0.3,0.1s-0.1,0.2-0.1,0.4v0.3c0,0.2,0,0.3,0.1,0.4s0.2,0.1,0.3,0.1C359.6,141.9,359.7,141.9,359.8,141.8z"/>
	<path d="M360.6,140.2h0.4l0.4,1.4l0.5-1.4h0.3l0.5,1.4l0.4-1.4h0.4l-0.6,2h-0.3l-0.5-1.4l-0.5,1.4h-0.3L360.6,140.2z"/>
	<path d="M366,140.9L366,140.9c0,0.1-0.1,0.2-0.1,0.2c-0.1,0-0.1,0-0.2,0c-0.1,0-0.3,0-0.4-0.1c-0.1-0.1-0.2-0.2-0.2-0.3
		s-0.1-0.3-0.1-0.4v0c0-0.2,0-0.3,0.1-0.5c0.1-0.1,0.2-0.2,0.3-0.3s0.3-0.1,0.4-0.1c0.2,0,0.3,0,0.4,0.1c0.1,0.1,0.2,0.2,0.3,0.3
		c0.1,0.1,0.1,0.3,0.1,0.5v0c0,0.1,0,0.2,0,0.3c0,0.1-0.1,0.2-0.1,0.3c0,0,0,0,0,0.1s0,0,0,0.1l-0.6,1.2h-0.4L366,140.9z M366,140.6
		c0.1-0.1,0.1-0.2,0.1-0.4v0c0-0.1,0-0.3-0.1-0.3s-0.2-0.1-0.3-0.1c-0.1,0-0.2,0-0.3,0.1s-0.1,0.2-0.1,0.3v0c0,0.2,0,0.3,0.1,0.4
		s0.2,0.1,0.3,0.1C365.8,140.7,365.9,140.7,366,140.6z"/>
	<path d="M367.1,142.2c-0.1-0.1-0.2-0.3-0.2-0.5c0-0.2,0.1-0.4,0.2-0.5s0.3-0.2,0.5-0.2h0.6l0,0.3h-0.6c-0.1,0-0.2,0-0.2,0.1
		c-0.1,0-0.1,0.1-0.1,0.2c0,0.1,0,0.2,0.1,0.2s0.2,0.1,0.3,0.1c0.2,0,0.3,0,0.3,0c0.1,0,0.1-0.1,0.1-0.2l0,0.3
		c0,0.1-0.1,0.1-0.1,0.1c-0.1,0-0.1,0.1-0.2,0.1c-0.1,0-0.1,0-0.2,0C367.4,142.3,367.2,142.3,367.1,142.2z M368.2,141
		c0-0.1,0-0.2-0.1-0.3c-0.1-0.1-0.2-0.1-0.3-0.1c-0.1,0-0.2,0-0.2,0c-0.1,0-0.1,0.1-0.2,0.1l-0.3-0.2c0.1-0.1,0.2-0.2,0.3-0.2
		c0.1-0.1,0.3-0.1,0.4-0.1c0.2,0,0.3,0,0.4,0.1c0.1,0.1,0.2,0.1,0.3,0.3s0.1,0.2,0.1,0.4v1.3h-0.4V141z"/>
	<path d="M369.2,140.2h0.4v2h-0.4V140.2z M370.4,141c0-0.1,0-0.3-0.1-0.3s-0.2-0.1-0.3-0.1c-0.1,0-0.2,0-0.3,0.1
		c-0.1,0.1-0.1,0.2-0.1,0.3l0-0.4c0.1-0.1,0.1-0.2,0.2-0.3c0.1-0.1,0.2-0.1,0.3-0.1c0.1,0,0.3,0,0.4,0.1c0.1,0.1,0.2,0.2,0.2,0.3
		s0.1,0.3,0.1,0.4v1.2h-0.4V141z M371.6,141c0-0.1,0-0.3-0.1-0.3s-0.2-0.1-0.3-0.1c-0.1,0-0.2,0-0.3,0.1c-0.1,0.1-0.1,0.2-0.1,0.3
		l-0.1-0.4c0.1-0.1,0.1-0.2,0.3-0.3c0.1-0.1,0.2-0.1,0.3-0.1c0.1,0,0.3,0,0.4,0.1s0.2,0.2,0.2,0.3c0.1,0.1,0.1,0.3,0.1,0.4v1.2h-0.4
		V141z"/>
</g>
<g>
	<path d="M190.5,153.4h2v0.4h-2V153.4z M191.3,153.7h0.4v2.6h-0.4V153.7z"/>
	<path d="M192.9,156.2c-0.1-0.1-0.2-0.2-0.3-0.3c-0.1-0.1-0.1-0.3-0.1-0.5v-0.3c0-0.2,0-0.3,0.1-0.5c0.1-0.1,0.2-0.2,0.3-0.3
		s0.3-0.1,0.5-0.1s0.3,0,0.5,0.1s0.2,0.2,0.3,0.3c0.1,0.1,0.1,0.3,0.1,0.5v0.3c0,0.2,0,0.3-0.1,0.5c-0.1,0.1-0.2,0.2-0.3,0.3
		s-0.3,0.1-0.5,0.1S193,156.3,192.9,156.2z M193.7,155.8c0.1-0.1,0.1-0.2,0.1-0.4v-0.3c0-0.2,0-0.3-0.1-0.4s-0.2-0.1-0.3-0.1
		c-0.1,0-0.2,0-0.3,0.1s-0.1,0.2-0.1,0.4v0.3c0,0.2,0,0.3,0.1,0.4s0.2,0.1,0.3,0.1C193.5,155.9,193.6,155.9,193.7,155.8z"/>
	<path d="M195,156.2c-0.1-0.1-0.2-0.2-0.2-0.3s-0.1-0.3-0.1-0.4V155c0-0.2,0-0.3,0.1-0.4c0.1-0.1,0.1-0.2,0.2-0.3
		c0.1-0.1,0.2-0.1,0.4-0.1c0.1,0,0.2,0,0.3,0.1s0.2,0.2,0.2,0.3l0,0.4c0-0.1,0-0.2,0-0.2s-0.1-0.1-0.1-0.1c-0.1,0-0.1,0-0.2,0
		c-0.1,0-0.2,0-0.3,0.1s-0.1,0.2-0.1,0.3v0.4c0,0.1,0,0.3,0.1,0.3s0.2,0.1,0.3,0.1c0.1,0,0.2,0,0.2,0c0.1,0,0.1-0.1,0.1-0.1
		s0-0.1,0-0.2l0,0.4c0,0.1-0.1,0.2-0.2,0.3s-0.2,0.1-0.3,0.1C195.2,156.3,195.1,156.3,195,156.2z M195.9,153.4h0.4v2.8h-0.4V153.4z"
		/>
	<path d="M197,156.2c-0.1-0.1-0.2-0.3-0.2-0.5c0-0.2,0.1-0.4,0.2-0.5s0.3-0.2,0.5-0.2h0.6l0,0.3h-0.6c-0.1,0-0.2,0-0.2,0.1
		c-0.1,0-0.1,0.1-0.1,0.2c0,0.1,0,0.2,0.1,0.2s0.2,0.1,0.3,0.1c0.2,0,0.3,0,0.3,0c0.1,0,0.1-0.1,0.1-0.2l0,0.3
		c0,0.1-0.1,0.1-0.1,0.1c-0.1,0-0.1,0.1-0.2,0.1c-0.1,0-0.1,0-0.2,0C197.3,156.3,197.1,156.3,197,156.2z M198,155
		c0-0.1,0-0.2-0.1-0.3c-0.1-0.1-0.2-0.1-0.3-0.1c-0.1,0-0.2,0-0.2,0c-0.1,0-0.1,0.1-0.2,0.1l-0.3-0.2c0.1-0.1,0.2-0.2,0.3-0.2
		c0.1-0.1,0.3-0.1,0.4-0.1c0.2,0,0.3,0,0.4,0.1c0.1,0.1,0.2,0.1,0.3,0.3s0.1,0.2,0.1,0.4v1.3H198V155z"/>
	<path d="M198.7,154.2h0.4l0.6,1.8l-0.2,0.4L198.7,154.2z M200.5,154.2l-0.9,2.5c0,0.1-0.1,0.2-0.1,0.2s-0.1,0.1-0.2,0.1
		s-0.2,0-0.3,0H199v-0.4h0.1c0.1,0,0.1,0,0.2,0c0,0,0.1-0.1,0.1-0.2l0.8-2.3H200.5z"/>
	<path d="M202.6,156.3h-0.4v-2.4l-0.4,0.2v-0.4l0.4-0.3h0.4V156.3z"/>
	<path d="M204,156.3h-0.4v-2.4l-0.4,0.2v-0.4l0.4-0.3h0.4V156.3z"/>
	<path d="M204.7,156.2c-0.1-0.1-0.2-0.3-0.2-0.5c0-0.2,0.1-0.4,0.2-0.5s0.3-0.2,0.5-0.2h0.6l0,0.3h-0.6c-0.1,0-0.2,0-0.2,0.1
		c-0.1,0-0.1,0.1-0.1,0.2c0,0.1,0,0.2,0.1,0.2s0.2,0.1,0.3,0.1c0.2,0,0.3,0,0.3,0c0.1,0,0.1-0.1,0.1-0.2l0,0.3
		c0,0.1-0.1,0.1-0.1,0.1c-0.1,0-0.1,0.1-0.2,0.1c-0.1,0-0.1,0-0.2,0C205,156.3,204.8,156.3,204.7,156.2z M205.8,155
		c0-0.1,0-0.2-0.1-0.3c-0.1-0.1-0.2-0.1-0.3-0.1c-0.1,0-0.2,0-0.2,0c-0.1,0-0.1,0.1-0.2,0.1l-0.3-0.2c0.1-0.1,0.2-0.2,0.3-0.2
		c0.1-0.1,0.3-0.1,0.4-0.1c0.2,0,0.3,0,0.4,0.1c0.1,0.1,0.2,0.1,0.3,0.3s0.1,0.2,0.1,0.4v1.3h-0.4V155z"/>
	<path d="M206.8,154.2h0.4v2h-0.4V154.2z M208,155c0-0.1,0-0.3-0.1-0.3s-0.2-0.1-0.3-0.1c-0.1,0-0.2,0-0.3,0.1
		c-0.1,0.1-0.1,0.2-0.1,0.3l0-0.4c0.1-0.1,0.1-0.2,0.2-0.3c0.1-0.1,0.2-0.1,0.3-0.1c0.1,0,0.3,0,0.4,0.1c0.1,0.1,0.2,0.2,0.2,0.3
		s0.1,0.3,0.1,0.4v1.2H208V155z M209.2,155c0-0.1,0-0.3-0.1-0.3s-0.2-0.1-0.3-0.1c-0.1,0-0.2,0-0.3,0.1c-0.1,0.1-0.1,0.2-0.1,0.3
		l-0.1-0.4c0.1-0.1,0.1-0.2,0.3-0.3c0.1-0.1,0.2-0.1,0.3-0.1c0.1,0,0.3,0,0.4,0.1s0.2,0.2,0.2,0.3c0.1,0.1,0.1,0.3,0.1,0.4v1.2h-0.4
		V155z"/>
</g>
<g>
	<path d="M190.5,171.4h2v0.4h-2V171.4z M191.3,171.7h0.4v2.6h-0.4V171.7z"/>
	<path d="M192.9,174.2c-0.1-0.1-0.2-0.2-0.3-0.3c-0.1-0.1-0.1-0.3-0.1-0.5v-0.3c0-0.2,0-0.3,0.1-0.5c0.1-0.1,0.2-0.2,0.3-0.3
		s0.3-0.1,0.5-0.1s0.3,0,0.5,0.1s0.2,0.2,0.3,0.3c0.1,0.1,0.1,0.3,0.1,0.5v0.3c0,0.2,0,0.3-0.1,0.5c-0.1,0.1-0.2,0.2-0.3,0.3
		s-0.3,0.1-0.5,0.1S193,174.3,192.9,174.2z M193.7,173.8c0.1-0.1,0.1-0.2,0.1-0.4v-0.3c0-0.2,0-0.3-0.1-0.4s-0.2-0.1-0.3-0.1
		c-0.1,0-0.2,0-0.3,0.1s-0.1,0.2-0.1,0.4v0.3c0,0.2,0,0.3,0.1,0.4s0.2,0.1,0.3,0.1C193.5,173.9,193.6,173.9,193.7,173.8z"/>
	<path d="M195,174.2c-0.1-0.1-0.2-0.2-0.2-0.3s-0.1-0.3-0.1-0.4V173c0-0.2,0-0.3,0.1-0.4c0.1-0.1,0.1-0.2,0.2-0.3
		c0.1-0.1,0.2-0.1,0.4-0.1c0.1,0,0.2,0,0.3,0.1s0.2,0.2,0.2,0.3l0,0.4c0-0.1,0-0.2,0-0.2s-0.1-0.1-0.1-0.1c-0.1,0-0.1,0-0.2,0
		c-0.1,0-0.2,0-0.3,0.1s-0.1,0.2-0.1,0.3v0.4c0,0.1,0,0.3,0.1,0.3s0.2,0.1,0.3,0.1c0.1,0,0.2,0,0.2,0c0.1,0,0.1-0.1,0.1-0.1
		s0-0.1,0-0.2l0,0.4c0,0.1-0.1,0.2-0.2,0.3s-0.2,0.1-0.3,0.1C195.2,174.3,195.1,174.3,195,174.2z M195.9,171.4h0.4v2.8h-0.4V171.4z"
		/>
	<path d="M197,174.2c-0.1-0.1-0.2-0.3-0.2-0.5c0-0.2,0.1-0.4,0.2-0.5s0.3-0.2,0.5-0.2h0.6l0,0.3h-0.6c-0.1,0-0.2,0-0.2,0.1
		c-0.1,0-0.1,0.1-0.1,0.2c0,0.1,0,0.2,0.1,0.2s0.2,0.1,0.3,0.1c0.2,0,0.3,0,0.3,0c0.1,0,0.1-0.1,0.1-0.2l0,0.3
		c0,0.1-0.1,0.1-0.1,0.1c-0.1,0-0.1,0.1-0.2,0.1c-0.1,0-0.1,0-0.2,0C197.3,174.3,197.1,174.3,197,174.2z M198,173
		c0-0.1,0-0.2-0.1-0.3c-0.1-0.1-0.2-0.1-0.3-0.1c-0.1,0-0.2,0-0.2,0c-0.1,0-0.1,0.1-0.2,0.1l-0.3-0.2c0.1-0.1,0.2-0.2,0.3-0.2
		c0.1-0.1,0.3-0.1,0.4-0.1c0.2,0,0.3,0,0.4,0.1c0.1,0.1,0.2,0.1,0.3,0.3s0.1,0.2,0.1,0.4v1.3H198V173z"/>
	<path d="M198.7,172.2h0.4l0.6,1.8l-0.2,0.4L198.7,172.2z M200.5,172.2l-0.9,2.5c0,0.1-0.1,0.2-0.1,0.2s-0.1,0.1-0.2,0.1
		s-0.2,0-0.3,0H199v-0.4h0.1c0.1,0,0.1,0,0.2,0c0,0,0.1-0.1,0.1-0.2l0.8-2.3H200.5z"/>
	<path d="M202.4,174.2c-0.1-0.1-0.2-0.1-0.3-0.2c-0.1-0.1-0.1-0.2-0.1-0.4v0h0.4v0c0,0.1,0.1,0.2,0.1,0.2c0.1,0.1,0.2,0.1,0.3,0.1
		c0.1,0,0.2,0,0.3-0.1c0.1-0.1,0.1-0.2,0.1-0.4v-0.2c0-0.2,0-0.3-0.1-0.4c-0.1-0.1-0.2-0.1-0.3-0.1c-0.1,0-0.1,0-0.2,0.1
		c-0.1,0-0.1,0.1-0.2,0.2H202v-1.5h1.4v0.4h-1v0.6c0,0,0.1-0.1,0.2-0.1c0.1,0,0.1,0,0.2,0c0.2,0,0.3,0,0.4,0.1
		c0.1,0.1,0.2,0.2,0.3,0.3s0.1,0.3,0.1,0.5v0.2c0,0.2,0,0.3-0.1,0.5s-0.2,0.2-0.3,0.3c-0.1,0.1-0.3,0.1-0.4,0.1
		C202.6,174.3,202.5,174.3,202.4,174.2z"/>
	<path d="M204.1,172.2h0.4v2.9h-0.4V172.2z M204.7,174.2c-0.1-0.1-0.2-0.1-0.2-0.3l0-0.4c0,0.1,0,0.2,0,0.2s0.1,0.1,0.1,0.1
		c0.1,0,0.1,0,0.2,0c0.1,0,0.2,0,0.3-0.1s0.1-0.2,0.1-0.3V173c0-0.1,0-0.3-0.1-0.3s-0.2-0.1-0.3-0.1c-0.1,0-0.2,0-0.2,0
		c-0.1,0-0.1,0.1-0.1,0.1s0,0.1,0,0.2l0-0.4c0.1-0.1,0.1-0.2,0.2-0.3c0.1-0.1,0.2-0.1,0.3-0.1c0.1,0,0.3,0,0.4,0.1
		c0.1,0.1,0.2,0.2,0.2,0.3c0.1,0.1,0.1,0.3,0.1,0.4v0.4c0,0.2,0,0.3-0.1,0.4s-0.1,0.2-0.2,0.3s-0.2,0.1-0.4,0.1
		C204.9,174.3,204.8,174.3,204.7,174.2z"/>
	<path d="M206.3,172.2h0.4v2h-0.4V172.2z M207.5,173c0-0.1,0-0.3-0.1-0.3s-0.2-0.1-0.3-0.1c-0.1,0-0.2,0-0.3,0.1
		c-0.1,0.1-0.1,0.2-0.1,0.3l0-0.4c0.1-0.1,0.1-0.2,0.2-0.3c0.1-0.1,0.2-0.1,0.3-0.1c0.1,0,0.3,0,0.4,0.1c0.1,0.1,0.2,0.2,0.2,0.3
		s0.1,0.3,0.1,0.4v1.2h-0.4V173z M208.7,173c0-0.1,0-0.3-0.1-0.3s-0.2-0.1-0.3-0.1c-0.1,0-0.2,0-0.3,0.1c-0.1,0.1-0.1,0.2-0.1,0.3
		l-0.1-0.4c0.1-0.1,0.1-0.2,0.3-0.3c0.1-0.1,0.2-0.1,0.3-0.1c0.1,0,0.3,0,0.4,0.1s0.2,0.2,0.2,0.3c0.1,0.1,0.1,0.3,0.1,0.4v1.2h-0.4
		V173z"/>
</g>
<g>
	<path d="M512.5,143.3h-0.4v-2.4l-0.4,0.2v-0.4l0.4-0.3h0.4V143.3z"/>
	<path d="M513.1,142.9l1-1.3c0.1-0.1,0.1-0.2,0.1-0.2c0-0.1,0-0.2,0-0.2v0c0-0.1,0-0.2-0.1-0.3s-0.2-0.1-0.3-0.1
		c-0.1,0-0.2,0-0.3,0.1c-0.1,0.1-0.1,0.2-0.1,0.3v0h-0.4v0c0-0.2,0.1-0.3,0.1-0.4s0.2-0.2,0.3-0.3c0.1-0.1,0.2-0.1,0.4-0.1
		c0.2,0,0.3,0,0.4,0.1c0.1,0.1,0.2,0.1,0.3,0.3s0.1,0.2,0.1,0.4v0c0,0.1,0,0.2-0.1,0.3c0,0.1-0.1,0.2-0.2,0.3l-0.8,1.1h1.1v0.4h-1.6
		V142.9z"/>
	<path d="M515.3,143.8h-0.4l1.3-3.7h0.4L515.3,143.8z"/>
	<path d="M517.6,143.3h-0.4v-2.4l-0.4,0.2v-0.4l0.4-0.3h0.4V143.3z"/>
	<path d="M518.2,142.9l1-1.3c0.1-0.1,0.1-0.2,0.1-0.2c0-0.1,0-0.2,0-0.2v0c0-0.1,0-0.2-0.1-0.3s-0.2-0.1-0.3-0.1
		c-0.1,0-0.2,0-0.3,0.1c-0.1,0.1-0.1,0.2-0.1,0.3v0h-0.4v0c0-0.2,0.1-0.3,0.1-0.4s0.2-0.2,0.3-0.3c0.1-0.1,0.2-0.1,0.4-0.1
		c0.2,0,0.3,0,0.4,0.1c0.1,0.1,0.2,0.1,0.3,0.3s0.1,0.2,0.1,0.4v0c0,0.1,0,0.2-0.1,0.3c0,0.1-0.1,0.2-0.2,0.3l-0.8,1.1h1.1v0.4h-1.6
		V142.9z"/>
	<path d="M521.8,143.2c-0.1-0.1-0.2-0.2-0.3-0.3c-0.1-0.1-0.1-0.3-0.1-0.4v0c0-0.1,0-0.3,0.1-0.4c0.1-0.1,0.2-0.2,0.3-0.3
		c-0.1-0.1-0.2-0.1-0.2-0.2s-0.1-0.2-0.1-0.3v-0.1c0-0.1,0-0.3,0.1-0.4s0.2-0.2,0.3-0.3s0.3-0.1,0.4-0.1s0.3,0,0.4,0.1
		s0.2,0.1,0.3,0.3s0.1,0.2,0.1,0.4v0.1c0,0.1,0,0.2-0.1,0.3c-0.1,0.1-0.1,0.2-0.2,0.2c0.1,0.1,0.2,0.2,0.3,0.3s0.1,0.3,0.1,0.4v0
		c0,0.2,0,0.3-0.1,0.4c-0.1,0.1-0.2,0.2-0.3,0.3c-0.1,0.1-0.3,0.1-0.5,0.1S521.9,143.3,521.8,143.2z M522.5,142.9
		c0.1,0,0.1-0.1,0.2-0.2c0-0.1,0.1-0.1,0.1-0.2v0c0-0.1,0-0.2-0.1-0.2c0-0.1-0.1-0.1-0.2-0.2s-0.2-0.1-0.2-0.1c-0.1,0-0.2,0-0.2,0.1
		s-0.1,0.1-0.2,0.2c0,0.1-0.1,0.1-0.1,0.2v0c0,0.1,0,0.2,0.1,0.2c0,0.1,0.1,0.1,0.2,0.2s0.2,0.1,0.2,0.1
		C522.3,142.9,522.4,142.9,522.5,142.9z M522.4,141.6c0.1,0,0.1-0.1,0.1-0.1c0-0.1,0.1-0.1,0.1-0.2v0c0-0.1,0-0.1-0.1-0.2
		c0-0.1-0.1-0.1-0.1-0.1c-0.1,0-0.1,0-0.2,0c-0.1,0-0.1,0-0.2,0c-0.1,0-0.1,0.1-0.1,0.1c0,0.1-0.1,0.1-0.1,0.2v0
		c0,0.1,0,0.2,0.1,0.2c0,0.1,0.1,0.1,0.1,0.1c0.1,0,0.1,0.1,0.2,0.1C522.3,141.6,522.4,141.6,522.4,141.6z"/>
	<path d="M523.7,141.2h0.4v2.9h-0.4V141.2z M524.2,143.2c-0.1-0.1-0.2-0.1-0.2-0.3l0-0.4c0,0.1,0,0.2,0,0.2s0.1,0.1,0.1,0.1
		c0.1,0,0.1,0,0.2,0c0.1,0,0.2,0,0.3-0.1s0.1-0.2,0.1-0.3V142c0-0.1,0-0.3-0.1-0.3s-0.2-0.1-0.3-0.1c-0.1,0-0.2,0-0.2,0
		c-0.1,0-0.1,0.1-0.1,0.1s0,0.1,0,0.2l0-0.4c0.1-0.1,0.1-0.2,0.2-0.3c0.1-0.1,0.2-0.1,0.3-0.1c0.1,0,0.3,0,0.4,0.1
		c0.1,0.1,0.2,0.2,0.2,0.3c0.1,0.1,0.1,0.3,0.1,0.4v0.4c0,0.2,0,0.3-0.1,0.4s-0.1,0.2-0.2,0.3s-0.2,0.1-0.4,0.1
		C524.4,143.3,524.3,143.3,524.2,143.2z"/>
	<path d="M525.8,141.2h0.4v2h-0.4V141.2z M527,142c0-0.1,0-0.3-0.1-0.3s-0.2-0.1-0.3-0.1c-0.1,0-0.2,0-0.3,0.1
		c-0.1,0.1-0.1,0.2-0.1,0.3l0-0.4c0.1-0.1,0.1-0.2,0.2-0.3c0.1-0.1,0.2-0.1,0.3-0.1c0.1,0,0.3,0,0.4,0.1c0.1,0.1,0.2,0.2,0.2,0.3
		s0.1,0.3,0.1,0.4v1.2H527V142z M528.2,142c0-0.1,0-0.3-0.1-0.3s-0.2-0.1-0.3-0.1c-0.1,0-0.2,0-0.3,0.1c-0.1,0.1-0.1,0.2-0.1,0.3
		l-0.1-0.4c0.1-0.1,0.1-0.2,0.3-0.3c0.1-0.1,0.2-0.1,0.3-0.1c0.1,0,0.3,0,0.4,0.1s0.2,0.2,0.2,0.3c0.1,0.1,0.1,0.3,0.1,0.4v1.2h-0.4
		V142z"/>
</g>
<g>
	<path d="M191.5,193.4h2v0.4h-2V193.4z M192.3,193.7h0.4v2.6h-0.4V193.7z"/>
	<path d="M193.9,196.2c-0.1-0.1-0.2-0.2-0.3-0.3c-0.1-0.1-0.1-0.3-0.1-0.5v-0.3c0-0.2,0-0.3,0.1-0.5c0.1-0.1,0.2-0.2,0.3-0.3
		s0.3-0.1,0.5-0.1s0.3,0,0.5,0.1s0.2,0.2,0.3,0.3c0.1,0.1,0.1,0.3,0.1,0.5v0.3c0,0.2,0,0.3-0.1,0.5c-0.1,0.1-0.2,0.2-0.3,0.3
		s-0.3,0.1-0.5,0.1S194,196.3,193.9,196.2z M194.7,195.8c0.1-0.1,0.1-0.2,0.1-0.4v-0.3c0-0.2,0-0.3-0.1-0.4s-0.2-0.1-0.3-0.1
		c-0.1,0-0.2,0-0.3,0.1s-0.1,0.2-0.1,0.4v0.3c0,0.2,0,0.3,0.1,0.4s0.2,0.1,0.3,0.1C194.5,195.9,194.6,195.9,194.7,195.8z"/>
	<path d="M196,196.2c-0.1-0.1-0.2-0.2-0.2-0.3s-0.1-0.3-0.1-0.4V195c0-0.2,0-0.3,0.1-0.4c0.1-0.1,0.1-0.2,0.2-0.3
		c0.1-0.1,0.2-0.1,0.4-0.1c0.1,0,0.2,0,0.3,0.1s0.2,0.2,0.2,0.3l0,0.4c0-0.1,0-0.2,0-0.2s-0.1-0.1-0.1-0.1c-0.1,0-0.1,0-0.2,0
		c-0.1,0-0.2,0-0.3,0.1s-0.1,0.2-0.1,0.3v0.4c0,0.1,0,0.3,0.1,0.3s0.2,0.1,0.3,0.1c0.1,0,0.2,0,0.2,0c0.1,0,0.1-0.1,0.1-0.1
		s0-0.1,0-0.2l0,0.4c0,0.1-0.1,0.2-0.2,0.3s-0.2,0.1-0.3,0.1C196.2,196.3,196.1,196.3,196,196.2z M196.9,193.4h0.4v2.8h-0.4V193.4z"
		/>
	<path d="M198,196.2c-0.1-0.1-0.2-0.3-0.2-0.5c0-0.2,0.1-0.4,0.2-0.5s0.3-0.2,0.5-0.2h0.6l0,0.3h-0.6c-0.1,0-0.2,0-0.2,0.1
		c-0.1,0-0.1,0.1-0.1,0.2c0,0.1,0,0.2,0.1,0.2s0.2,0.1,0.3,0.1c0.2,0,0.3,0,0.3,0c0.1,0,0.1-0.1,0.1-0.2l0,0.3
		c0,0.1-0.1,0.1-0.1,0.1c-0.1,0-0.1,0.1-0.2,0.1c-0.1,0-0.1,0-0.2,0C198.3,196.3,198.1,196.3,198,196.2z M199,195
		c0-0.1,0-0.2-0.1-0.3c-0.1-0.1-0.2-0.1-0.3-0.1c-0.1,0-0.2,0-0.2,0c-0.1,0-0.1,0.1-0.2,0.1l-0.3-0.2c0.1-0.1,0.2-0.2,0.3-0.2
		c0.1-0.1,0.3-0.1,0.4-0.1c0.2,0,0.3,0,0.4,0.1c0.1,0.1,0.2,0.1,0.3,0.3s0.1,0.2,0.1,0.4v1.3H199V195z"/>
	<path d="M199.7,194.2h0.4l0.6,1.8l-0.2,0.4L199.7,194.2z M201.5,194.2l-0.9,2.5c0,0.1-0.1,0.2-0.1,0.2s-0.1,0.1-0.2,0.1
		s-0.2,0-0.3,0H200v-0.4h0.1c0.1,0,0.1,0,0.2,0c0,0,0.1-0.1,0.1-0.2l0.8-2.3H201.5z"/>
	<path d="M204,194.9L204,194.9c0,0.1-0.1,0.2-0.1,0.2c-0.1,0-0.1,0-0.2,0c-0.1,0-0.3,0-0.4-0.1c-0.1-0.1-0.2-0.2-0.2-0.3
		s-0.1-0.3-0.1-0.4v0c0-0.2,0-0.3,0.1-0.5c0.1-0.1,0.2-0.2,0.3-0.3s0.3-0.1,0.4-0.1c0.2,0,0.3,0,0.4,0.1c0.1,0.1,0.2,0.2,0.3,0.3
		c0.1,0.1,0.1,0.3,0.1,0.5v0c0,0.1,0,0.2,0,0.3c0,0.1-0.1,0.2-0.1,0.3c0,0,0,0,0,0.1s0,0,0,0.1l-0.6,1.2h-0.4L204,194.9z M204,194.6
		c0.1-0.1,0.1-0.2,0.1-0.4v0c0-0.1,0-0.3-0.1-0.3s-0.2-0.1-0.3-0.1c-0.1,0-0.2,0-0.3,0.1s-0.1,0.2-0.1,0.3v0c0,0.2,0,0.3,0.1,0.4
		s0.2,0.1,0.3,0.1C203.8,194.7,203.9,194.7,204,194.6z"/>
	<path d="M205,194.2h0.4v2.9H205V194.2z M205.6,196.2c-0.1-0.1-0.2-0.1-0.2-0.3l0-0.4c0,0.1,0,0.2,0,0.2s0.1,0.1,0.1,0.1
		c0.1,0,0.1,0,0.2,0c0.1,0,0.2,0,0.3-0.1s0.1-0.2,0.1-0.3V195c0-0.1,0-0.3-0.1-0.3s-0.2-0.1-0.3-0.1c-0.1,0-0.2,0-0.2,0
		c-0.1,0-0.1,0.1-0.1,0.1s0,0.1,0,0.2l0-0.4c0.1-0.1,0.1-0.2,0.2-0.3c0.1-0.1,0.2-0.1,0.3-0.1c0.1,0,0.3,0,0.4,0.1
		c0.1,0.1,0.2,0.2,0.2,0.3c0.1,0.1,0.1,0.3,0.1,0.4v0.4c0,0.2,0,0.3-0.1,0.4s-0.1,0.2-0.2,0.3s-0.2,0.1-0.4,0.1
		C205.8,196.3,205.7,196.3,205.6,196.2z"/>
	<path d="M207.2,194.2h0.4v2h-0.4V194.2z M208.4,195c0-0.1,0-0.3-0.1-0.3s-0.2-0.1-0.3-0.1c-0.1,0-0.2,0-0.3,0.1
		c-0.1,0.1-0.1,0.2-0.1,0.3l0-0.4c0.1-0.1,0.1-0.2,0.2-0.3c0.1-0.1,0.2-0.1,0.3-0.1c0.1,0,0.3,0,0.4,0.1c0.1,0.1,0.2,0.2,0.2,0.3
		s0.1,0.3,0.1,0.4v1.2h-0.4V195z M209.6,195c0-0.1,0-0.3-0.1-0.3s-0.2-0.1-0.3-0.1c-0.1,0-0.2,0-0.3,0.1c-0.1,0.1-0.1,0.2-0.1,0.3
		l-0.1-0.4c0.1-0.1,0.1-0.2,0.3-0.3c0.1-0.1,0.2-0.1,0.3-0.1c0.1,0,0.3,0,0.4,0.1s0.2,0.2,0.2,0.3c0.1,0.1,0.1,0.3,0.1,0.4v1.2h-0.4
		V195z"/>
</g>
<g>
	<path class="st15" d="M175.9,175.1h0.7v0.7h-0.7V175.1z M175.9,171h0.7v3.6h-0.7V171z"/>
	<path class="st15" d="M177.8,175.1h0.7v0.7h-0.7V175.1z M177.8,171h0.7v3.6h-0.7V171z"/>
	<path class="st15" d="M179.7,175.1h0.7v0.7h-0.7V175.1z M179.7,171h0.7v3.6h-0.7V171z"/>
</g>
<g>
	<path class="st16" d="M154.8,139.1h1v0.8h-1V139.1z M154.8,134.2h0.9v4.3h-0.9V134.2z"/>
	<path class="st16" d="M157.3,139.1h1v0.8h-1V139.1z M157.3,134.2h0.9v4.3h-0.9V134.2z"/>
</g>
<g>
	<path class="st16" d="M314.8,143.1h1v0.8h-1V143.1z M314.8,138.2h0.9v4.3h-0.9V138.2z"/>
	<path class="st16" d="M317.3,143.1h1v0.8h-1V143.1z M317.3,138.2h0.9v4.3h-0.9V138.2z"/>
</g>
<g>
	<path class="st16" d="M171.8,156.1h1v0.8h-1V156.1z M171.8,151.2h0.9v4.3h-0.9V151.2z"/>
	<path class="st16" d="M174.3,156.1h1v0.8h-1V156.1z M174.3,151.2h0.9v4.3h-0.9V151.2z"/>
</g>
<g>
	<path class="st17" d="M181.3,197.1h0.8v0.7h-0.8V197.1z M181.3,193h0.8v3.6h-0.8V193z"/>
</g>
<g>
	<path class="st17" d="M477.3,144.1h0.8v0.7h-0.8V144.1z M477.3,140h0.8v3.6h-0.8V140z"/>
</g>
<g>
	<path d="M265.4,85.7h6v1.1h-6V85.7z M267.8,86.4h1.2v7.8h-1.2V86.4z"/>
	<path d="M272.6,94c-0.4-0.2-0.7-0.5-0.9-0.9s-0.3-0.9-0.3-1.4v-1c0-0.6,0.1-1,0.3-1.4s0.5-0.7,0.9-0.9s0.8-0.3,1.4-0.3
		s1,0.1,1.4,0.3s0.7,0.5,0.9,0.9s0.3,0.9,0.3,1.4v1c0,0.6-0.1,1-0.3,1.4s-0.5,0.7-0.9,0.9s-0.8,0.3-1.4,0.3S272.9,94.2,272.6,94z
		 M274.9,92.8c0.2-0.3,0.3-0.6,0.3-1.1v-1c0-0.5-0.1-0.8-0.3-1.1s-0.6-0.4-1-0.4s-0.7,0.1-1,0.4s-0.3,0.6-0.3,1.1v1
		c0,0.5,0.1,0.8,0.3,1.1s0.6,0.4,1,0.4S274.7,93.1,274.9,92.8z"/>
	<path d="M278.1,88.2h1.2v6.1h-1.2V88.2z M281.8,90.5c0-0.4-0.1-0.8-0.3-1s-0.5-0.4-0.9-0.4c-0.4,0-0.7,0.1-0.9,0.3
		s-0.3,0.5-0.3,0.9l-0.1-1.2c0.2-0.4,0.4-0.7,0.7-0.8s0.6-0.3,1-0.3c0.4,0,0.8,0.1,1.1,0.3s0.5,0.5,0.7,0.8s0.2,0.8,0.2,1.3v3.7
		h-1.2V90.5z M285.4,90.5c0-0.4-0.1-0.8-0.3-1s-0.5-0.4-0.9-0.4c-0.4,0-0.7,0.1-0.9,0.3s-0.3,0.5-0.3,1l-0.2-1.2
		c0.2-0.4,0.4-0.7,0.8-0.9s0.7-0.3,1-0.3c0.4,0,0.8,0.1,1.1,0.3s0.5,0.5,0.7,0.8s0.2,0.8,0.2,1.3v3.7h-1.2V90.5z"/>
	<path d="M289.4,94c-0.4-0.2-0.7-0.5-0.9-0.9s-0.3-0.9-0.3-1.4v-1c0-0.6,0.1-1,0.3-1.4s0.5-0.7,0.9-0.9s0.8-0.3,1.4-0.3
		s1,0.1,1.4,0.3s0.7,0.5,0.9,0.9s0.3,0.9,0.3,1.4v1c0,0.6-0.1,1-0.3,1.4s-0.5,0.7-0.9,0.9s-0.8,0.3-1.4,0.3S289.8,94.2,289.4,94z
		 M291.7,92.8c0.2-0.3,0.3-0.6,0.3-1.1v-1c0-0.5-0.1-0.8-0.3-1.1s-0.6-0.4-1-0.4s-0.7,0.1-1,0.4s-0.3,0.6-0.3,1.1v1
		c0,0.5,0.1,0.8,0.3,1.1s0.6,0.4,1,0.4S291.5,93.1,291.7,92.8z"/>
	<path d="M294.9,88.2h1.2v6.1h-1.2V88.2z M297.9,89.3c-0.2-0.1-0.3-0.1-0.6-0.1c-0.4,0-0.7,0.1-0.9,0.3s-0.3,0.5-0.3,0.9l-0.1-1.2
		c0.2-0.4,0.4-0.6,0.7-0.8s0.6-0.3,1-0.3c0.3,0,0.5,0,0.8,0.1s0.4,0.2,0.6,0.4l-0.8,1.1C298.2,89.5,298,89.4,297.9,89.3z"/>
	<path d="M300.1,88.2h1.2v6.1h-1.2V88.2z M303,89.3c-0.2-0.1-0.3-0.1-0.6-0.1c-0.4,0-0.7,0.1-0.9,0.3s-0.3,0.5-0.3,0.9l-0.1-1.2
		c0.2-0.4,0.4-0.6,0.7-0.8s0.6-0.3,1-0.3c0.3,0,0.5,0,0.8,0.1s0.4,0.2,0.6,0.4l-0.8,1.1C303.3,89.5,303.2,89.4,303,89.3z"/>
	<path d="M306,94c-0.4-0.2-0.7-0.5-0.9-0.9s-0.3-0.9-0.3-1.4v-1c0-0.6,0.1-1,0.3-1.4s0.5-0.7,0.9-0.9s0.8-0.3,1.4-0.3s1,0.1,1.4,0.3
		s0.7,0.5,0.9,0.9s0.3,0.9,0.3,1.4v1c0,0.6-0.1,1-0.3,1.4s-0.5,0.7-0.9,0.9s-0.8,0.3-1.4,0.3S306.4,94.2,306,94z M308.4,92.8
		c0.2-0.3,0.3-0.6,0.3-1.1v-1c0-0.5-0.1-0.8-0.3-1.1s-0.6-0.4-1-0.4s-0.7,0.1-1,0.4s-0.3,0.6-0.3,1.1v1c0,0.5,0.1,0.8,0.3,1.1
		s0.6,0.4,1,0.4S308.1,93.1,308.4,92.8z"/>
	<path d="M310.8,88.2h1.2l1.1,4.3l1.5-4.3h0.8l1.5,4.3l1.1-4.3h1.2l-1.9,6.1h-0.9l-1.5-4.2l-1.5,4.2h-0.9L310.8,88.2z"/>
	<path d="M322.8,85.7h6v1.1h-6V85.7z M325.2,86.4h1.2v7.8h-1.2V86.4z"/>
	<path d="M329.4,93.9c-0.4-0.3-0.6-0.8-0.6-1.4c0-0.6,0.2-1.1,0.5-1.4s0.9-0.5,1.5-0.5h1.7l0.1,1h-1.8c-0.3,0-0.5,0.1-0.7,0.2
		s-0.2,0.4-0.2,0.6c0,0.3,0.1,0.5,0.3,0.7s0.5,0.2,0.9,0.2c0.5,0,0.8,0,1-0.1s0.3-0.2,0.3-0.5l0.1,0.9c-0.1,0.2-0.2,0.3-0.4,0.4
		s-0.3,0.2-0.5,0.2s-0.4,0.1-0.7,0.1C330.4,94.3,329.8,94.2,329.4,93.9z M332.6,90.4c0-0.4-0.1-0.7-0.3-0.9s-0.5-0.3-0.9-0.3
		c-0.2,0-0.5,0-0.7,0.1s-0.4,0.2-0.6,0.3l-0.9-0.6c0.2-0.3,0.5-0.5,0.9-0.6s0.8-0.2,1.3-0.2c0.5,0,0.9,0.1,1.3,0.3s0.6,0.4,0.8,0.8
		s0.3,0.7,0.3,1.2v3.9h-1.1V90.4z"/>
	<path d="M336.7,94.2c-0.3-0.1-0.6-0.2-0.9-0.3s-0.5-0.3-0.8-0.5l0.7-0.9c0.3,0.2,0.7,0.4,1,0.6s0.6,0.2,1,0.2
		c0.5,0,0.8-0.1,1.1-0.2s0.4-0.4,0.4-0.7c0-0.2-0.1-0.3-0.2-0.4s-0.3-0.2-0.5-0.2s-0.5-0.1-0.8-0.1c0,0-0.1,0-0.1,0s-0.1,0-0.1,0
		c0,0,0,0,0,0s0,0,0,0c-0.4,0-0.7-0.1-1-0.2s-0.5-0.2-0.7-0.5s-0.3-0.6-0.3-1s0.1-0.8,0.3-1.1s0.4-0.5,0.8-0.6s0.8-0.2,1.3-0.2
		c0.3,0,0.6,0,0.9,0.1s0.6,0.1,0.8,0.3s0.5,0.3,0.8,0.4l-0.7,0.9c-0.3-0.2-0.6-0.3-0.9-0.4s-0.6-0.1-0.9-0.1c-0.4,0-0.7,0.1-0.9,0.2
		s-0.3,0.3-0.3,0.6c0,0.2,0.1,0.3,0.2,0.4s0.3,0.1,0.4,0.2s0.4,0.1,0.8,0.1c0,0,0,0,0.1,0s0.1,0,0.1,0c0,0,0,0,0,0s0,0,0,0
		c0.4,0,0.8,0.1,1.1,0.2s0.5,0.3,0.8,0.5s0.3,0.6,0.3,1.1c0,0.4-0.1,0.8-0.3,1.1s-0.5,0.5-0.8,0.6s-0.9,0.2-1.4,0.2
		C337.4,94.3,337,94.3,336.7,94.2z"/>
	<path d="M341.8,85.7h1.2v8.5h-1.2V85.7z M342.3,91.9l3.1-3.8h1.4l-4.6,5.2L342.3,91.9z M343.7,90.7l0.8-0.8l2.7,4.3h-1.3
		L343.7,90.7z"/>
	<path d="M349.3,94.2c-0.3-0.1-0.6-0.2-0.9-0.3s-0.5-0.3-0.8-0.5l0.7-0.9c0.3,0.2,0.7,0.4,1,0.6s0.6,0.2,1,0.2
		c0.5,0,0.8-0.1,1.1-0.2s0.4-0.4,0.4-0.7c0-0.2-0.1-0.3-0.2-0.4s-0.3-0.2-0.5-0.2s-0.5-0.1-0.8-0.1c0,0-0.1,0-0.1,0s-0.1,0-0.1,0
		c0,0,0,0,0,0s0,0,0,0c-0.4,0-0.7-0.1-1-0.2s-0.5-0.2-0.7-0.5s-0.3-0.6-0.3-1s0.1-0.8,0.3-1.1s0.4-0.5,0.8-0.6s0.8-0.2,1.3-0.2
		c0.3,0,0.6,0,0.9,0.1s0.6,0.1,0.8,0.3s0.5,0.3,0.8,0.4l-0.7,0.9c-0.3-0.2-0.6-0.3-0.9-0.4s-0.6-0.1-0.9-0.1c-0.4,0-0.7,0.1-0.9,0.2
		s-0.3,0.3-0.3,0.6c0,0.2,0.1,0.3,0.2,0.4s0.3,0.1,0.4,0.2s0.4,0.1,0.8,0.1c0,0,0,0,0.1,0s0.1,0,0.1,0c0,0,0,0,0,0s0,0,0,0
		c0.4,0,0.8,0.1,1.1,0.2s0.5,0.3,0.8,0.5s0.3,0.6,0.3,1.1c0,0.4-0.1,0.8-0.3,1.1s-0.5,0.5-0.8,0.6s-0.9,0.2-1.4,0.2
		C349.9,94.3,349.6,94.3,349.3,94.2z"/>
	<path d="M354.2,88.1h1.3v1.3h-1.3V88.1z M354.2,93h1.3v1.3h-1.3V93z"/>
</g>
<g>
	<path d="M424,94.2c-0.4-0.1-0.7-0.2-1-0.4s-0.6-0.4-0.9-0.6l0.7-0.9c0.3,0.3,0.7,0.5,1.1,0.6s0.8,0.2,1.3,0.2
		c0.6,0,1.1-0.1,1.4-0.3s0.5-0.6,0.5-1v0c0-0.3-0.1-0.5-0.2-0.7s-0.4-0.3-0.6-0.4s-0.6-0.2-0.9-0.2c0,0,0,0,0,0s0,0,0,0l-0.1,0
		c-0.6-0.1-1-0.2-1.4-0.3s-0.7-0.3-0.9-0.7s-0.4-0.8-0.4-1.4v0c0-0.5,0.1-1,0.4-1.4s0.6-0.7,1-0.9s1-0.3,1.6-0.3
		c0.3,0,0.6,0,0.9,0.1s0.6,0.2,0.9,0.3s0.6,0.3,0.8,0.5l-0.7,0.9c-0.3-0.2-0.6-0.4-1-0.5s-0.6-0.2-1-0.2c-0.6,0-1,0.1-1.4,0.3
		s-0.5,0.6-0.5,1v0c0,0.3,0.1,0.5,0.2,0.7s0.4,0.3,0.6,0.4s0.6,0.2,1,0.2c0,0,0,0,0,0s0,0,0,0c0,0,0,0,0.1,0s0,0,0.1,0
		c0.5,0.1,0.9,0.2,1.3,0.4s0.6,0.4,0.9,0.7s0.3,0.8,0.3,1.3v0c0,0.5-0.1,1-0.4,1.3s-0.6,0.7-1.1,0.8s-1,0.3-1.7,0.3
		C424.7,94.3,424.3,94.3,424,94.2z"/>
	<path d="M430.9,94c-0.4-0.2-0.7-0.5-0.9-0.9s-0.3-0.9-0.3-1.4v-1c0-0.6,0.1-1,0.3-1.4s0.5-0.7,0.9-0.9s0.9-0.3,1.4-0.3
		c0.3,0,0.6,0,0.9,0.1s0.5,0.2,0.8,0.3s0.4,0.3,0.6,0.5l-0.9,0.8c-0.2-0.2-0.4-0.3-0.6-0.5s-0.5-0.2-0.7-0.2c-0.5,0-0.8,0.1-1.1,0.4
		s-0.4,0.6-0.4,1.1v1c0,0.5,0.1,0.9,0.4,1.1s0.6,0.4,1.1,0.4c0.3,0,0.5-0.1,0.7-0.2s0.4-0.3,0.6-0.5l0.9,0.8
		c-0.2,0.2-0.3,0.4-0.6,0.5s-0.5,0.3-0.8,0.3s-0.6,0.1-0.9,0.1C431.7,94.3,431.3,94.2,430.9,94z"/>
	<path d="M435.8,85.7h1.2v8.5h-1.2V85.7z M439.5,90.5c0-0.4-0.1-0.8-0.3-1s-0.5-0.4-0.9-0.4c-0.4,0-0.7,0.1-0.9,0.3S437,90,437,90.4
		l-0.1-1.2c0.2-0.4,0.4-0.6,0.7-0.8s0.6-0.3,1-0.3c0.7,0,1.2,0.2,1.5,0.6s0.5,1,0.5,1.8v3.7h-1.2V90.5z"/>
	<path d="M443.6,94c-0.4-0.2-0.7-0.5-0.9-0.9s-0.3-0.9-0.3-1.5v-0.7c0-0.6,0.1-1.1,0.3-1.5s0.5-0.8,0.9-1s0.8-0.3,1.4-0.3
		c0.5,0,0.9,0.1,1.3,0.4s0.6,0.6,0.8,1.1s0.3,1.1,0.3,1.7v0.4h-4.1v-1h3c0-0.5-0.2-0.9-0.4-1.2s-0.5-0.4-0.9-0.4
		c-0.5,0-0.8,0.1-1.1,0.4s-0.4,0.7-0.4,1.3v0.8c0,0.5,0.1,0.9,0.4,1.2s0.6,0.4,1.1,0.4c0.2,0,0.5,0,0.7-0.1s0.5-0.2,0.6-0.4l0.8,0.8
		c-0.3,0.3-0.6,0.5-1,0.7s-0.8,0.2-1.1,0.2C444.4,94.3,444,94.2,443.6,94z"/>
	<path d="M449.7,94c-0.3-0.2-0.6-0.5-0.7-0.8s-0.2-0.8-0.2-1.3v-1.3c0-0.5,0.1-1,0.2-1.3s0.4-0.7,0.7-0.8s0.7-0.3,1.1-0.3
		c0.4,0,0.7,0.1,1,0.3s0.5,0.5,0.7,0.8l-0.1,1.2c0-0.3,0-0.5-0.1-0.7s-0.2-0.3-0.4-0.4s-0.4-0.1-0.6-0.1c-0.4,0-0.7,0.1-0.9,0.4
		s-0.3,0.6-0.3,1v1.3c0,0.4,0.1,0.8,0.3,1s0.5,0.4,0.9,0.4c0.3,0,0.5,0,0.6-0.1s0.3-0.2,0.4-0.4s0.1-0.4,0.1-0.7l0.1,1.3
		c-0.1,0.3-0.3,0.6-0.6,0.8s-0.6,0.3-1,0.3C450.4,94.3,450.1,94.2,449.7,94z M452.4,85.7h1.2v8.5h-1.2V85.7z"/>
	<path d="M456.6,91.8c0,0.4,0.1,0.8,0.3,1s0.5,0.3,0.9,0.3c0.4,0,0.7-0.1,0.9-0.3s0.3-0.5,0.3-0.9l0.1,1.3c-0.1,0.3-0.3,0.6-0.6,0.8
		s-0.6,0.3-1,0.3c-0.7,0-1.2-0.2-1.6-0.6s-0.5-1-0.5-1.8v-3.7h1.2V91.8z M459.1,88.2h1.2v6.1h-1.2V88.2z"/>
	<path d="M463.3,92.7c0,0.1,0,0.3,0.1,0.3s0.2,0.1,0.3,0.1h0.6v1.1h-0.7c-0.5,0-0.8-0.1-1.1-0.4s-0.4-0.7-0.4-1.2v-6.9h1.2V92.7z"/>
	<path d="M466.6,94c-0.4-0.2-0.7-0.5-0.9-0.9s-0.3-0.9-0.3-1.5v-0.7c0-0.6,0.1-1.1,0.3-1.5s0.5-0.8,0.9-1s0.8-0.3,1.4-0.3
		c0.5,0,0.9,0.1,1.3,0.4s0.6,0.6,0.8,1.1s0.3,1.1,0.3,1.7v0.4h-4.1v-1h3c0-0.5-0.2-0.9-0.4-1.2s-0.5-0.4-0.9-0.4
		c-0.5,0-0.8,0.1-1.1,0.4s-0.4,0.7-0.4,1.3v0.8c0,0.5,0.1,0.9,0.4,1.2s0.6,0.4,1.1,0.4c0.2,0,0.5,0,0.7-0.1s0.5-0.2,0.6-0.4l0.8,0.8
		c-0.3,0.3-0.6,0.5-1,0.7s-0.8,0.2-1.1,0.2C467.5,94.3,467,94.2,466.6,94z"/>
	<path d="M472.8,94c-0.3-0.2-0.6-0.5-0.7-0.8s-0.2-0.8-0.2-1.3v-1.3c0-0.5,0.1-1,0.2-1.3s0.4-0.7,0.7-0.8s0.7-0.3,1.1-0.3
		c0.4,0,0.7,0.1,1,0.3s0.5,0.5,0.7,0.8l-0.1,1.2c0-0.3,0-0.5-0.1-0.7s-0.2-0.3-0.4-0.4s-0.4-0.1-0.6-0.1c-0.4,0-0.7,0.1-0.9,0.4
		s-0.3,0.6-0.3,1v1.3c0,0.4,0.1,0.8,0.3,1s0.5,0.4,0.9,0.4c0.3,0,0.5,0,0.6-0.1s0.3-0.2,0.4-0.4s0.1-0.4,0.1-0.7l0.1,1.3
		c-0.1,0.3-0.3,0.6-0.6,0.8s-0.6,0.3-1,0.3C473.5,94.3,473.1,94.2,472.8,94z M475.5,85.7h1.2v8.5h-1.2V85.7z"/>
	<path d="M480.6,85.7h6v1.1h-6V85.7z M483,86.4h1.2v7.8H483V86.4z"/>
	<path d="M487.3,93.9c-0.4-0.3-0.6-0.8-0.6-1.4c0-0.6,0.2-1.1,0.5-1.4s0.9-0.5,1.5-0.5h1.7l0.1,1h-1.8c-0.3,0-0.5,0.1-0.7,0.2
		s-0.2,0.4-0.2,0.6c0,0.3,0.1,0.5,0.3,0.7s0.5,0.2,0.9,0.2c0.5,0,0.8,0,1-0.1s0.3-0.2,0.3-0.5l0.1,0.9c-0.1,0.2-0.2,0.3-0.4,0.4
		s-0.3,0.2-0.5,0.2s-0.4,0.1-0.7,0.1C488.2,94.3,487.6,94.2,487.3,93.9z M490.4,90.4c0-0.4-0.1-0.7-0.3-0.9s-0.5-0.3-0.9-0.3
		c-0.2,0-0.5,0-0.7,0.1s-0.4,0.2-0.6,0.3l-0.9-0.6c0.2-0.3,0.5-0.5,0.9-0.6s0.8-0.2,1.3-0.2c0.5,0,0.9,0.1,1.3,0.3s0.6,0.4,0.8,0.8
		s0.3,0.7,0.3,1.2v3.9h-1.1V90.4z"/>
	<path d="M494.5,94.2c-0.3-0.1-0.6-0.2-0.9-0.3s-0.5-0.3-0.8-0.5l0.7-0.9c0.3,0.2,0.7,0.4,1,0.6s0.6,0.2,1,0.2
		c0.5,0,0.8-0.1,1.1-0.2s0.4-0.4,0.4-0.7c0-0.2-0.1-0.3-0.2-0.4s-0.3-0.2-0.5-0.2s-0.5-0.1-0.8-0.1c0,0-0.1,0-0.1,0s-0.1,0-0.1,0
		c0,0,0,0,0,0s0,0,0,0c-0.4,0-0.7-0.1-1-0.2s-0.5-0.2-0.7-0.5s-0.3-0.6-0.3-1s0.1-0.8,0.3-1.1s0.4-0.5,0.8-0.6s0.8-0.2,1.3-0.2
		c0.3,0,0.6,0,0.9,0.1s0.6,0.1,0.8,0.3s0.5,0.3,0.8,0.4l-0.7,0.9c-0.3-0.2-0.6-0.3-0.9-0.4s-0.6-0.1-0.9-0.1c-0.4,0-0.7,0.1-0.9,0.2
		s-0.3,0.3-0.3,0.6c0,0.2,0.1,0.3,0.2,0.4s0.3,0.1,0.4,0.2s0.4,0.1,0.8,0.1c0,0,0,0,0.1,0s0.1,0,0.1,0c0,0,0,0,0,0s0,0,0,0
		c0.4,0,0.8,0.1,1.1,0.2s0.5,0.3,0.8,0.5s0.3,0.6,0.3,1.1c0,0.4-0.1,0.8-0.3,1.1s-0.5,0.5-0.8,0.6s-0.9,0.2-1.4,0.2
		C495.2,94.3,494.8,94.3,494.5,94.2z"/>
	<path d="M499.6,85.7h1.2v8.5h-1.2V85.7z M500.1,91.9l3.1-3.8h1.4l-4.6,5.2L500.1,91.9z M501.5,90.7l0.8-0.8l2.7,4.3h-1.3
		L501.5,90.7z"/>
	<path d="M507.1,94.2c-0.3-0.1-0.6-0.2-0.9-0.3s-0.5-0.3-0.8-0.5l0.7-0.9c0.3,0.2,0.7,0.4,1,0.6s0.6,0.2,1,0.2
		c0.5,0,0.8-0.1,1.1-0.2s0.4-0.4,0.4-0.7c0-0.2-0.1-0.3-0.2-0.4s-0.3-0.2-0.5-0.2s-0.5-0.1-0.8-0.1c0,0-0.1,0-0.1,0s-0.1,0-0.1,0
		c0,0,0,0,0,0s0,0,0,0c-0.4,0-0.7-0.1-1-0.2s-0.5-0.2-0.7-0.5s-0.3-0.6-0.3-1s0.1-0.8,0.3-1.1s0.4-0.5,0.8-0.6s0.8-0.2,1.3-0.2
		c0.3,0,0.6,0,0.9,0.1s0.6,0.1,0.8,0.3s0.5,0.3,0.8,0.4l-0.7,0.9c-0.3-0.2-0.6-0.3-0.9-0.4s-0.6-0.1-0.9-0.1c-0.4,0-0.7,0.1-0.9,0.2
		s-0.3,0.3-0.3,0.6c0,0.2,0.1,0.3,0.2,0.4s0.3,0.1,0.4,0.2s0.4,0.1,0.8,0.1c0,0,0,0,0.1,0s0.1,0,0.1,0c0,0,0,0,0,0s0,0,0,0
		c0.4,0,0.8,0.1,1.1,0.2s0.5,0.3,0.8,0.5s0.3,0.6,0.3,1.1c0,0.4-0.1,0.8-0.3,1.1s-0.5,0.5-0.8,0.6s-0.9,0.2-1.4,0.2
		C507.7,94.3,507.4,94.3,507.1,94.2z"/>
	<path d="M512,88.1h1.3v1.3H512V88.1z M512,93h1.3v1.3H512V93z"/>
</g>
<path class="st15" d="M376.5,144L376.5,144c-1.4,0-2.5-1.1-2.5-2.5l0,0c0-1.4,1.1-2.5,2.5-2.5l0,0c1.4,0,2.5,1.1,2.5,2.5l0,0
	C379,142.9,377.9,144,376.5,144z"/>
<path class="st15" d="M533.5,145L533.5,145c-1.4,0-2.5-1.1-2.5-2.5l0,0c0-1.4,1.1-2.5,2.5-2.5l0,0c1.4,0,2.5,1.1,2.5,2.5l0,0
	C536,143.9,534.9,145,533.5,145z"/>
<g>
	<path class="st1" d="M139.1,250.3h0.7l2.1,5.7H141l-1.6-4.6l-1.6,4.6H137L139.1,250.3z M138,253.9h3v0.8h-3V253.9z"/>
	<path class="st1" d="M143.2,255.8c-0.2-0.1-0.4-0.3-0.5-0.6c-0.1-0.2-0.2-0.5-0.2-0.9v-0.9c0-0.3,0.1-0.6,0.2-0.9
		c0.1-0.2,0.3-0.4,0.5-0.6c0.2-0.1,0.4-0.2,0.7-0.2c0.2,0,0.5,0.1,0.7,0.2s0.4,0.3,0.5,0.5l-0.1,0.8c0-0.2,0-0.3-0.1-0.4
		c-0.1-0.1-0.2-0.2-0.3-0.3c-0.1-0.1-0.3-0.1-0.4-0.1c-0.3,0-0.5,0.1-0.6,0.2s-0.2,0.4-0.2,0.7v0.9c0,0.3,0.1,0.5,0.2,0.7
		s0.3,0.2,0.6,0.2c0.2,0,0.3,0,0.4-0.1c0.1-0.1,0.2-0.2,0.3-0.3s0.1-0.3,0.1-0.4l0.1,0.9c-0.1,0.2-0.2,0.4-0.4,0.5
		c-0.2,0.1-0.4,0.2-0.7,0.2C143.6,256,143.4,255.9,143.2,255.8z M144.9,250.3h0.8v5.7h-0.8V250.3z"/>
	<path class="st1" d="M147.5,255.8c-0.2-0.1-0.4-0.3-0.5-0.6c-0.1-0.2-0.2-0.5-0.2-0.9v-0.9c0-0.3,0.1-0.6,0.2-0.9
		c0.1-0.2,0.3-0.4,0.5-0.6c0.2-0.1,0.4-0.2,0.7-0.2c0.2,0,0.5,0.1,0.7,0.2s0.4,0.3,0.5,0.5l-0.1,0.8c0-0.2,0-0.3-0.1-0.4
		c-0.1-0.1-0.2-0.2-0.3-0.3c-0.1-0.1-0.3-0.1-0.4-0.1c-0.3,0-0.5,0.1-0.6,0.2s-0.2,0.4-0.2,0.7v0.9c0,0.3,0.1,0.5,0.2,0.7
		s0.3,0.2,0.6,0.2c0.2,0,0.3,0,0.4-0.1c0.1-0.1,0.2-0.2,0.3-0.3s0.1-0.3,0.1-0.4l0.1,0.9c-0.1,0.2-0.2,0.4-0.4,0.5
		c-0.2,0.1-0.4,0.2-0.7,0.2C147.9,256,147.7,255.9,147.5,255.8z M149.3,250.3h0.8v5.7h-0.8V250.3z"/>
	<path class="st1" d="M153.4,251.9h0.8v4.1h-0.8V251.9z M155.9,253.5c0-0.3-0.1-0.5-0.2-0.7s-0.4-0.2-0.6-0.2
		c-0.3,0-0.5,0.1-0.6,0.2c-0.1,0.1-0.2,0.3-0.2,0.6l-0.1-0.8c0.1-0.2,0.3-0.4,0.5-0.6c0.2-0.1,0.4-0.2,0.7-0.2c0.4,0,0.8,0.1,1,0.4
		c0.2,0.3,0.4,0.7,0.4,1.2v2.5h-0.8V253.5z"/>
	<path class="st1" d="M158.6,255.8c-0.3-0.1-0.5-0.3-0.6-0.6c-0.1-0.3-0.2-0.6-0.2-1v-0.5c0-0.4,0.1-0.7,0.2-1
		c0.1-0.3,0.3-0.5,0.6-0.6c0.3-0.1,0.6-0.2,0.9-0.2c0.3,0,0.6,0.1,0.9,0.3c0.2,0.2,0.4,0.4,0.5,0.7c0.1,0.3,0.2,0.7,0.2,1.2v0.3
		h-2.7v-0.6h2c0-0.3-0.1-0.6-0.3-0.8c-0.1-0.2-0.3-0.3-0.6-0.3c-0.3,0-0.5,0.1-0.7,0.3c-0.2,0.2-0.2,0.5-0.2,0.8v0.5
		c0,0.3,0.1,0.6,0.3,0.8c0.2,0.2,0.4,0.3,0.8,0.3c0.2,0,0.3,0,0.5-0.1c0.2-0.1,0.3-0.2,0.4-0.3l0.5,0.5c-0.2,0.2-0.4,0.3-0.7,0.4
		s-0.5,0.2-0.8,0.2C159.2,256,158.8,255.9,158.6,255.8z"/>
	<path class="st1" d="M161.7,251.9h0.8l0.7,2.9l1-2.9h0.6l1,2.9l0.7-2.9h0.8l-1.2,4.1h-0.6l-1-2.8l-1,2.8h-0.6L161.7,251.9z"/>
	<path class="st1" d="M169.6,250.3h4v0.8h-4V250.3z M171.2,250.7h0.8v5.2h-0.8V250.7z"/>
	<path class="st1" d="M174.1,255.7c-0.2-0.2-0.4-0.5-0.4-0.9c0-0.4,0.1-0.7,0.3-0.9c0.2-0.2,0.6-0.3,1-0.3h1.2l0.1,0.6h-1.2
		c-0.2,0-0.4,0-0.5,0.1c-0.1,0.1-0.2,0.2-0.2,0.4c0,0.2,0.1,0.4,0.2,0.5c0.1,0.1,0.3,0.1,0.6,0.1c0.3,0,0.5,0,0.7-0.1
		c0.1-0.1,0.2-0.2,0.2-0.3l0.1,0.6c-0.1,0.1-0.2,0.2-0.3,0.3c-0.1,0.1-0.2,0.1-0.4,0.2c-0.1,0-0.3,0.1-0.5,0.1
		C174.7,256,174.3,255.9,174.1,255.7z M176.2,253.4c0-0.3-0.1-0.5-0.2-0.6c-0.1-0.1-0.3-0.2-0.6-0.2c-0.2,0-0.3,0-0.5,0.1
		c-0.2,0-0.3,0.1-0.4,0.2l-0.6-0.4c0.2-0.2,0.4-0.3,0.6-0.4c0.3-0.1,0.5-0.2,0.8-0.2c0.3,0,0.6,0.1,0.9,0.2c0.2,0.1,0.4,0.3,0.5,0.5
		c0.1,0.2,0.2,0.5,0.2,0.8v2.6h-0.8V253.4z"/>
	<path class="st1" d="M178.9,255.9c-0.2,0-0.4-0.1-0.6-0.2c-0.2-0.1-0.4-0.2-0.5-0.4l0.5-0.6c0.2,0.2,0.4,0.3,0.7,0.4
		c0.2,0.1,0.4,0.1,0.6,0.1c0.3,0,0.6,0,0.7-0.1c0.2-0.1,0.2-0.2,0.2-0.4c0-0.1,0-0.2-0.1-0.3c-0.1-0.1-0.2-0.1-0.3-0.1
		c-0.1,0-0.3,0-0.5-0.1c0,0,0,0-0.1,0c0,0,0,0-0.1,0c0,0,0,0,0,0c0,0,0,0,0,0c-0.3,0-0.5-0.1-0.7-0.1c-0.2-0.1-0.3-0.2-0.5-0.3
		c-0.1-0.2-0.2-0.4-0.2-0.7c0-0.3,0.1-0.5,0.2-0.7c0.1-0.2,0.3-0.3,0.5-0.4c0.2-0.1,0.5-0.1,0.9-0.1c0.2,0,0.4,0,0.6,0.1
		s0.4,0.1,0.5,0.2c0.2,0.1,0.3,0.2,0.5,0.3l-0.5,0.6c-0.2-0.1-0.4-0.2-0.6-0.3c-0.2-0.1-0.4-0.1-0.6-0.1c-0.3,0-0.5,0-0.6,0.1
		c-0.1,0.1-0.2,0.2-0.2,0.4c0,0.1,0,0.2,0.1,0.2c0.1,0.1,0.2,0.1,0.3,0.1c0.1,0,0.3,0,0.5,0c0,0,0,0,0,0c0,0,0,0,0.1,0c0,0,0,0,0,0
		s0,0,0,0c0.3,0,0.5,0.1,0.7,0.1c0.2,0.1,0.4,0.2,0.5,0.3c0.1,0.2,0.2,0.4,0.2,0.7c0,0.3-0.1,0.5-0.2,0.7s-0.3,0.3-0.6,0.4
		c-0.3,0.1-0.6,0.1-0.9,0.1C179.3,256,179.1,256,178.9,255.9z"/>
	<path class="st1" d="M182.3,250.3h0.8v5.7h-0.8V250.3z M182.6,254.4l2.1-2.5h0.9l-3.1,3.5L182.6,254.4z M183.6,253.6l0.5-0.5
		l1.8,2.9H185L183.6,253.6z"/>
	<path class="st1" d="M191.8,252.9v0.8h-3.2v-0.8H191.8z M190.6,254.9h-0.8v-3.2h0.8V254.9z"/>
</g>
<g>
	<path class="st1" d="M304.1,250.3h0.7l2.1,5.7H306l-1.6-4.6l-1.6,4.6H302L304.1,250.3z M303,253.9h3v0.8h-3V253.9z"/>
	<path class="st1" d="M308.2,255.8c-0.2-0.1-0.4-0.3-0.5-0.6c-0.1-0.2-0.2-0.5-0.2-0.9v-0.9c0-0.3,0.1-0.6,0.2-0.9
		c0.1-0.2,0.3-0.4,0.5-0.6c0.2-0.1,0.4-0.2,0.7-0.2c0.2,0,0.5,0.1,0.7,0.2s0.4,0.3,0.5,0.5l-0.1,0.8c0-0.2,0-0.3-0.1-0.4
		c-0.1-0.1-0.2-0.2-0.3-0.3c-0.1-0.1-0.3-0.1-0.4-0.1c-0.3,0-0.5,0.1-0.6,0.2s-0.2,0.4-0.2,0.7v0.9c0,0.3,0.1,0.5,0.2,0.7
		s0.3,0.2,0.6,0.2c0.2,0,0.3,0,0.4-0.1c0.1-0.1,0.2-0.2,0.3-0.3s0.1-0.3,0.1-0.4l0.1,0.9c-0.1,0.2-0.2,0.4-0.4,0.5
		c-0.2,0.1-0.4,0.2-0.7,0.2C308.6,256,308.4,255.9,308.2,255.8z M309.9,250.3h0.8v5.7h-0.8V250.3z"/>
	<path class="st1" d="M312.5,255.8c-0.2-0.1-0.4-0.3-0.5-0.6c-0.1-0.2-0.2-0.5-0.2-0.9v-0.9c0-0.3,0.1-0.6,0.2-0.9
		c0.1-0.2,0.3-0.4,0.5-0.6c0.2-0.1,0.4-0.2,0.7-0.2c0.2,0,0.5,0.1,0.7,0.2s0.4,0.3,0.5,0.5l-0.1,0.8c0-0.2,0-0.3-0.1-0.4
		c-0.1-0.1-0.2-0.2-0.3-0.3c-0.1-0.1-0.3-0.1-0.4-0.1c-0.3,0-0.5,0.1-0.6,0.2s-0.2,0.4-0.2,0.7v0.9c0,0.3,0.1,0.5,0.2,0.7
		s0.3,0.2,0.6,0.2c0.2,0,0.3,0,0.4-0.1c0.1-0.1,0.2-0.2,0.3-0.3s0.1-0.3,0.1-0.4l0.1,0.9c-0.1,0.2-0.2,0.4-0.4,0.5
		c-0.2,0.1-0.4,0.2-0.7,0.2C312.9,256,312.7,255.9,312.5,255.8z M314.3,250.3h0.8v5.7h-0.8V250.3z"/>
	<path class="st1" d="M318.4,251.9h0.8v4.1h-0.8V251.9z M320.9,253.5c0-0.3-0.1-0.5-0.2-0.7s-0.4-0.2-0.6-0.2
		c-0.3,0-0.5,0.1-0.6,0.2c-0.1,0.1-0.2,0.3-0.2,0.6l-0.1-0.8c0.1-0.2,0.3-0.4,0.5-0.6c0.2-0.1,0.4-0.2,0.7-0.2c0.4,0,0.8,0.1,1,0.4
		c0.2,0.3,0.4,0.7,0.4,1.2v2.5h-0.8V253.5z"/>
	<path class="st1" d="M323.6,255.8c-0.3-0.1-0.5-0.3-0.6-0.6c-0.1-0.3-0.2-0.6-0.2-1v-0.5c0-0.4,0.1-0.7,0.2-1
		c0.1-0.3,0.3-0.5,0.6-0.6c0.3-0.1,0.6-0.2,0.9-0.2c0.3,0,0.6,0.1,0.9,0.3c0.2,0.2,0.4,0.4,0.5,0.7c0.1,0.3,0.2,0.7,0.2,1.2v0.3
		h-2.7v-0.6h2c0-0.3-0.1-0.6-0.3-0.8c-0.1-0.2-0.3-0.3-0.6-0.3c-0.3,0-0.5,0.1-0.7,0.3c-0.2,0.2-0.2,0.5-0.2,0.8v0.5
		c0,0.3,0.1,0.6,0.3,0.8c0.2,0.2,0.4,0.3,0.8,0.3c0.2,0,0.3,0,0.5-0.1c0.2-0.1,0.3-0.2,0.4-0.3l0.5,0.5c-0.2,0.2-0.4,0.3-0.7,0.4
		s-0.5,0.2-0.8,0.2C324.2,256,323.8,255.9,323.6,255.8z"/>
	<path class="st1" d="M326.7,251.9h0.8l0.7,2.9l1-2.9h0.6l1,2.9l0.7-2.9h0.8l-1.2,4.1h-0.6l-1-2.8l-1,2.8h-0.6L326.7,251.9z"/>
	<path class="st1" d="M334.6,250.3h4v0.8h-4V250.3z M336.2,250.7h0.8v5.2h-0.8V250.7z"/>
	<path class="st1" d="M339.1,255.7c-0.2-0.2-0.4-0.5-0.4-0.9c0-0.4,0.1-0.7,0.3-0.9c0.2-0.2,0.6-0.3,1-0.3h1.2l0.1,0.6h-1.2
		c-0.2,0-0.4,0-0.5,0.1c-0.1,0.1-0.2,0.2-0.2,0.4c0,0.2,0.1,0.4,0.2,0.5c0.1,0.1,0.3,0.1,0.6,0.1c0.3,0,0.5,0,0.7-0.1
		c0.1-0.1,0.2-0.2,0.2-0.3l0.1,0.6c-0.1,0.1-0.2,0.2-0.3,0.3c-0.1,0.1-0.2,0.1-0.4,0.2c-0.1,0-0.3,0.1-0.5,0.1
		C339.7,256,339.3,255.9,339.1,255.7z M341.2,253.4c0-0.3-0.1-0.5-0.2-0.6c-0.1-0.1-0.3-0.2-0.6-0.2c-0.2,0-0.3,0-0.5,0.1
		c-0.2,0-0.3,0.1-0.4,0.2l-0.6-0.4c0.2-0.2,0.4-0.3,0.6-0.4c0.3-0.1,0.5-0.2,0.8-0.2c0.3,0,0.6,0.1,0.9,0.2c0.2,0.1,0.4,0.3,0.5,0.5
		c0.1,0.2,0.2,0.5,0.2,0.8v2.6h-0.8V253.4z"/>
	<path class="st1" d="M343.9,255.9c-0.2,0-0.4-0.1-0.6-0.2c-0.2-0.1-0.4-0.2-0.5-0.4l0.5-0.6c0.2,0.2,0.4,0.3,0.7,0.4
		c0.2,0.1,0.4,0.1,0.6,0.1c0.3,0,0.6,0,0.7-0.1c0.2-0.1,0.2-0.2,0.2-0.4c0-0.1,0-0.2-0.1-0.3c-0.1-0.1-0.2-0.1-0.3-0.1
		c-0.1,0-0.3,0-0.5-0.1c0,0,0,0-0.1,0c0,0,0,0-0.1,0c0,0,0,0,0,0c0,0,0,0,0,0c-0.3,0-0.5-0.1-0.7-0.1c-0.2-0.1-0.3-0.2-0.5-0.3
		c-0.1-0.2-0.2-0.4-0.2-0.7c0-0.3,0.1-0.5,0.2-0.7c0.1-0.2,0.3-0.3,0.5-0.4c0.2-0.1,0.5-0.1,0.9-0.1c0.2,0,0.4,0,0.6,0.1
		s0.4,0.1,0.5,0.2c0.2,0.1,0.3,0.2,0.5,0.3l-0.5,0.6c-0.2-0.1-0.4-0.2-0.6-0.3c-0.2-0.1-0.4-0.1-0.6-0.1c-0.3,0-0.5,0-0.6,0.1
		c-0.1,0.1-0.2,0.2-0.2,0.4c0,0.1,0,0.2,0.1,0.2c0.1,0.1,0.2,0.1,0.3,0.1c0.1,0,0.3,0,0.5,0c0,0,0,0,0,0c0,0,0,0,0.1,0c0,0,0,0,0,0
		s0,0,0,0c0.3,0,0.5,0.1,0.7,0.1c0.2,0.1,0.4,0.2,0.5,0.3c0.1,0.2,0.2,0.4,0.2,0.7c0,0.3-0.1,0.5-0.2,0.7s-0.3,0.3-0.6,0.4
		c-0.3,0.1-0.6,0.1-0.9,0.1C344.3,256,344.1,256,343.9,255.9z"/>
	<path class="st1" d="M347.3,250.3h0.8v5.7h-0.8V250.3z M347.6,254.4l2.1-2.5h0.9l-3.1,3.5L347.6,254.4z M348.6,253.6l0.5-0.5
		l1.8,2.9H350L348.6,253.6z"/>
	<path class="st1" d="M356.8,252.9v0.8h-3.2v-0.8H356.8z M355.6,254.9h-0.8v-3.2h0.8V254.9z"/>
</g>
<g>
	<path class="st1" d="M459.5,255.9c-0.2-0.1-0.5-0.1-0.7-0.2c-0.2-0.1-0.4-0.2-0.6-0.4l0.5-0.6c0.2,0.2,0.5,0.3,0.7,0.4
		c0.3,0.1,0.5,0.1,0.8,0.1c0.4,0,0.7-0.1,1-0.2s0.3-0.4,0.3-0.6v0c0-0.2-0.1-0.4-0.2-0.5c-0.1-0.1-0.2-0.2-0.4-0.3
		c-0.2-0.1-0.4-0.1-0.6-0.2c0,0,0,0,0,0c0,0,0,0,0,0l-0.1,0c-0.4-0.1-0.7-0.1-0.9-0.2s-0.4-0.2-0.6-0.4c-0.2-0.2-0.3-0.5-0.3-0.9v0
		c0-0.4,0.1-0.7,0.2-0.9c0.2-0.2,0.4-0.4,0.7-0.6c0.3-0.1,0.7-0.2,1.1-0.2c0.2,0,0.4,0,0.6,0.1c0.2,0,0.4,0.1,0.6,0.2
		c0.2,0.1,0.4,0.2,0.6,0.3l-0.5,0.6c-0.2-0.2-0.4-0.3-0.6-0.4c-0.2-0.1-0.4-0.1-0.6-0.1c-0.4,0-0.7,0.1-0.9,0.2
		c-0.2,0.2-0.3,0.4-0.3,0.7v0c0,0.2,0.1,0.3,0.2,0.5c0.1,0.1,0.2,0.2,0.4,0.2c0.2,0.1,0.4,0.1,0.7,0.2c0,0,0,0,0,0c0,0,0,0,0,0
		c0,0,0,0,0,0c0,0,0,0,0,0c0.3,0.1,0.6,0.2,0.9,0.2c0.2,0.1,0.4,0.3,0.6,0.5c0.2,0.2,0.2,0.5,0.2,0.9v0c0,0.3-0.1,0.6-0.2,0.9
		s-0.4,0.4-0.7,0.6c-0.3,0.1-0.7,0.2-1.1,0.2C460,256,459.7,256,459.5,255.9z"/>
	<path class="st1" d="M464.1,255.8c-0.3-0.1-0.5-0.3-0.6-0.6c-0.1-0.3-0.2-0.6-0.2-1v-0.7c0-0.4,0.1-0.7,0.2-0.9
		c0.1-0.3,0.3-0.5,0.6-0.6s0.6-0.2,0.9-0.2c0.2,0,0.4,0,0.6,0.1c0.2,0.1,0.4,0.1,0.5,0.2c0.1,0.1,0.3,0.2,0.4,0.4l-0.6,0.5
		c-0.1-0.1-0.2-0.2-0.4-0.3c-0.2-0.1-0.3-0.1-0.5-0.1c-0.3,0-0.5,0.1-0.7,0.3c-0.2,0.2-0.3,0.4-0.3,0.7v0.7c0,0.3,0.1,0.6,0.3,0.7
		c0.2,0.2,0.4,0.3,0.7,0.3c0.2,0,0.3,0,0.5-0.1c0.2-0.1,0.3-0.2,0.4-0.3l0.6,0.6c-0.1,0.1-0.2,0.3-0.4,0.3c-0.1,0.1-0.3,0.2-0.5,0.2
		c-0.2,0-0.4,0.1-0.6,0.1C464.6,256,464.3,255.9,464.1,255.8z"/>
	<path class="st1" d="M467.4,250.3h0.8v5.7h-0.8V250.3z M469.8,253.5c0-0.3-0.1-0.5-0.2-0.7s-0.4-0.2-0.6-0.2
		c-0.3,0-0.5,0.1-0.6,0.2c-0.1,0.1-0.2,0.3-0.2,0.6l-0.1-0.8c0.1-0.2,0.3-0.4,0.5-0.6c0.2-0.1,0.4-0.2,0.7-0.2c0.4,0,0.8,0.1,1,0.4
		c0.2,0.3,0.4,0.7,0.4,1.2v2.5h-0.8V253.5z"/>
	<path class="st1" d="M472.5,255.8c-0.3-0.1-0.5-0.3-0.6-0.6c-0.1-0.3-0.2-0.6-0.2-1v-0.5c0-0.4,0.1-0.7,0.2-1
		c0.1-0.3,0.3-0.5,0.6-0.6c0.3-0.1,0.6-0.2,0.9-0.2c0.3,0,0.6,0.1,0.9,0.3c0.2,0.2,0.4,0.4,0.5,0.7c0.1,0.3,0.2,0.7,0.2,1.2v0.3
		h-2.7v-0.6h2c0-0.3-0.1-0.6-0.3-0.8c-0.1-0.2-0.3-0.3-0.6-0.3c-0.3,0-0.5,0.1-0.7,0.3c-0.2,0.2-0.2,0.5-0.2,0.8v0.5
		c0,0.3,0.1,0.6,0.3,0.8c0.2,0.2,0.4,0.3,0.8,0.3c0.2,0,0.3,0,0.5-0.1c0.2-0.1,0.3-0.2,0.4-0.3l0.5,0.5c-0.2,0.2-0.4,0.3-0.7,0.4
		s-0.5,0.2-0.8,0.2C473.1,256,472.8,255.9,472.5,255.8z"/>
	<path class="st1" d="M476.6,255.8c-0.2-0.1-0.4-0.3-0.5-0.6c-0.1-0.2-0.2-0.5-0.2-0.9v-0.9c0-0.3,0.1-0.6,0.2-0.9
		c0.1-0.2,0.3-0.4,0.5-0.6c0.2-0.1,0.4-0.2,0.7-0.2c0.2,0,0.5,0.1,0.7,0.2s0.4,0.3,0.5,0.5l-0.1,0.8c0-0.2,0-0.3-0.1-0.4
		c-0.1-0.1-0.2-0.2-0.3-0.3c-0.1-0.1-0.3-0.1-0.4-0.1c-0.3,0-0.5,0.1-0.6,0.2s-0.2,0.4-0.2,0.7v0.9c0,0.3,0.1,0.5,0.2,0.7
		s0.3,0.2,0.6,0.2c0.2,0,0.3,0,0.4-0.1c0.1-0.1,0.2-0.2,0.3-0.3s0.1-0.3,0.1-0.4l0.1,0.9c-0.1,0.2-0.2,0.4-0.4,0.5
		c-0.2,0.1-0.4,0.2-0.7,0.2C477.1,256,476.9,255.9,476.6,255.8z M478.4,250.3h0.8v5.7h-0.8V250.3z"/>
	<path class="st1" d="M481.2,254.3c0,0.3,0.1,0.5,0.2,0.7c0.1,0.2,0.3,0.2,0.6,0.2c0.3,0,0.5-0.1,0.6-0.2c0.1-0.1,0.2-0.3,0.2-0.6
		l0.1,0.8c-0.1,0.2-0.2,0.4-0.4,0.5c-0.2,0.1-0.4,0.2-0.7,0.2c-0.4,0-0.8-0.1-1-0.4c-0.2-0.3-0.4-0.7-0.4-1.2v-2.5h0.8V254.3z
		 M482.9,251.9h0.8v4.1h-0.8V251.9z"/>
	<path class="st1" d="M485.7,254.9c0,0.1,0,0.2,0.1,0.2c0,0.1,0.1,0.1,0.2,0.1h0.4v0.8h-0.5c-0.3,0-0.5-0.1-0.7-0.3
		c-0.2-0.2-0.2-0.5-0.2-0.8v-4.6h0.8V254.9z"/>
	<path class="st1" d="M487.9,255.8c-0.3-0.1-0.5-0.3-0.6-0.6c-0.1-0.3-0.2-0.6-0.2-1v-0.5c0-0.4,0.1-0.7,0.2-1
		c0.1-0.3,0.3-0.5,0.6-0.6c0.3-0.1,0.6-0.2,0.9-0.2c0.3,0,0.6,0.1,0.9,0.3c0.2,0.2,0.4,0.4,0.5,0.7c0.1,0.3,0.2,0.7,0.2,1.2v0.3
		h-2.7v-0.6h2c0-0.3-0.1-0.6-0.3-0.8c-0.1-0.2-0.3-0.3-0.6-0.3c-0.3,0-0.5,0.1-0.7,0.3c-0.2,0.2-0.2,0.5-0.2,0.8v0.5
		c0,0.3,0.1,0.6,0.3,0.8c0.2,0.2,0.4,0.3,0.8,0.3c0.2,0,0.3,0,0.5-0.1c0.2-0.1,0.3-0.2,0.4-0.3l0.5,0.5c-0.2,0.2-0.4,0.3-0.7,0.4
		s-0.5,0.2-0.8,0.2C488.5,256,488.2,255.9,487.9,255.8z"/>
	<path class="st1" d="M492.9,250.3h4v0.8h-4V250.3z M494.5,250.7h0.8v5.2h-0.8V250.7z"/>
	<path class="st1" d="M497.4,255.7c-0.2-0.2-0.4-0.5-0.4-0.9c0-0.4,0.1-0.7,0.3-0.9c0.2-0.2,0.6-0.3,1-0.3h1.2l0.1,0.6h-1.2
		c-0.2,0-0.4,0-0.5,0.1c-0.1,0.1-0.2,0.2-0.2,0.4c0,0.2,0.1,0.4,0.2,0.5c0.1,0.1,0.3,0.1,0.6,0.1c0.3,0,0.5,0,0.7-0.1
		c0.1-0.1,0.2-0.2,0.2-0.3l0.1,0.6c-0.1,0.1-0.2,0.2-0.3,0.3c-0.1,0.1-0.2,0.1-0.4,0.2c-0.1,0-0.3,0.1-0.5,0.1
		C498,256,497.6,255.9,497.4,255.7z M499.5,253.4c0-0.3-0.1-0.5-0.2-0.6c-0.1-0.1-0.3-0.2-0.6-0.2c-0.2,0-0.3,0-0.5,0.1
		c-0.2,0-0.3,0.1-0.4,0.2l-0.6-0.4c0.2-0.2,0.4-0.3,0.6-0.4c0.3-0.1,0.5-0.2,0.8-0.2c0.3,0,0.6,0.1,0.9,0.2c0.2,0.1,0.4,0.3,0.5,0.5
		c0.1,0.2,0.2,0.5,0.2,0.8v2.6h-0.8V253.4z"/>
	<path class="st1" d="M502.2,255.9c-0.2,0-0.4-0.1-0.6-0.2c-0.2-0.1-0.4-0.2-0.5-0.4l0.5-0.6c0.2,0.2,0.4,0.3,0.7,0.4
		c0.2,0.1,0.4,0.1,0.6,0.1c0.3,0,0.6,0,0.7-0.1c0.2-0.1,0.2-0.2,0.2-0.4c0-0.1,0-0.2-0.1-0.3c-0.1-0.1-0.2-0.1-0.3-0.1
		c-0.1,0-0.3,0-0.5-0.1c0,0,0,0-0.1,0c0,0,0,0-0.1,0c0,0,0,0,0,0c0,0,0,0,0,0c-0.3,0-0.5-0.1-0.7-0.1c-0.2-0.1-0.3-0.2-0.5-0.3
		c-0.1-0.2-0.2-0.4-0.2-0.7c0-0.3,0.1-0.5,0.2-0.7c0.1-0.2,0.3-0.3,0.5-0.4c0.2-0.1,0.5-0.1,0.9-0.1c0.2,0,0.4,0,0.6,0.1
		s0.4,0.1,0.5,0.2c0.2,0.1,0.3,0.2,0.5,0.3l-0.5,0.6c-0.2-0.1-0.4-0.2-0.6-0.3c-0.2-0.1-0.4-0.1-0.6-0.1c-0.3,0-0.5,0-0.6,0.1
		c-0.1,0.1-0.2,0.2-0.2,0.4c0,0.1,0,0.2,0.1,0.2c0.1,0.1,0.2,0.1,0.3,0.1c0.1,0,0.3,0,0.5,0c0,0,0,0,0,0c0,0,0,0,0.1,0c0,0,0,0,0,0
		s0,0,0,0c0.3,0,0.5,0.1,0.7,0.1c0.2,0.1,0.4,0.2,0.5,0.3c0.1,0.2,0.2,0.4,0.2,0.7c0,0.3-0.1,0.5-0.2,0.7s-0.3,0.3-0.6,0.4
		c-0.3,0.1-0.6,0.1-0.9,0.1C502.6,256,502.4,256,502.2,255.9z"/>
	<path class="st1" d="M505.6,250.3h0.8v5.7h-0.8V250.3z M505.9,254.4l2.1-2.5h0.9l-3.1,3.5L505.9,254.4z M506.9,253.6l0.5-0.5
		l1.8,2.9h-0.9L506.9,253.6z"/>
	<path class="st1" d="M515.1,252.9v0.8h-3.2v-0.8H515.1z M513.9,254.9h-0.8v-3.2h0.8V254.9z"/>
</g>
<rect x="375" y="141" class="st1" width="3" height="1"/>
<rect x="532" y="142" class="st1" width="3" height="1"/>
</svg>
