<?xml version="1.0" encoding="utf-8"?>
<!-- Generator: Adobe Illustrator 25.2.1, SVG Export Plug-In . SVG Version: 6.00 Build 0)  -->
<svg version="1.1" id="Capa_1" xmlns="http://www.w3.org/2000/svg" xmlns:xlink="http://www.w3.org/1999/xlink" x="0px" y="0px"
	 viewBox="0 0 247 156" style="enable-background:new 0 0 247 156;" xml:space="preserve">
<style type="text/css">
	.st0{fill:#22B573;}
	.st1{fill:#009245;}
</style>
<g>
	<path class="st0" d="M219.2,57.3c-20.4-4.8-41.9-1.8-60,8.2c0.2,2,0.3,4,0.3,6.1v36.9l-40.9,35.9l48.7,11.5l32.3-21
		c19.2-12.5,32.1-32.2,35.5-54.4l2.9-18.7L219.2,57.3z"/>
	<path class="st0" d="M77.2,108.4V71.5c0-1.6,0.2-3.2,0.3-4.8c-18.3-9.8-39.7-12.5-60.1-7.5l-17.8,4.4l2.5,17.7
		c3.2,22.5,16.2,42.6,35.7,55.3l30.6,19.9l49.5-12.3L77.2,108.4z"/>
	<path class="st1" d="M159.5,108.4V71.5c0-2-0.2-4.1-0.3-6.1c-1.6-20.3-11.1-39.3-26.7-53.1L118.3-0.1l-14.1,12.4
		c-16,14.1-25.5,33.6-26.8,54.4c-0.1,1.6-0.3,3.2-0.3,4.8v36.9l40.6,35.7l0.5,0.4l0.3-0.3L159.5,108.4z"/>
</g>
</svg>
