<?xml version="1.0" encoding="utf-8"?>
<!-- Generator: Adobe Illustrator 25.2.1, SVG Export Plug-In . SVG Version: 6.00 Build 0)  -->
<svg version="1.1" id="Capa_1" xmlns="http://www.w3.org/2000/svg" xmlns:xlink="http://www.w3.org/1999/xlink" x="0px" y="0px"
	 viewBox="0 0 212 69" style="enable-background:new 0 0 212 69;" xml:space="preserve">
<style type="text/css">
	.st0{stroke:#000000;stroke-width:0.25;stroke-miterlimit:10;}
	.st1{font-family:'ZeutyScript-Script';}
	.st2{font-size:40px;}
	.st3{fill:#22B573;}
	.st4{fill:#009245;}
	.st5{fill:#FFFFFF;}
</style>
<text transform="matrix(0.9778 0 0 1 102.1743 58.1787)" class="st0 st1 st2">Ticked!</text>
<g>
	<path class="st3" d="M81,34c-7.5-1.7-15.5-0.6-22.2,2.8c0.1,0.7,0.1,1.4,0.1,2.1v12.9L43.9,64.5l18,4l12-7.4
		c7.1-4.4,11.9-11.3,13.1-19l1.1-6.5L81,34z"/>
	<path class="st3" d="M28.5,39c0-0.6,0.1-1.1,0.1-1.7c-6.7-3.4-14.7-4.4-22.2-2.6l-6.6,1.5l0.9,6.2C2,50.3,6.8,57.3,14,61.7
		l11.3,6.9l18.3-4.3l-15-12.5V39z"/>
	<path class="st4" d="M59,39c0-0.7-0.1-1.4-0.1-2.1c-0.6-7.1-4.1-13.7-9.9-18.6L43.7,14l-5.2,4.3c-5.9,4.9-9.4,11.7-9.9,19
		c0,0.6-0.1,1.1-0.1,1.7v12.9l15,12.5l0.2,0.2l0.1-0.1L59,51.9V39z M53.4,35.9L42.3,48.7l0,0l-2,2.3c-0.5,0.6-1.3,0.6-1.8,0
		l-4.6-5.3c-0.5-0.6-0.5-1.5,0-2.1l1.1-1.3c0.5-0.6,1.3-0.6,1.8,0l1.5,1.8c0.5,0.6,1.3,0.6,1.8,0l10.1-11.7c0.5-0.6,1.3-0.6,1.8,0
		l1.2,1.4C53.9,34.4,53.9,35.4,53.4,35.9z"/>
	<path class="st5" d="M52.2,32.4c-0.5-0.6-1.3-0.6-1.8,0L40.2,44.1c-0.5,0.6-1.3,0.6-1.8,0l-1.5-1.8c-0.5-0.6-1.3-0.6-1.8,0
		l-1.1,1.3c-0.5,0.6-0.5,1.5,0,2.1l4.6,5.3c0.5,0.6,1.3,0.6,1.8,0l2-2.3l0,0l11.1-12.7c0.5-0.6,0.5-1.5,0-2.1L52.2,32.4z"/>
</g>
</svg>
