<?xml version="1.0" encoding="utf-8"?>
<!-- Generator: Adobe Illustrator 25.2.1, SVG Export Plug-In . SVG Version: 6.00 Build 0)  -->
<svg version="1.1" id="Capa_1" xmlns="http://www.w3.org/2000/svg" xmlns:xlink="http://www.w3.org/1999/xlink" x="0px" y="0px"
	 viewBox="0 0 212 69" style="enable-background:new 0 0 212 69;" xml:space="preserve">
<style type="text/css">
	.st0{stroke:#000000;stroke-width:0.25;stroke-miterlimit:10;}
	.st1{fill:#22B573;}
	.st2{fill:#009245;}
	.st3{fill:#FFFFFF;}
</style>
<g>
	<path class="st0" d="M112.3,35c-0.1,0-0.2,0-0.3,0c-0.1,0-0.2,0-0.3,0c-0.8,0.1-1.6,0.2-2.4,0.2c-0.6,0.1-1.1,0.1-1.7,0.1
		c-0.6,0-1.1,0-1.7,0.1c-0.6,0-1.1,0-1.7-0.1c-0.4-0.1-0.8-0.2-1-0.4c-0.2-0.2-0.4-0.6-0.6-1c-0.1-0.4-0.1-0.8,0-1.1
		c0.1-0.3,0.3-0.5,0.6-0.7c0.2-0.1,0.5-0.1,0.7,0.1c0.2,0.1,0.3,0.2,0.4,0.4c0.1,0.1,0.2,0.3,0.2,0.5c0,0.1,0.1,0.1,0.2,0.1
		c0.4,0,0.8,0,1.2,0c0.4,0,0.8,0,1.1,0c0.4,0,0.7,0,1.1-0.1c0.3,0,0.7,0,1.1-0.1c0.5-0.1,0.9-0.1,1.4-0.2c0.5-0.1,0.9-0.1,1.3-0.2
		l4.1-0.6c0.5-0.1,1.1-0.2,1.6-0.2c0.5-0.1,1.1-0.1,1.6-0.2c0.6-0.1,1.1-0.2,1.7-0.2c0.5-0.1,1.1-0.1,1.7-0.2c0.5-0.1,1-0.1,1.6-0.2
		c0.5-0.1,1.1-0.1,1.6-0.2c0.6-0.1,1.1-0.1,1.7-0.2c0.6-0.1,1.1-0.1,1.7-0.2c0.3-0.1,0.5-0.1,0.8-0.1c0.3,0,0.5,0,0.8,0
		c0.4,0,0.7,0.2,0.9,0.6c0.1,0.2,0.1,0.4,0.2,0.7c0,0.2,0,0.5-0.1,0.8c-0.1,0.1-0.1,0.2-0.2,0.3c-0.1,0.1-0.2,0.2-0.4,0.2
		c-0.4-0.1-0.7-0.1-1.1,0c-0.7,0.1-1.5,0.1-2.2,0.2c-0.7,0.1-1.4,0.2-2.2,0.3c-1,0.1-2.1,0.3-3.1,0.4c-1,0.1-2.1,0.2-3.1,0.4
		c-0.6,0.1-1.3,0.2-1.9,0.2c-0.6,0.1-1.3,0.2-1.9,0.3c-0.1,0-0.1,0-0.2,0.1c-0.1,0.1-0.2,0.3-0.2,0.4c-0.1,0.1-0.1,0.3-0.2,0.4
		c-0.4,0.8-0.8,1.7-1.1,2.5c-0.3,0.9-0.7,1.7-1,2.6c-0.5,1.2-0.9,2.4-1.3,3.6c-0.4,1.2-0.9,2.4-1.3,3.6c-0.4,1.3-0.9,2.5-1.3,3.8
		c-0.4,1.2-0.8,2.5-1.2,3.8c-0.3,0.9-0.5,1.7-0.8,2.5c-0.2,0.8-0.5,1.7-0.7,2.5c-0.1,0.5-0.3,1-0.4,1.5c-0.1,0.5-0.3,1-0.4,1.5
		c-0.1,0.4-0.4,0.6-0.7,0.7c-0.6,0.2-1.2,0.1-1.7-0.2c-0.2-0.1-0.2-0.3-0.2-0.5c0.2-0.7,0.4-1.5,0.6-2.2c0.2-0.7,0.4-1.5,0.6-2.3
		c0.4-1.4,0.7-2.7,1.2-4c0.4-1.3,0.8-2.7,1.3-4c0.6-1.9,1.3-3.8,2-5.7c0.7-1.9,1.4-3.8,2.1-5.7c0.3-0.7,0.6-1.4,0.8-2.1
		C111.7,36.5,112,35.8,112.3,35C112.3,35.1,112.3,35.1,112.3,35C112.3,35.1,112.3,35,112.3,35z"/>
	<path class="st0" d="M124.6,46.2c0.4,0.1,0.7,0.3,0.8,0.5c0.1,0.2,0.2,0.5,0.1,0.8c0,0.3-0.3,0.7-0.7,1.3c-0.6,0.6-1.3,1.4-2.1,2.4
		c-0.9,1-1.8,1.9-2.7,2.8c-0.9,0.9-1.9,1.7-2.7,2.3c-0.9,0.7-1.6,1-2.1,1h-0.4c-0.2,0-0.4-0.1-0.6-0.1c-0.2,0-0.3-0.1-0.5-0.2
		c-0.6-0.3-0.9-0.8-1-1.5c-0.1-0.4-0.1-0.7,0-1.1c0.1-0.4,0.1-0.7,0.2-1.1c0.2-1.4,0.5-2.7,1-4c0.5-1.3,1-2.6,1.5-3.9
		c0.3-0.7,0.6-1.4,0.9-2c0.3-0.6,0.7-1.3,1-1.9c0.1-0.2,0.3-0.3,0.5-0.2c0.2,0,0.4,0.1,0.7,0.3c0.2,0.1,0.3,0.3,0.4,0.4
		c0.1,0.1,0.2,0.3,0.3,0.5c0.1,0.2,0.1,0.5-0.1,0.7c-0.3,0.5-0.5,1.1-0.8,1.6c-0.2,0.6-0.5,1.1-0.7,1.7c-0.3,0.8-0.6,1.5-0.9,2.3
		c-0.3,0.8-0.6,1.6-0.8,2.4c-0.2,0.5-0.3,1.1-0.4,1.7c-0.1,0.6-0.2,1.1-0.3,1.7c0,0.1,0,0.2,0,0.3c0,0.1,0,0.2,0,0.3L124.6,46.2z
		 M118.7,40c-0.1-0.1-0.1-0.2-0.2-0.2c-0.1-0.2-0.1-0.3,0-0.5c0.2-0.3,0.4-0.6,0.6-0.9c0.2-0.3,0.4-0.6,0.6-0.9
		c0.1-0.1,0.1-0.1,0.2-0.1c0.1,0,0.1-0.1,0.2-0.1v0c0.1-0.1,0.2-0.1,0.4,0c0.1,0,0.2,0.1,0.4,0.1c0.2,0.1,0.4,0.2,0.6,0.3
		c0.2,0.1,0.3,0.2,0.4,0.4l0.1,0.2c0.1,0.1,0,0.3,0,0.4c-0.2,0.3-0.4,0.6-0.5,0.9c-0.2,0.3-0.3,0.6-0.5,0.9
		c-0.1,0.2-0.3,0.4-0.6,0.4c-0.1,0-0.2,0-0.4-0.1c-0.2-0.1-0.4-0.1-0.6-0.2S118.8,40.2,118.7,40z"/>
	<path class="st0" d="M136.4,46.2c0.2,0.2,0.3,0.3,0.4,0.6c0.1,0.2,0.1,0.4,0.1,0.6c0,0.2-0.1,0.5-0.3,0.8c-0.2,0.3-0.4,0.6-0.7,0.9
		c-0.3,0.3-0.6,0.6-1,1c-0.3,0.3-0.6,0.6-0.9,0.9c-0.3,0.3-0.5,0.4-0.7,0.6c-0.6,0.5-1.2,0.9-1.8,1.3c-0.6,0.4-1.2,0.8-1.9,1.1
		c-0.4,0.2-0.9,0.4-1.3,0.5c-0.5,0.1-0.9,0.1-1.4,0.1c-0.6-0.1-1.1-0.2-1.6-0.4c-0.5-0.2-0.9-0.5-1.3-1c-0.6-0.7-0.9-1.5-0.8-2.4
		c0-0.6,0.1-1.2,0.3-1.7c0.2-0.5,0.4-1.1,0.6-1.6c0.6-1.4,1.5-2.6,2.7-3.7c0.4-0.3,0.7-0.6,1.1-0.8c0.4-0.2,0.9-0.4,1.3-0.5
		c0.6-0.2,1.2-0.2,1.7,0c0.4,0.2,0.8,0.5,1.1,0.8c0.3,0.3,0.5,0.7,0.7,1.2c0.1,0.3,0.1,0.6,0.1,0.8c0,0.3-0.1,0.5-0.2,0.8
		c-0.3,0.6-0.6,1.2-1,1.8c-0.2,0.2-0.4,0.3-0.7,0.2c-0.2-0.1-0.3-0.1-0.5-0.3c-0.1-0.1-0.3-0.2-0.4-0.4c-0.2-0.2-0.3-0.5-0.4-0.8
		c-0.1-0.2,0-0.3,0.1-0.4c0.2-0.2,0.3-0.5,0.5-0.7c0.1-0.3,0.3-0.5,0.4-0.8c0,0,0.1-0.1,0.1-0.2c-0.1,0-0.2,0.1-0.4,0.1
		c-0.8,0.3-1.5,0.8-2.1,1.4c-0.6,0.5-1,1.1-1.4,1.8c-0.4,0.7-0.7,1.4-1,2.2c-0.2,0.7-0.3,1.5-0.3,2.1c0.1,0.4,0.2,0.7,0.3,1
		c0.1,0.2,0.2,0.2,0.4,0.2c0.3,0,0.5-0.1,0.7-0.1c0.2-0.1,0.5-0.2,0.7-0.3c0.5-0.2,1-0.4,1.5-0.7c0.5-0.3,1-0.6,1.4-0.9
		c0.3-0.2,0.7-0.6,1.4-1.1c0.6-0.5,1.3-1.1,1.9-1.6C134.7,47.6,135.5,46.9,136.4,46.2z"/>
	<path class="st0" d="M152.8,46.2c0.4,0.2,0.7,0.4,0.9,0.6c0.2,0.2,0.3,0.5,0.3,0.8c0,0.3-0.2,0.7-0.5,1.2c-0.4,0.5-0.9,1.1-1.6,1.9
		s-1.5,1.6-2.3,2.4c-0.8,0.8-1.6,1.5-2.4,2.2c-0.8,0.7-1.3,1-1.7,1.1c-0.3,0.1-0.7,0.1-1.1,0.1c-0.5-0.1-0.9-0.2-1.2-0.4
		c-0.4-0.2-0.7-0.5-1-1c-0.1-0.2-0.2-0.3-0.2-0.5c-0.1-0.2-0.1-0.4-0.2-0.6c-0.1-0.4-0.2-0.7-0.3-1.1c-0.1-0.3-0.2-0.7-0.2-1.1
		c-0.1-0.3-0.1-0.6-0.2-0.9c-0.1-0.3-0.1-0.6-0.2-0.9c0-0.1-0.1-0.3-0.1-0.4c0-0.1-0.1-0.3-0.1-0.4l-0.1,0.1c-0.6,1-1.3,2-1.8,3
		c-0.6,1-1.1,2.1-1.6,3.2c-0.2,0.4-0.3,0.9-0.5,1.3c-0.1,0.4-0.3,0.9-0.4,1.3c-0.1,0.2-0.1,0.4-0.2,0.6c-0.1,0.2-0.1,0.4-0.2,0.6
		c-0.1,0.2-0.2,0.3-0.5,0.4c-0.2,0.1-0.4,0.1-0.6,0c-0.2,0-0.4-0.1-0.6-0.1c-0.2-0.1-0.4-0.2-0.6-0.4c-0.2-0.2-0.2-0.3-0.1-0.4
		c0.1-0.6,0.2-1.2,0.3-1.8c0.1-0.6,0.2-1.2,0.3-1.8c0.2-0.7,0.3-1.4,0.5-2.2c0.2-0.7,0.3-1.5,0.5-2.2c0.3-1.3,0.7-2.6,1.1-3.8
		c0.4-1.3,0.8-2.5,1.3-3.8c0.4-0.9,0.7-1.9,1.1-2.8c0.4-0.9,0.8-1.8,1.2-2.7c0.6-1.3,1.2-2.5,1.7-3.8c0.6-1.3,1.1-2.5,1.7-3.8
		c0.1-0.1,0.1-0.2,0.2-0.3c0.1-0.1,0.1-0.2,0.2-0.3c0.1-0.2,0.1-0.2,0.3-0.2c0.2,0,0.3,0,0.4,0.1c0.5,0.3,0.9,0.7,1,1.3
		c0.1,0.1,0.1,0.3,0,0.6c-0.4,0.8-0.7,1.6-1,2.4c-0.3,0.8-0.7,1.6-1,2.4c-0.4,0.9-0.8,1.9-1.2,2.8c-0.4,0.9-0.8,1.9-1.2,2.8
		c-0.9,2.1-1.7,4.3-2.3,6.6c0,0.1,0,0.1,0,0.1l0,0c0.1-0.2,0.2-0.4,0.4-0.6c0.1-0.2,0.2-0.4,0.4-0.5c0.4-0.6,0.8-1.2,1.2-1.7
		s0.9-1.1,1.4-1.6c0.4-0.4,0.7-0.7,1.1-1c0.4-0.3,0.8-0.6,1.2-0.9c0.3-0.2,0.7-0.3,1.1-0.4c0.2-0.1,0.4,0,0.7,0
		c0.2,0.1,0.4,0.2,0.6,0.3c0.3,0.1,0.5,0.3,0.7,0.5c0.2,0.2,0.4,0.5,0.5,0.8c0.1,0.2,0.1,0.4,0.1,0.7c0,0.2,0,0.4,0,0.7
		c-0.1,0.4-0.1,0.8-0.2,1.2c-0.1,0.4-0.2,0.8-0.4,1.1c-0.4,0.8-1,1.5-1.9,2c-0.3,0.2-0.6,0.4-1,0.5s-0.7,0.2-1.1,0.3
		c-0.1,0-0.1,0-0.2,0c0.3,0.8,0.5,1.6,0.7,2.5c0.2,0.8,0.4,1.7,0.7,2.5c1.4-1.3,2.6-2.5,3.8-3.6c0.5-0.5,1-1,1.5-1.5
		c0.5-0.5,1-1,1.4-1.4c0.4-0.5,0.8-0.9,1.1-1.3C152.4,46.7,152.6,46.4,152.8,46.2z M141.3,48.4c1.2-0.2,2.1-0.7,2.9-1.5
		c0.4-0.4,0.6-0.8,0.8-1.3c0.2-0.5,0.3-1,0.4-1.5c-0.8,0.6-1.6,1.2-2.2,2C142.6,46.7,141.9,47.5,141.3,48.4z"/>
	<path class="st0" d="M164.5,46.2c0.3,0.2,0.5,0.5,0.7,0.7c0.2,0.2,0.2,0.5,0.3,0.7c0,0.3,0,0.6-0.2,0.9c-0.2,0.3-0.5,0.6-0.8,0.9
		c-0.3,0.3-0.6,0.7-0.9,1c-0.4,0.3-0.7,0.7-1.1,1.1l-1.4,1.3c-1,0.9-2,1.5-3.1,2c-0.3,0.1-0.6,0.2-0.8,0.3s-0.5,0.1-0.8,0.1
		c-0.3,0-0.6-0.1-0.9-0.2c-0.3-0.1-0.6-0.2-0.9-0.4c-0.8-0.5-1.5-1.2-1.8-2.2c-0.2-0.5-0.4-1-0.5-1.5c-0.1-0.5-0.2-1-0.1-1.5
		c0-1.5,0.4-2.8,1.3-4c0.4-0.6,0.9-1.1,1.5-1.5c0.5-0.4,1.1-0.8,1.7-1.1c0.8-0.4,1.6-0.7,2.4-0.9c1.1-0.2,2,0.1,2.8,1.2
		c0.4,0.5,0.5,1.1,0.2,1.8c-0.1,0.2-0.3,0.5-0.4,0.7c-0.1,0.2-0.3,0.4-0.5,0.6c-0.3,0.4-0.7,0.7-1,1.1c-0.3,0.3-0.7,0.7-1.1,1
		c-0.3,0.3-0.7,0.5-1.1,0.7c-0.2,0.1-0.4,0.1-0.8,0.2c-0.3,0-0.7,0-1-0.3c-0.4-0.3-0.7-0.6-0.7-0.8c0-0.2-0.1-0.4-0.2-0.5
		c-0.4,0.7-0.7,1.5-0.8,2.4c-0.1,0.5,0,0.9,0,1.3c0.1,0.4,0.2,0.8,0.3,1.3c0.1,0.2,0.2,0.5,0.3,0.7c0.1,0.2,0.3,0.4,0.5,0.6
		c0.1,0.1,0.1,0.1,0.3,0c0.3-0.1,0.6-0.2,0.9-0.4c0.3-0.2,0.6-0.3,0.8-0.5c0.4-0.3,0.9-0.7,1.3-1c0.4-0.3,0.8-0.7,1.2-1.1
		c0.1-0.1,0.3-0.3,0.5-0.5c0.2-0.2,0.4-0.4,0.5-0.5L164.5,46.2z M156.1,45.9c-0.2,0.2-0.4,0.4-0.5,0.6c-0.2,0.2-0.3,0.4-0.5,0.6h0.7
		c0.3-0.1,0.5-0.2,0.7-0.3c0.2-0.1,0.4-0.2,0.5-0.4c0.4-0.4,0.8-0.7,1.1-1.1c0.3-0.3,0.7-0.7,1-1.2l0.1-0.1c0,0,0,0,0,0
		c-0.1,0.1-0.2,0.1-0.2,0.1c-0.1,0-0.2,0-0.2,0.1c-0.5,0.2-1,0.5-1.4,0.8C157,45.2,156.5,45.6,156.1,45.9z"/>
	<path class="st0" d="M175.8,44.3c-0.3,0.8-0.5,1.5-0.8,2.3c-0.3,0.8-0.5,1.5-0.7,2.3c-0.1,0.5-0.2,1.1-0.3,1.6
		c-0.1,0.5-0.2,1-0.2,1.6c0,0.2,0,0.4,0,0.6c0,0.2,0,0.4,0.1,0.6l0,0.1c0,0,0.1-0.1,0.3-0.4c0.2-0.2,0.4-0.5,0.7-0.8
		c0.3-0.3,0.6-0.7,1-1.2c0.4-0.4,0.7-0.9,1.1-1.3l3-3.5c0.3,0.2,0.5,0.4,0.7,0.6c0.2,0.2,0.3,0.3,0.3,0.6c0.1,0.2,0.1,0.4-0.1,0.6
		c-0.1,0.1-0.2,0.3-0.4,0.6c-0.2,0.3-0.5,0.7-0.8,1.1c-0.3,0.4-0.7,0.8-1,1.3c-0.4,0.5-0.7,0.9-1,1.3c-0.3,0.4-0.6,0.8-0.8,1.1
		c-0.2,0.3-0.4,0.5-0.5,0.6c-0.2,0.2-0.4,0.4-0.5,0.6s-0.4,0.3-0.6,0.5c-0.6,0.5-1.3,0.6-2,0.4c-0.5-0.1-0.9-0.4-1.2-0.7
		c-0.3-0.3-0.5-0.8-0.6-1.3c-0.2-0.7-0.2-1.5-0.1-2.2c0-0.1,0-0.2,0.1-0.3c0-0.1,0-0.2,0-0.3c-0.2,0.2-0.4,0.5-0.6,0.7
		c-0.2,0.2-0.4,0.5-0.6,0.7c-0.3,0.4-0.7,0.7-1,1.1c-0.3,0.3-0.7,0.6-1.1,0.9c-0.3,0.2-0.5,0.4-0.7,0.5c-0.2,0.1-0.5,0.3-0.8,0.4
		c-0.7,0.2-1.4,0.2-2.1-0.1c-0.6-0.3-1.1-0.6-1.4-1.1c-0.2-0.3-0.3-0.6-0.3-0.9c-0.1-0.3-0.1-0.6,0-0.9c0.1-0.5,0.1-1.1,0.3-1.6
		c0.1-0.5,0.3-1,0.5-1.6c0.7-1.9,1.7-3.7,3-5.2c0.2-0.2,0.4-0.4,0.6-0.6c0.2-0.2,0.4-0.4,0.7-0.5c0.6-0.4,1.2-0.5,1.9-0.2
		c0.4,0.2,0.7,0.4,1.1,0.6c0.3,0.3,0.6,0.5,0.9,0.9c0.4,0.4,0.6,0.8,0.8,1.2c0,0,0,0,0,0.1l0.5-0.7c0.2-0.4,0.5-0.8,0.7-1.3
		c0.2-0.5,0.5-0.9,0.7-1.3c0.1-0.2,0.2-0.4,0.3-0.6c0.1-0.3,0.2-0.5,0.4-0.8c0.1-0.3,0.2-0.6,0.4-0.9c0.1-0.3,0.2-0.6,0.3-0.8
		c0.2-0.6,0.4-1.1,0.6-1.5s0.3-0.8,0.5-1.2c0.2-0.4,0.3-0.8,0.5-1.2s0.3-0.9,0.5-1.4c0.2-0.5,0.3-0.9,0.5-1.2
		c0.1-0.3,0.2-0.6,0.3-0.9c0.1-0.3,0.2-0.5,0.3-0.7c0.1-0.2,0.2-0.5,0.3-0.7c0.1-0.2,0.2-0.3,0.3-0.3c0.1,0,0.2,0,0.4,0.1
		c0.3,0.1,0.5,0.2,0.7,0.3c0.2,0.1,0.3,0.3,0.5,0.5c0.2,0.2,0.2,0.5,0.2,0.7c-0.5,1.5-1,2.9-1.5,4.2c-0.5,1.3-1,2.7-1.6,4.3
		c-0.3,0.8-0.6,1.7-1,2.6C176.5,42.4,176.2,43.3,175.8,44.3z M171,46.9c0.1-0.1,0.2-0.3,0.3-0.4c0.1-0.2,0.2-0.3,0.3-0.4
		c-0.2-0.2-0.3-0.3-0.3-0.3c-0.3-0.2-0.4-0.5-0.5-0.9c-0.1-0.5-0.3-0.9-0.6-1.2c-0.1-0.1-0.2-0.1-0.2,0c-0.1,0.1-0.2,0.1-0.3,0.2
		c-0.1,0.1-0.2,0.1-0.2,0.2c-0.2,0.1-0.3,0.3-0.5,0.4c-0.2,0.1-0.3,0.3-0.4,0.5c-1.5,1.7-2.5,3.7-3.1,6c-0.1,0.3-0.1,0.6-0.2,0.9
		s-0.1,0.7-0.1,1c0,0.1,0,0.2,0.1,0.3c0,0.1,0,0.2,0,0.3c0.1-0.1,0.2-0.2,0.4-0.2c0.1-0.1,0.2-0.1,0.4-0.2c0.4-0.3,0.8-0.6,1.1-0.9
		c0.3-0.3,0.7-0.7,1-1.1c0.6-0.6,1.1-1.3,1.6-1.9S170.5,47.6,171,46.9z"/>
	<path class="st0" d="M192.4,63c0.2,0.1,0.2,0.3,0.1,0.6l-0.9,2c-0.1,0.2-0.2,0.4-0.5,0.4c-0.1,0.1-0.2,0.1-0.3,0.1
		c-0.1,0-0.2,0-0.3,0c-0.3,0-0.5-0.1-0.8-0.1c-0.2-0.1-0.4-0.1-0.6-0.3c-0.1-0.1-0.1-0.1-0.1-0.1c0,0-0.1,0-0.1-0.1
		c-0.1-0.1-0.1-0.2-0.1-0.4c0.2-0.4,0.3-0.7,0.5-1.1c0.2-0.3,0.3-0.7,0.5-1.1c0.1-0.2,0.3-0.3,0.5-0.4c0.4-0.1,0.9-0.1,1.3,0
		C192,62.7,192.2,62.8,192.4,63z M207.5,30.5c0.1,0.2,0.1,0.4,0,0.7c-0.4,0.7-0.8,1.5-1.2,2.2s-0.7,1.5-1.1,2.3
		c-0.7,1.5-1.3,2.9-2,4.4c-0.7,1.5-1.3,2.9-2,4.4L196,56.2c-0.4,0.7-0.7,1.5-1.1,2.2c-0.4,0.7-0.7,1.5-1.1,2.2c0,0.1,0,0.1,0,0.1
		c0,0,0,0.1,0,0.1c-0.1,0.2-0.3,0.3-0.5,0.4c-0.1,0-0.2,0-0.3,0.1c-0.1,0-0.2,0-0.2,0c-0.3-0.1-0.5-0.1-0.8-0.1
		c-0.2,0-0.4-0.1-0.7-0.3c-0.1-0.1-0.1-0.2-0.2-0.2c-0.1-0.1-0.1-0.3,0-0.4c0.4-0.8,0.8-1.6,1.2-2.4c0.4-0.8,0.8-1.6,1.1-2.4
		c0.7-1.5,1.4-3,2.1-4.6c0.7-1.5,1.4-3.1,2-4.6c1-2.3,2-4.6,3.1-6.8c1-2.3,2.1-4.5,3.2-6.8c0.2-0.5,0.5-1,0.7-1.4
		c0.2-0.5,0.5-0.9,0.7-1.4c0.1-0.2,0.3-0.3,0.5-0.4c0.3,0,0.6,0.1,0.8,0.3c0.2,0.1,0.3,0.2,0.5,0.3
		C207.3,30.1,207.4,30.3,207.5,30.5z"/>
</g>
<g>
	<path class="st1" d="M82.9,34c-7.7-1.7-15.8-0.6-22.7,2.8c0.1,0.7,0.1,1.4,0.1,2.1v12.9L44.9,64.5l18.4,4l12.2-7.4
		c7.3-4.4,12.1-11.3,13.4-19l1.1-6.5L82.9,34z"/>
	<path class="st1" d="M29.2,39c0-0.6,0.1-1.1,0.1-1.7c-6.9-3.4-15-4.4-22.7-2.6l-6.7,1.5l1,6.2C2,50.3,6.9,57.3,14.3,61.7l11.5,6.9
		l18.7-4.3L29.2,51.9V39z"/>
	<path class="st2" d="M60.3,39c0-0.7-0.1-1.4-0.1-2.1c-0.6-7.1-4.2-13.7-10.1-18.6L44.7,14l-5.3,4.3c-6,4.9-9.6,11.7-10.1,19
		c0,0.6-0.1,1.1-0.1,1.7v12.9l15.4,12.5l0.2,0.2l0.1-0.1l15.4-12.5V39z M54.6,35.9L43.3,48.7l0,0L41.2,51c-0.5,0.6-1.4,0.6-1.9,0
		l-4.7-5.3c-0.5-0.6-0.5-1.5,0-2.1l1.1-1.3c0.5-0.6,1.4-0.6,1.9,0l1.6,1.8c0.5,0.6,1.4,0.6,1.9,0l10.4-11.7c0.5-0.6,1.4-0.6,1.9,0
		l1.2,1.4C55.1,34.4,55.1,35.4,54.6,35.9z"/>
	<path class="st3" d="M53.4,32.4c-0.5-0.6-1.4-0.6-1.9,0L41.1,44.1c-0.5,0.6-1.4,0.6-1.9,0l-1.6-1.8c-0.5-0.6-1.4-0.6-1.9,0
		l-1.1,1.3c-0.5,0.6-0.5,1.5,0,2.1l4.7,5.3c0.5,0.6,1.4,0.6,1.9,0l2.1-2.3l0,0l11.3-12.7c0.5-0.6,0.5-1.5,0-2.1L53.4,32.4z"/>
</g>
</svg>
